<svg width="238" height="43" viewBox="0 0 238 43" fill="none" xmlns="http://www.w3.org/2000/svg">
<g clip-path="url(#clip0)">
<path d="M126.625 35.6999V7.19922H145.047V13.8061H134.297V35.6999H126.625Z" fill="#E30015"/>
<path d="M168.227 35.6999V24.5366H156.8V35.6999H149.128V7.19922H156.8V17.8386H168.227V7.19922H175.899V35.6999H168.227Z" fill="#E30015"/>
<path d="M211.508 7.19922V13.8061H220.462V35.6999H228.158V13.8061H237.159V7.19922H211.508Z" fill="#E30015"/>
<path d="M200.198 35.6999V19.4561L187.979 35.6999H181.542V7.19922H189.238V23.2607L201.247 7.19922H207.893V35.6999H200.198Z" fill="#E30015"/>
<path d="M82.4812 35.6999V18.7499L74.8091 27.7033L67.1369 18.7499V35.6999H59.4648V7.19922H67.0437L74.8091 16.9956L82.5744 7.19922H90.1533V35.6999H82.4812Z" fill="#E30015"/>
<path d="M104.751 25.6757H111.887L108.319 16.745L104.751 25.6757ZM115.874 35.6999L114.289 31.713H102.326L100.74 35.6999H92.9981L104.821 7.19922H111.933L123.756 35.6999H115.874Z" fill="#E30015"/>
<path d="M0 12.9859C0 9.52301 1.37585 6.26514 3.89435 3.80465C6.41286 1.34416 9.74754 0 13.2921 0H43.9805V6.60687H13.2921C11.5665 6.60687 9.91078 7.26756 8.67485 8.47502C7.43892 9.68248 6.76265 11.3 6.76265 12.9859L6.71601 24.0581C6.41286 26.997 4.12755 29.3664 1.18929 29.822L0 30.0043V12.9859Z" fill="#E30015"/>
<path d="M-6.10352e-05 42.8989V36.292H30.6884C32.414 36.292 34.0697 35.6314 35.3056 34.4011C36.5416 33.1937 37.2412 31.5989 37.2412 29.8902V19.3648C37.2412 16.2436 39.6197 13.5097 42.7912 13.0541L43.9805 12.8718V29.8902C43.9805 33.3531 42.6046 36.611 40.0861 39.0715C37.5676 41.532 34.2329 42.8761 30.6884 42.8761H-6.10352e-05V42.8989Z" fill="#E30015"/>
<path d="M26.0011 30.0269V21.4835L21.9901 26.1539L18.0025 21.4835V30.0269H12.6857V13.2363H17.7227L21.9901 18.6357L26.2809 13.2363H31.2946V30.0269H26.0011Z" fill="#E30015"/>
</g>
<defs>
<clipPath id="clip0">
<rect width="237.159" height="42.8991" fill="white"/>
</clipPath>
</defs>
</svg>
