<svg width="134" height="96" viewBox="0 0 134 96" fill="none" xmlns="http://www.w3.org/2000/svg">
<mask id="mask0" mask-type="alpha" maskUnits="userSpaceOnUse" x="1" y="0" width="132" height="95">
<path d="M8.09795 87.7054L1.61202 19.7329C1.21456 15.5676 4.27831 11.8572 8.44334 11.4598L117.924 1.01315C122.089 0.61572 125.799 3.67972 126.197 7.84504L132.683 75.8175C133.08 79.9829 130.016 83.6932 125.851 84.0907L16.3706 94.5373C12.2012 94.889 8.49541 91.8707 8.09795 87.7054Z" fill="#EE2329"/>
</mask>
<g mask="url(#mask0)">
<rect x="-6.68628" y="4.4046" width="142.07" height="100.698" transform="rotate(-5.45066 -6.68628 4.4046)" fill="#EE2329"/>
<path d="M64.2969 95.8303L60.0739 100.945L59.6226 100.572C59.4722 100.448 56.3223 97.9307 53.3 101.591L52.9273 102.042L46.4095 96.6595L57.9606 82.6704L64.4785 88.0531L64.1059 88.5044C62.8224 90.0587 62.4587 91.5715 63.0191 93.0884C63.4531 94.248 64.2597 94.9562 64.3054 94.9519L64.7567 95.3245L64.2969 95.8303ZM59.8709 99.3011L63.0174 95.4904C62.0887 94.4705 60.2574 91.7353 62.7436 88.2648L58.0809 84.4141L48.103 96.4979L52.7657 100.349C54.6093 98.3713 56.536 98.2336 57.8067 98.4819C58.6981 98.6278 59.4284 99.02 59.8709 99.3011Z" fill="#66072F"/>
<path d="M55.3948 90.6289C55.0221 91.0801 54.9329 91.5967 55.0725 92.0915C54.5603 92.048 54.0285 92.2835 53.6973 92.6846C53.1177 93.3866 53.2181 94.4394 53.92 95.019C54.622 95.5987 56.0583 95.6464 56.9649 95.4675C57.7386 95.3475 58.678 95.0269 58.678 95.0269C58.678 95.0269 58.7693 94.0482 58.7496 93.3573C58.745 92.3415 58.4723 90.9357 57.7246 90.3604C57.0271 89.8265 55.9744 89.9269 55.3948 90.6289Z" fill="#66072F"/>
<path d="M26.4133 92.3319C27.3834 93.3017 28.3995 95.2371 28.9882 96.5666L26.7525 99.2742C25.3357 98.9475 23.1974 98.3201 22.1075 97.5465C21.907 97.3808 21.7566 97.2566 21.6018 97.0867C21.5887 96.9493 21.6759 96.8948 21.763 96.8403L21.8502 96.7858C22.5018 96.3541 23.1076 95.9268 23.454 95.2009C23.8288 94.2875 23.6694 93.1018 24.4735 92.3322C24.9377 91.8723 25.7158 91.798 26.2629 92.2077C26.3131 92.2491 26.3632 92.2905 26.4133 92.3319Z" fill="#66072F"/>
<path d="M16.6252 87.7576L15.864 88.6794L16.8212 89.4699L17.5824 88.5481L16.6252 87.7576Z" fill="#66072F"/>
<path d="M20.107 86.7443L15.4657 92.3142C14.9643 91.9002 14.89 91.122 15.3041 90.6206L18.4092 86.8601C18.8734 86.4001 19.6057 86.3302 20.107 86.7443Z" fill="#66072F"/>
<path d="M31.8958 97.0282L27.7556 102.042L27.4265 101.981C27.239 101.953 22.919 101.21 20.6891 99.6218C19.0062 98.4429 18.6485 96.6294 18.8334 95.1799L16.4181 93.1009L17.2091 92.194L20.1716 94.6827L20.1106 95.0119C19.9756 95.5328 19.7384 97.4031 21.4212 98.582C23.104 99.7609 26.3124 100.471 27.3499 100.695L30.5793 96.7843C30.1628 95.8079 28.8589 92.7914 27.3831 91.3618C25.9073 89.9322 24.1158 90.5188 23.6298 90.75L23.2724 90.8765L20.2641 88.3921L21.0094 87.4896L23.4661 89.5185C24.8544 89.0627 26.707 89.1168 28.1785 90.5007C30.16 92.3901 31.7061 96.492 31.7693 96.6708L31.8958 97.0282Z" fill="#66072F"/>
<path d="M27.0103 74.882L26.0654 75.6144L32.8258 84.3366L33.7706 83.6041L27.0103 74.882Z" fill="#66072F"/>
<path d="M31.3575 80.5842L29.8352 82.4278L36.3584 87.8149L37.8807 85.9713L31.3575 80.5842Z" fill="#66072F"/>
<path d="M41.2938 85.6464L36.6982 91.212L27.3181 83.4234L28.0634 82.5208L36.5366 89.5184L39.6003 85.808L30.3249 78.148L31.1115 77.1953L41.2938 85.6464Z" fill="#66072F"/>
<path fill-rule="evenodd" clip-rule="evenodd" d="M28.2243 80.3346C26.6005 80.2585 25.2364 81.4511 25.1604 83.075C25.0387 84.7032 26.2769 86.0631 27.8592 86.1893L28.2243 80.3346ZM27.1851 82.5122C27.0804 82.3837 27.0128 82.1592 27.0455 82.0175C27.2286 82 27.4204 82.0741 27.525 82.2027C27.6297 82.3313 27.6973 82.5558 27.6646 82.6974C27.4815 82.7149 27.2897 82.6408 27.1851 82.5122ZM26.4638 83.1815C26.588 83.0311 26.7667 82.9679 26.9498 82.9504C27.1372 82.9787 27.2833 83.0572 27.3923 83.2315C27.2681 83.3819 27.0937 83.491 26.9063 83.4626C26.7188 83.4343 26.5684 83.3101 26.4638 83.1815ZM26.9021 84.3868C26.8846 84.2037 26.9587 84.0119 27.0873 83.9073C27.2158 83.8026 27.4403 83.735 27.582 83.7677C27.5995 83.9508 27.5712 84.1382 27.3968 84.2472C27.2726 84.3977 27.0939 84.4609 26.9021 84.3868Z" fill="#66072F"/>
<path d="M48.9948 76.3203L42.8216 83.7454L29.8862 73.0628L36.0136 65.6421L48.9948 76.3203ZM42.6643 82.0976L47.3014 76.4819L36.1709 67.2899L31.5339 72.9056L42.6643 82.0976Z" fill="#66072F"/>
<path d="M36.1251 67.2943L33.8066 70.1021L31.049 67.8248L33.3675 65.017L36.1251 67.2943ZM33.645 68.4085L34.4316 67.4559L33.5291 66.7106L32.7425 67.6633L33.645 68.4085Z" fill="#66072F"/>
<path fill-rule="evenodd" clip-rule="evenodd" d="M41.4245 73.948L40.5339 78.6519C41.8047 78.9002 43.0621 78.0412 43.3104 76.7703C43.5542 75.4538 42.6996 74.242 41.4245 73.948ZM41.5798 77.0279C41.6845 77.1564 41.6976 77.2938 41.6191 77.4398C41.4818 77.4529 41.3358 77.3745 41.2311 77.2459C41.1265 77.1173 41.1134 76.98 41.1918 76.8339C41.3291 76.8208 41.4752 76.8993 41.5798 77.0279ZM42.2271 76.5504C42.1443 76.6507 41.9656 76.7139 41.8239 76.6812C41.6822 76.6486 41.5361 76.5701 41.4773 76.4372C41.5601 76.3369 41.7388 76.2737 41.8805 76.3063C42.0178 76.2932 42.1682 76.4174 42.2271 76.5504ZM41.7954 75.8987C41.6668 76.0034 41.5295 76.0165 41.3835 75.938C41.3704 75.8007 41.4488 75.6547 41.5774 75.55C41.7059 75.4454 41.8433 75.4323 41.9893 75.5107C42.0024 75.648 41.924 75.7941 41.7954 75.8987Z" fill="#66072F"/>
<path fill-rule="evenodd" clip-rule="evenodd" d="M36.0038 71.8324C35.1757 72.8352 35.3242 74.3915 36.327 75.2196C37.3297 76.0477 38.8859 75.8992 39.7139 74.8964C40.542 73.8936 40.3934 72.3373 39.3907 71.5092C38.3422 70.6855 36.8318 70.8296 36.0038 71.8324ZM37.7411 73.0985C37.6583 73.1988 37.5668 73.2075 37.4665 73.1247C37.3662 73.0419 37.3575 72.9503 37.4403 72.8501C37.5231 72.7498 37.6146 72.741 37.7149 72.8239C37.8152 72.9067 37.8239 72.9982 37.7411 73.0985ZM37.5295 72.3335C37.4293 72.2507 37.4205 72.1591 37.5033 72.0588C37.5861 71.9585 37.6777 71.9498 37.7779 72.0326C37.8782 72.1154 37.887 72.207 37.8041 72.3073C37.7213 72.4075 37.584 72.4206 37.5295 72.3335ZM38.4472 72.754C38.3644 72.8543 38.2729 72.863 38.1726 72.7802C38.0723 72.6974 38.0636 72.6058 38.1464 72.5056C38.2292 72.4053 38.3207 72.3965 38.421 72.4794C38.5213 72.5622 38.53 72.6537 38.4472 72.754Z" fill="#66072F"/>
<path d="M138.058 80.8473L127.782 93.1905C126.995 94.1432 125.851 94.2523 124.853 93.47L123.048 91.9794C122.647 91.6482 121.943 91.5306 121.611 91.9317L119.779 94.5084C118.868 95.6115 117.414 95.3807 116.462 94.594C115.509 93.8073 115.003 92.3775 115.96 91.2701L116.001 91.2199L118.143 88.9832C118.309 88.7826 118.278 88.4622 118.265 88.3249C118.193 88.0546 118.025 87.7473 117.825 87.5817L116.02 86.0911C115.518 85.6771 115.241 85.1954 115.235 84.6418C115.187 84.1383 115.368 83.6129 115.74 83.1617L126.017 70.8185C126.886 69.7656 128.076 69.652 129.229 70.6043L137.757 77.689C138.308 78.1445 138.635 78.6675 138.688 79.2168C138.694 79.7704 138.514 80.2958 138.058 80.8473ZM123.839 91.0725L125.644 92.5631C125.944 92.8116 126.383 93.0469 126.879 92.4452L137.151 80.0563C137.358 79.8056 137.47 79.5178 137.452 79.3347C137.43 79.1059 137.267 78.8443 136.966 78.5959L128.438 71.5112C127.686 70.8901 127.25 71.1627 126.919 71.5638L116.643 83.907C116.518 84.0574 116.357 84.3037 116.379 84.5326C116.397 84.7157 116.51 84.9358 116.761 85.1428L118.566 86.6334C119.017 87.0061 119.298 87.5335 119.396 88.0784C119.503 88.7149 119.372 89.2816 119 89.7329L118.958 89.783L116.816 92.0197C116.324 92.6672 116.806 93.3602 117.202 93.6457C117.553 93.9355 118.329 94.3234 118.826 93.7217L120.659 91.145C121.491 90.188 122.936 90.3272 123.839 91.0725Z" fill="#66072F"/>
<path fill-rule="evenodd" clip-rule="evenodd" d="M128.068 84.572C126.453 86.5275 124.352 87.7441 122.04 88.1957C121.724 88.272 121.423 88.0236 121.438 87.6988C121.494 85.384 122.287 83.045 123.856 81.0939C125.347 79.2889 127.269 78.1355 129.385 77.564C129.396 77.1935 129.389 76.6399 129.603 75.9728C129.747 75.5434 129.862 75.3014 129.991 75.1968C130.185 75.7787 130.512 76.3018 131.013 76.7159C131.514 77.1299 132.14 77.3935 132.794 77.4697C132.715 77.6158 132.5 77.7749 132.059 78.0017C131.445 78.3375 130.859 78.4858 130.492 78.5207C130.327 80.6612 129.512 82.7713 128.068 84.572ZM122.586 85.6955C122.421 85.896 122.451 86.2165 122.652 86.3821C122.852 86.5477 123.173 86.5171 123.338 86.3166C123.504 86.116 123.473 85.7956 123.273 85.63C123.068 85.4186 122.748 85.4492 122.586 85.6955Z" fill="#66072F"/>
<path d="M134.454 94.8634L129.072 101.382C128.57 100.968 128.496 100.189 128.91 99.688L132.76 95.025C133.17 94.4778 133.948 94.4036 134.454 94.8634Z" fill="#66072F"/>
<path d="M96.6241 14.9625C96.8311 14.7118 96.8877 14.3369 96.7242 14.0753C96.602 13.7637 96.3143 13.6526 96.031 13.5872C96.0963 13.3039 95.9786 13.038 95.7279 12.8309C95.4772 12.6239 95.1481 12.5629 94.8408 12.7308C94.5335 12.8987 94.3309 13.1952 94.3614 13.5156C94.3964 13.8818 94.2439 14.2196 93.9409 14.4333L89.0464 18.3184L89.8334 19.3056L94.7279 15.4206C94.9851 15.2113 95.3926 15.1262 95.7261 15.2329C96.0553 15.2939 96.3713 15.2176 96.6241 14.9625Z" fill="#66072F"/>
<path d="M99.0587 15.7925L88.8738 28.127C88.0871 29.0797 86.5767 29.2238 85.5696 28.3499L86.3149 27.4474C86.8162 27.8614 87.5529 27.8373 87.9713 27.3817L98.1562 15.0472C98.5288 14.596 98.459 13.8636 97.9074 13.4082L98.6527 12.5056C99.6554 13.3337 99.841 14.7941 99.0587 15.7925Z" fill="#66072F"/>
<path d="M92.5003 15.3098C88.9976 13.935 85.2665 15.492 82.6952 18.5549C81.4117 20.1092 79.8253 21.8772 81.4842 23.2894L83.941 25.3182C84.5426 25.8151 85.2597 26.07 86.0008 26.0917C86.9249 26.0959 87.8053 25.6423 88.592 24.6897L93.6844 18.5224C94.4711 17.5698 93.3177 15.6475 92.5003 15.3098Z" fill="#66072F"/>
<path d="M84.1191 92.0451L82.5873 93.9003L80.5818 92.244C80.3813 92.0784 80.3093 91.8081 80.379 91.5705L80.8582 89.8158C80.8865 89.6283 81.1109 89.5607 81.2613 89.6849L84.1191 92.0451Z" fill="#66072F"/>
<path d="M94.3032 98.0941L90.4529 102.757L84.8876 98.1611L85.6743 97.2084L82.2148 94.3515L84.5333 91.5436L87.9928 94.4006L88.7794 93.4479L94.3032 98.0941ZM90.2913 101.064L92.6098 98.2557L88.8996 95.1917L88.113 96.1443L84.6535 93.2874L83.8669 94.24L87.3263 97.097L86.5397 98.0497L90.2913 101.064Z" fill="#66072F"/>
<path d="M88.1344 94.1623L85.3533 97.5305L86.275 98.2917L89.0562 94.9236L88.1344 94.1623Z" fill="#66072F"/>
<path d="M99.4325 91.8309C97.4866 94.1875 94.7471 95.0032 93.1928 93.7196C91.6386 92.4361 91.9214 89.5915 93.8673 87.2349C95.8132 84.8783 98.5527 84.0627 100.107 85.3462C101.661 86.6298 101.378 89.4744 99.4325 91.8309ZM94.8155 87.9759C93.3665 89.7308 92.9768 91.9388 93.9795 92.767C94.9822 93.5951 97.0766 92.7948 98.5257 91.0399C99.9748 89.285 100.364 87.0769 99.3617 86.2487C98.359 85.4206 96.2646 86.221 94.8155 87.9759Z" fill="#66072F"/>
<path d="M97.5775 90.2989C98.4055 89.2961 98.7257 88.2956 98.7605 87.6918C98.7713 87.3213 98.4203 87.0315 98.0585 87.1122C97.4723 87.2605 96.5504 87.7641 95.7224 88.7669C94.8943 89.7697 94.5741 90.7703 94.5394 91.3741C94.5285 91.7446 94.8795 92.0344 95.2413 91.9537C95.8275 91.8054 96.7538 91.3475 97.5775 90.2989Z" fill="#66072F"/>
<path d="M94.8156 87.9759C92.9111 90.2824 89.4783 90.6099 87.172 88.7053C84.8657 86.8006 84.5381 83.3677 86.4426 81.0612C88.3471 78.7548 91.7798 78.4272 94.0862 80.3319C96.3925 82.2365 96.7201 85.6695 94.8156 87.9759ZM87.3952 81.8479C85.9048 83.6529 86.1581 86.3078 87.963 87.7983C89.768 89.2889 92.4226 89.0356 93.9131 87.2306C95.4036 85.4256 95.1502 82.7707 93.3453 81.2802C91.5404 79.7896 88.8399 80.0472 87.3952 81.8479Z" fill="#66072F"/>
<path d="M146.677 34.6669L143.406 38.628L140.999 36.6405L127.822 28.7523C127.58 28.6368 127.417 28.3753 127.391 28.1007C127.319 27.8304 127.43 27.5427 127.595 27.3421L130.162 24.2334L132.647 21.225C132.812 21.0245 133.078 20.9067 133.353 20.8805C133.632 20.9001 133.874 21.0156 134.078 21.227L144.316 32.6751L146.677 34.6669ZM143.24 36.8886L144.979 34.7827L143.429 33.5449L133.346 22.2668L130.986 25.1248L128.709 27.8825L141.69 35.6508L143.24 36.8886ZM133.141 22.0554C133.187 22.051 133.187 22.051 133.141 22.0554V22.0554Z" fill="#66072F"/>
<path d="M140.503 42.092L136.694 46.7049C136.487 46.9556 136.121 46.9906 135.825 46.7879L128.154 40.4529L126.526 40.3311L126.641 39.1192L128.457 39.2693C128.594 39.2562 128.694 39.339 128.794 39.4218L136.165 45.5084L139.228 41.798L131.908 35.7528C131.808 35.67 131.749 35.5371 131.69 35.4041L131.3 33.7324L132.477 33.4815L132.804 34.9745L140.425 41.2681C140.671 41.4294 140.706 41.7956 140.503 42.092Z" fill="#66072F"/>
<path d="M137.121 43.431L129.152 38.3253C128.613 38.0072 126.92 37.1988 125.797 37.5369C125.618 37.6001 125.431 37.5718 125.281 37.4476L121.581 34.983L122.226 33.9977L125.725 36.2966C127.538 35.9388 129.696 37.2572 129.792 37.2942L137.762 42.3998L137.121 43.431Z" fill="#66072F"/>
<path d="M125.101 36.5408L125.949 35.259C126.032 35.1588 125.973 35.0258 125.873 34.943C125.823 34.9016 125.731 34.9103 125.64 34.919C125.631 34.8275 125.626 34.7817 125.531 34.7447C125.48 34.7033 125.389 34.712 125.297 34.7208C125.289 34.6292 125.284 34.5834 125.188 34.5464C125.138 34.505 125.047 34.5137 124.955 34.5225C124.946 34.4309 124.942 34.3851 124.846 34.3481C124.796 34.3067 124.704 34.3154 124.613 34.3242C124.604 34.2326 124.6 34.1869 124.504 34.1498C124.454 34.1084 124.362 34.1171 124.271 34.1259C124.262 34.0343 124.258 33.9886 124.162 33.9515C124.111 33.9101 124.02 33.9189 123.928 33.9276C123.92 33.836 123.915 33.7903 123.819 33.7532C123.769 33.7118 123.678 33.7206 123.586 33.7293C123.577 33.6377 123.573 33.592 123.477 33.5549C123.427 33.5135 123.335 33.5223 123.244 33.531C123.235 33.4395 123.231 33.3937 123.135 33.3566C123.085 33.3152 122.993 33.324 122.902 33.3327C122.893 33.2412 122.889 33.1954 122.793 33.1584C122.692 33.0755 122.559 33.1344 122.477 33.2347L121.629 34.5165" fill="#66072F"/>
<path d="M140.503 42.092L136.694 46.7049C136.487 46.9556 136.121 46.9906 135.825 46.7879L128.154 40.4529L126.526 40.3311L126.641 39.1192L128.457 39.2693C128.594 39.2562 128.694 39.339 128.794 39.4218L136.165 45.5084L139.228 41.798L131.908 35.7528C131.808 35.67 131.749 35.5371 131.69 35.4041L131.3 33.7324L132.477 33.4815L132.804 34.9745L140.425 41.2681C140.671 41.4294 140.706 41.7956 140.503 42.092Z" fill="#66072F"/>
<path d="M131.783 52.3468C131.737 52.3511 131.737 52.3511 131.783 52.3468C131.24 52.9528 130.517 53.1142 129.841 52.8092L127.184 51.5847C127.088 51.5476 127.005 51.6479 126.959 51.6523C126.918 51.7024 126.876 51.7526 126.935 51.8855L128.64 54.2632C129.067 54.8691 129.05 55.656 128.599 56.2533C128.148 56.8506 127.383 57.0622 126.712 56.8029L125.561 56.3585C124.94 56.1406 124.364 55.9184 123.743 55.7005C123.551 55.6264 123.359 55.5524 123.168 55.4783C121.875 55.0012 120.582 54.524 119.309 53.7679C118.525 53.2885 117.786 52.8047 117.258 52.1161C116.476 51.1746 116.294 49.76 116.726 48.4717C117.198 47.1333 118.332 46.4247 119.378 45.7706C119.465 45.7161 119.552 45.6616 119.639 45.6071C119.755 45.3651 119.829 45.1733 119.94 44.8856C120.051 44.5978 120.162 44.3101 120.319 44.018C120.476 43.7259 120.591 43.4839 120.757 43.2834C121.332 42.5356 122.158 41.9949 123.056 41.7245C124.046 41.4453 125.229 41.7481 126.273 42.526C127.568 43.511 128.527 44.8514 129.404 46.292C129.944 47.118 130.444 47.9942 130.934 48.7788C131.266 49.3476 131.593 49.8707 131.924 50.4395C132.26 51.0541 132.238 51.7952 131.783 52.3468ZM126.011 50.9114C126.384 50.4601 126.966 50.266 127.491 50.4468C127.537 50.4424 127.541 50.4882 127.587 50.4839L130.335 51.6996C130.623 51.8108 130.793 51.656 130.88 51.6015C130.922 51.5513 131.087 51.3508 130.924 51.0892C130.592 50.5204 130.265 49.9973 129.934 49.4285C129.439 48.5981 128.944 47.7677 128.403 46.9417C127.531 45.5469 126.677 44.3351 125.537 43.5201C124.944 43.1148 124.072 42.6899 123.353 42.8971C122.725 43.0956 122.115 43.4771 121.659 44.0286C121.535 44.1791 121.457 44.3251 121.341 44.5671C121.226 44.809 121.11 45.051 120.999 45.3388C120.892 45.6723 120.736 45.9644 120.583 46.3022C120.546 46.3982 120.463 46.4984 120.376 46.5529C120.248 46.6576 120.115 46.7165 119.94 46.8255C119.027 47.4207 118.155 47.9658 117.781 48.8791C117.447 49.7423 117.589 50.745 118.108 51.3421C118.527 51.8565 119.17 52.3032 119.854 52.6998C120.981 53.3775 122.182 53.8633 123.475 54.3404C123.666 54.4145 123.858 54.4886 124.05 54.5627C124.671 54.7805 125.247 55.0028 125.872 55.2664L127.023 55.7109C127.311 55.822 127.477 55.6214 127.518 55.5713C127.559 55.5211 127.721 55.2748 127.511 55.0176L125.798 52.5483C125.793 52.5026 125.748 52.5069 125.743 52.4612C125.554 51.925 125.638 51.3626 126.011 50.9114Z" fill="#66072F"/>
<path d="M122.736 44.665L123.582 44.8152C123.819 44.8849 124.094 44.8587 124.314 44.7454L125.116 44.4379L124.966 45.2836C124.896 45.5212 124.922 45.7959 125.036 46.016L125.343 46.8181L124.497 46.6678C124.26 46.5981 123.985 46.6243 123.765 46.7377L122.963 47.0452L123.113 46.1994C123.183 45.9618 123.157 45.6872 123.044 45.4671L122.736 44.665Z" fill="#66072F"/>
<path d="M123.741 47.9409L124.166 48.0389C124.308 48.0715 124.4 48.0628 124.533 48.0039L124.931 47.8273L124.833 48.2524C124.801 48.394 124.81 48.4856 124.868 48.6185L125.045 49.0174L124.62 48.9194C124.478 48.8867 124.387 48.8954 124.254 48.9543L123.855 49.1309L123.953 48.7059C123.986 48.5642 123.977 48.4727 123.918 48.3397L123.741 47.9409Z" fill="#66072F"/>
<path d="M141.367 33.2336L133.401 24.2939L132.039 25.9943L130.756 27.5487L141.04 33.6805L141.367 33.2336Z" fill="#66072F"/>
<path d="M104.006 76.8449L102.268 78.9507L101.315 78.164C100.964 77.8742 100.539 77.7762 100.264 77.8024C99.7064 77.7632 99.2225 77.5323 98.817 77.1553C98.102 76.4383 97.9426 75.2525 98.5091 74.4133C98.873 73.8705 99.3961 73.5434 100.032 73.4365C100.669 73.3296 101.286 73.5017 101.741 73.9201C102.142 74.2513 102.369 74.6916 102.504 75.1406C102.585 75.5024 102.799 75.8053 103.1 76.0538L104.006 76.8449Z" fill="#66072F"/>
<path d="M107.75 81.707C107.253 82.3087 106.551 82.699 105.773 82.7733C104.72 82.8737 103.652 82.329 103.14 81.3155L102.804 80.7009L103.859 80.1383L104.195 80.753C104.526 81.3218 105.11 81.6356 105.66 81.5832C106.117 81.5395 106.557 81.3127 106.847 80.9618C107.137 80.6108 107.277 80.1356 107.233 79.6779C107.176 79.0828 106.757 78.5685 106.141 78.3964L105.474 78.1829L105.827 77.0407L106.494 77.2542C107.544 77.6158 108.322 78.5115 108.423 79.5643C108.497 80.3424 108.292 81.101 107.75 81.707Z" fill="#66072F"/>
<path d="M106.749 75.3872L101.362 81.9108L102.284 82.672L107.671 76.1484L106.749 75.3872Z" fill="#66072F"/>
<path d="M121.959 64.6006L119.765 67.258C118.771 68.4614 116.341 67.6771 115.389 66.8904L108.971 61.5905C107.918 60.721 107.765 59.1189 108.63 58.0202L110.825 55.3628C111.694 54.3099 113.296 54.157 114.395 55.0222L120.812 60.322C121.723 61.1589 122.953 63.3972 121.959 64.6006ZM109.537 58.8113C109.082 59.3628 109.16 60.1867 109.712 60.6422L116.129 65.9421C116.881 66.5632 118.481 66.8724 118.813 66.4713L121.007 63.8139C121.338 63.4127 120.732 61.9001 119.98 61.2791L113.562 55.9792C113.011 55.5237 112.187 55.6023 111.731 56.1539L109.537 58.8113Z" fill="#66072F"/>
<path d="M115.087 72.9238L112.975 75.481C112.106 76.5339 110.504 76.6868 109.405 75.8216L103.439 70.8944C101.634 69.4038 101.381 66.749 102.871 64.9439C104.362 63.1389 107.016 62.8856 108.821 64.3762L114.637 69.1792C115.877 70.077 116.039 71.7706 115.087 72.9238ZM103.865 65.6805C102.789 66.9841 102.972 68.9066 104.271 69.9373L110.238 74.8646C110.789 75.3201 111.613 75.2414 112.068 74.6899L114.18 72.1328C114.677 71.5311 114.589 70.6156 113.983 70.073L108.122 65.2743C106.864 64.1934 104.941 64.3768 103.865 65.6805Z" fill="#66072F"/>
<path d="M111.217 55.6025L110.43 56.5551L109.172 55.4742L108.386 56.4269L109.689 57.5034L108.898 58.4103L106.692 56.5884L109.011 53.7806L111.217 55.6025Z" fill="#66072F"/>
<path d="M106.88 53.6373L106.119 54.5592L107.892 56.0231L108.653 55.1013L106.88 53.6373Z" fill="#66072F"/>
<path d="M105.5 57.1641L104.709 58.071L103.305 56.9117L106.861 52.5539L107.814 53.3406L104.999 56.7501L105.5 57.1641Z" fill="#66072F"/>
<path d="M104.723 64.0281L103.978 64.9306L102.424 63.647L101.637 64.5997L103.192 65.8833L102.405 66.836L99.9438 64.7613L102.262 61.9535L104.723 64.0281Z" fill="#66072F"/>
<path d="M116.737 60.2028C117.489 60.8239 117.598 61.9682 116.981 62.7661C116.36 63.5182 115.216 63.6274 114.418 63.0107C113.014 61.8513 112.619 59.1638 112.619 59.1638C112.619 59.1638 115.378 59.0391 116.737 60.2028Z" fill="#66072F"/>
<path d="M109.803 69.8252C110.304 70.2393 110.379 71.0174 109.965 71.5188C109.551 72.0202 108.772 72.0944 108.271 71.6804C107.77 71.2663 107.695 70.4882 108.109 69.9868C108.523 69.4854 109.302 69.4112 109.803 69.8252Z" fill="#66072F"/>
<path d="M109.286 67.796C109.587 68.0444 109.631 68.5021 109.382 68.803C109.134 69.1038 108.676 69.1475 108.375 68.899C108.074 68.6506 108.031 68.1929 108.279 67.8921C108.528 67.5912 108.985 67.5476 109.286 67.796Z" fill="#66072F"/>
<path d="M110.443 68.7941C110.593 68.9182 110.611 69.1011 110.482 69.2057C110.358 69.356 110.175 69.3734 110.071 69.2449C109.92 69.1208 109.903 68.9379 110.031 68.8333C110.11 68.6874 110.293 68.67 110.443 68.7941Z" fill="#66072F"/>
<path d="M107.919 64.5754L103.411 70.0353L104.332 70.7966L108.841 65.3366L107.919 64.5754Z" fill="#66072F"/>
<path d="M113.485 69.1697L108.976 74.6297L109.898 75.3909L114.406 69.9309L113.485 69.1697Z" fill="#66072F"/>
<path d="M141.727 2.15989C139.823 4.46633 136.39 4.79388 134.084 2.88924L127.616 -2.45206C125.31 -4.35671 124.982 -7.78966 126.886 -10.0961C128.791 -12.4026 132.224 -12.7301 134.53 -10.8255L135.683 -9.87314L140.998 -5.48415C143.308 -3.53373 143.632 -0.146555 141.727 2.15989ZM127.793 -9.30504C126.303 -7.5 126.556 -4.84518 128.361 -3.35458L129.514 -2.40226L134.829 1.98672C136.634 3.47731 139.288 3.22401 140.779 1.41896C142.269 -0.386081 142.016 -3.0409 140.211 -4.5315L134.897 -8.92048L133.743 -9.8728C131.938 -11.3634 129.284 -11.1101 127.793 -9.30504Z" fill="#66072F"/>
<path fill-rule="evenodd" clip-rule="evenodd" d="M53.4801 63.7907L53.4299 63.7493C52.4359 63.0127 50.8034 62.8452 50.3066 63.4468C49.8098 64.0485 50.2373 65.6243 51.1942 66.4568L51.2444 66.4982C52.197 67.2849 53.3042 67.2717 53.9666 66.4694C54.5876 65.7173 54.437 64.6232 53.4801 63.7907Z" fill="#66072F"/>
<path fill-rule="evenodd" clip-rule="evenodd" d="M56.461 60.1806L56.4109 60.1392C55.4169 59.4027 53.7844 59.2351 53.2876 59.8368C52.7908 60.4385 53.2182 62.0143 54.1752 62.8468L54.2253 62.8882C55.1779 63.6749 56.2852 63.6616 56.9476 62.8594C57.61 62.0571 57.4594 60.963 56.461 60.1806Z" fill="#66072F"/>
<path fill-rule="evenodd" clip-rule="evenodd" d="M59.4833 56.5204L59.4331 56.479C58.4391 55.7424 56.8066 55.5749 56.3098 56.1765C55.813 56.7782 56.2405 58.3541 57.1974 59.1866L57.2476 59.228C58.2002 60.0147 59.3074 60.0014 59.9698 59.1992C60.6322 58.3969 60.4816 57.3027 59.4833 56.5204Z" fill="#66072F"/>
<path fill-rule="evenodd" clip-rule="evenodd" d="M62.5057 52.8601L62.4556 52.8187C61.4616 52.0822 59.8291 51.9146 59.3323 52.5163C58.8354 53.118 59.2629 54.6938 60.2199 55.5263L60.27 55.5677C61.2226 56.3544 62.3298 56.3411 62.9923 55.5389C63.6547 54.7367 63.4583 53.6468 62.5057 52.8601Z" fill="#66072F"/>
<path fill-rule="evenodd" clip-rule="evenodd" d="M51.2647 58.9674L51.2146 58.926C50.2206 58.1894 48.5881 58.0219 48.0913 58.6236C47.5945 59.2252 48.022 60.8011 48.9789 61.6336L49.0291 61.675C49.9817 62.4617 51.0889 62.4484 51.7513 61.6462C52.4137 60.8439 52.2631 59.7497 51.2647 58.9674Z" fill="#66072F"/>
<path fill-rule="evenodd" clip-rule="evenodd" d="M54.287 55.3072L54.2368 55.2658C53.2428 54.5293 51.6103 54.3617 51.1135 54.9634C50.6167 55.5651 51.0442 57.1409 52.0011 57.9734L52.0513 58.0148C53.0039 58.8015 54.1111 58.7882 54.7735 57.986C55.436 57.1837 55.2854 56.0896 54.287 55.3072Z" fill="#66072F"/>
<path fill-rule="evenodd" clip-rule="evenodd" d="M57.3094 51.647L57.2593 51.6056C56.2653 50.869 54.6328 50.7015 54.136 51.3032C53.6391 51.9048 54.0666 53.4807 55.0236 54.3132L55.0737 54.3546C56.0264 55.1413 57.1336 55.128 57.796 54.3258C58.4584 53.5235 58.3122 52.4751 57.3094 51.647Z" fill="#66072F"/>
<path d="M64.8974 57.1123C64.3177 57.8143 63.6247 58.2961 62.814 58.5121C62.7553 59.3491 62.4132 60.1207 61.875 60.7726L61.8336 60.8227C61.2954 61.4745 60.6024 61.9563 59.7916 62.1723C59.7329 63.0093 59.3909 63.781 58.8527 64.4328L58.8113 64.4829C58.273 65.1347 57.58 65.6166 56.7693 65.8325C56.7106 66.6695 56.3686 67.4412 55.8303 68.093L55.7889 68.1431C55.0023 69.0958 53.8974 69.6169 52.6529 69.6433L52.6308 68.4445C53.5048 68.4073 54.3025 68.054 54.8363 67.3564L54.8777 67.3063C55.3331 66.7548 55.588 66.0376 55.5683 65.3466L55.566 64.8388L56.0651 64.745C56.793 64.6293 57.4032 64.2478 57.8587 63.6962L57.9001 63.6461C58.3555 63.0945 58.6104 62.3774 58.5906 61.6864L58.5883 61.1785L59.0874 61.0847C59.8154 60.9691 60.4299 60.6333 60.881 60.036L60.9224 59.9859C61.3778 59.4343 61.6327 58.7172 61.613 58.0262L61.6107 57.5183L62.1098 57.4245C62.8377 57.3089 63.4479 56.9273 63.9033 56.3758L63.9448 56.3256C64.5244 55.6237 64.7204 54.7736 64.596 53.954L65.7773 53.7489C66.0325 54.9717 65.684 56.1597 64.8974 57.1123Z" fill="#66072F"/>
<path fill-rule="evenodd" clip-rule="evenodd" d="M50.4577 67.4509L50.4075 67.4096C49.4135 66.673 47.781 66.5054 47.2842 67.1071C46.7873 67.7088 47.2148 69.2846 48.1718 70.1171L48.2219 70.1585C49.1745 70.9452 50.2818 70.932 50.9442 70.1297C51.6066 69.3275 51.4146 68.2834 50.4577 67.4509Z" fill="#66072F"/>
<path fill-rule="evenodd" clip-rule="evenodd" d="M53.4801 63.7907L53.4299 63.7493C52.4359 63.0127 50.8034 62.8452 50.3066 63.4468C49.8098 64.0485 50.2373 65.6243 51.1942 66.4568L51.2444 66.4982C52.197 67.2849 53.3042 67.2717 53.9666 66.4694C54.6334 65.713 54.437 64.6232 53.4801 63.7907Z" fill="#66072F"/>
<path fill-rule="evenodd" clip-rule="evenodd" d="M56.461 60.1806L56.4109 60.1392C55.4169 59.4027 53.7844 59.2351 53.2876 59.8368C52.7908 60.4385 53.2182 62.0143 54.1752 62.8468L54.2253 62.8882C55.1779 63.6749 56.2852 63.6616 56.9476 62.8594C57.61 62.0571 57.4594 60.963 56.461 60.1806Z" fill="#66072F"/>
<path fill-rule="evenodd" clip-rule="evenodd" d="M59.4833 56.5204L59.4331 56.479C58.4391 55.7424 56.8066 55.5749 56.3098 56.1765C55.813 56.7782 56.2405 58.3541 57.1974 59.1866L57.2476 59.228C58.2002 60.0147 59.3074 60.0014 59.9698 59.1992C60.6322 58.3969 60.4816 57.3027 59.4833 56.5204Z" fill="#66072F"/>
<path fill-rule="evenodd" clip-rule="evenodd" d="M48.2882 62.6233L48.2381 62.5819C47.2441 61.8453 45.6116 61.6778 45.1147 62.2795C44.6179 62.8811 45.0454 64.457 46.0024 65.2895L46.0525 65.3309C47.0051 66.1176 48.1123 66.1043 48.7747 65.3021C49.4372 64.4998 49.2408 63.41 48.2882 62.6233Z" fill="#66072F"/>
<path fill-rule="evenodd" clip-rule="evenodd" d="M51.2647 58.9674L51.2146 58.926C50.2206 58.1894 48.5881 58.0219 48.0913 58.6236C47.5945 59.2252 48.022 60.8011 48.9789 61.6336L49.0291 61.675C49.9817 62.4617 51.0889 62.4484 51.7513 61.6462C52.4137 60.8439 52.2631 59.7497 51.2647 58.9674Z" fill="#66072F"/>
<path fill-rule="evenodd" clip-rule="evenodd" d="M54.287 55.3072L54.2368 55.2658C53.2428 54.5293 51.6103 54.3617 51.1135 54.9634C50.6167 55.5651 51.0442 57.1409 52.0011 57.9734L52.0513 58.0148C53.0039 58.8015 54.1111 58.7882 54.7735 57.986C55.436 57.1837 55.2854 56.0896 54.287 55.3072Z" fill="#66072F"/>
<path d="M61.9208 60.7682C61.3412 61.4701 60.6482 61.952 59.8374 62.1679C59.7787 63.0049 59.4367 63.7766 58.8985 64.4284L58.8571 64.4785C58.3188 65.1304 57.6258 65.6122 56.8151 65.8281C56.7564 66.6651 56.4143 67.4368 55.8761 68.0886L55.8347 68.1388C55.2965 68.7906 54.6035 69.2724 53.7927 69.4883C53.734 70.3253 53.392 71.097 52.8538 71.7488L52.8124 71.799C52.0257 72.7516 50.9208 73.2728 49.6763 73.2991L49.6543 72.1003C50.5283 72.0631 51.3259 71.7099 51.8598 71.0123L51.9012 70.9621C52.3566 70.4106 52.6115 69.6934 52.5917 69.0025L52.5894 68.4946L53.0885 68.4008C53.8165 68.2851 54.4267 67.9036 54.8821 67.3521L54.9235 67.3019C55.3789 66.7504 55.6338 66.0332 55.6141 65.3423L55.6118 64.8344L56.1109 64.7406C56.8388 64.6249 57.4534 64.2892 57.9045 63.6918L57.9459 63.6417C58.4013 63.0902 58.6562 62.373 58.6364 61.682L58.6341 61.1742L59.1332 61.0804C59.8612 60.9647 60.4714 60.5832 60.9268 60.0316L60.9682 59.9815C61.5478 59.2795 61.7438 58.4294 61.6194 57.6099L62.8007 57.4048C63.0102 58.6319 62.7074 59.8155 61.9208 60.7682Z" fill="#66072F"/>
<path d="M82.9531 35.297L72.681 47.686C71.8944 48.6387 70.7501 48.7479 69.7517 47.9655L67.9468 46.4749C67.5457 46.1437 66.8417 46.0261 66.5105 46.4272L64.678 49.0039C63.7671 50.107 62.3133 49.8762 61.3607 49.0895C60.4081 48.3028 59.9022 46.873 60.8588 45.7656L60.9002 45.7154L63.0423 43.4787C63.2079 43.2781 63.1773 42.9577 63.1642 42.8204C63.0922 42.5502 62.9243 42.2428 62.7238 42.0772L60.9189 40.5866C60.4175 40.1726 60.1406 39.6909 60.134 39.1373C60.0859 38.6338 60.2667 38.1084 60.6393 37.6572L70.9158 25.314C71.7852 24.261 72.9752 24.1475 74.1284 25.0998L82.6561 32.1845C83.2076 32.64 83.5346 33.163 83.587 33.7123C83.5435 34.2245 83.3627 34.7499 82.9531 35.297ZM68.6877 45.5266L70.4926 47.0172C70.7934 47.2657 71.2316 47.501 71.7284 46.8993L82.0004 34.5103C82.2075 34.2596 82.3186 33.9719 82.3011 33.7888C82.2792 33.5599 82.1157 33.2984 81.8149 33.05L73.2872 25.9653C72.5352 25.3442 72.0993 25.6167 71.7681 26.0179L61.4917 38.3611C61.3675 38.5115 61.2062 38.7578 61.2281 38.9867C61.2455 39.1698 61.3589 39.3899 61.6096 39.5969L63.4145 41.0875C63.8658 41.4602 64.147 41.9876 64.2452 42.5325C64.3521 43.169 64.2215 43.7357 63.8488 44.187L63.8074 44.2371L61.6654 46.4738C61.1729 47.1213 61.6547 47.8143 62.0514 48.0998C62.4024 48.3897 63.1784 48.7775 63.6752 48.1758L65.5077 45.5991C66.3445 44.6879 67.8353 44.8227 68.6877 45.5266Z" fill="#66072F"/>
<path fill-rule="evenodd" clip-rule="evenodd" d="M72.9169 39.026C71.3022 40.9815 69.2013 42.1981 66.8889 42.6497C66.5729 42.726 66.2721 42.4776 66.2873 42.1528C66.3435 39.838 67.1364 37.499 68.7053 35.548C70.1958 33.7429 72.1179 32.5895 74.2342 32.0181C74.245 31.6475 74.2384 31.0939 74.4518 30.4269C74.5956 29.9974 74.7111 29.7555 74.8396 29.6508C75.0337 30.2328 75.3608 30.7558 75.8621 31.1699C76.3635 31.5839 76.9891 31.8476 77.643 31.9238C77.5645 32.0698 77.3488 32.229 76.9086 32.4557C76.294 32.7915 75.7077 32.9398 75.3416 32.9748C75.1763 35.1152 74.3659 37.2711 72.9169 39.026ZM67.4355 40.1495C67.2699 40.3501 67.3005 40.6705 67.501 40.8361C67.7016 41.0017 68.0219 40.9711 68.1876 40.7706C68.3532 40.57 68.3226 40.2496 68.122 40.084C67.9215 39.9184 67.6011 39.9489 67.4355 40.1495Z" fill="#66072F"/>
<path fill-rule="evenodd" clip-rule="evenodd" d="M96.6211 -0.556874C97.6739 0.312644 97.8181 1.82315 96.9443 2.83032C96.0748 3.88326 94.5601 3.98161 93.5573 3.1535C92.5045 2.28398 92.3603 0.773479 93.2341 -0.233693C94.1079 -1.24086 95.6183 -1.38499 96.6211 -0.556874Z" fill="#66072F"/>
<path d="M101.604 3.26323C99.0786 6.32178 94.5016 6.75851 91.4433 4.23278L92.1885 3.33027C94.7455 5.44194 98.5444 5.07945 100.656 2.52231C102.767 -0.0348346 102.405 -3.83397 99.8479 -5.94565L100.593 -6.84818C103.693 -4.37259 104.13 0.204688 101.604 3.26323Z" fill="#66072F"/>
<path d="M101.48 2.42879L100.719 3.35059L105.256 7.09812L106.018 6.17633L101.48 2.42879Z" fill="#66072F"/>
<path d="M107.24 3.98444L103.405 8.62891L104.326 9.39013L108.161 4.74566L107.24 3.98444Z" fill="#66072F"/>
<path d="M69.9381 76.539C69.3083 77.1996 68.2055 77.2586 67.5035 76.6789C67.1526 76.3891 66.9258 75.9488 66.8821 75.4911L59.7698 73.0751C59.4821 72.9639 59.2337 73.2648 59.3972 73.5263L60.8994 76.2005C60.9408 76.1504 60.9778 76.0545 61.0192 76.0044C61.4333 75.503 62.2113 75.4287 62.7127 75.8428C63.2141 76.2568 63.2883 77.035 62.8743 77.5364C62.6259 77.8372 62.2685 77.9637 61.898 77.9528L63.1189 80.0996L64.172 81.9391C64.2417 81.7015 64.3528 81.4138 64.5184 81.2132C65.1394 80.4611 66.2837 80.3519 67.0815 80.9686C67.8335 81.5897 67.9427 82.734 67.3261 83.5319C66.8293 84.1336 66.0599 84.2994 65.3973 84.1317L65.7876 84.8335C66.5049 86.0583 68.2289 86.2171 69.1398 85.1141L71.0442 82.8076L72.9488 80.5012C73.8596 79.3981 73.3776 77.7351 72.0393 77.2623L69.9381 76.539ZM64.6836 79.0727C64.1823 78.6587 64.108 77.8805 64.522 77.3791C64.9361 76.8777 65.7141 76.8035 66.2155 77.2175C66.7169 77.6316 66.7911 78.4097 66.3771 78.9111C65.9631 79.4125 65.2308 79.4824 64.6836 79.0727ZM70.9241 81.0639C70.51 81.5653 69.7319 81.6395 69.2306 81.2255C68.7292 80.8114 68.655 80.0333 69.069 79.5319C69.483 79.0305 70.2611 78.9562 70.7625 79.3703C71.2638 79.7843 71.3337 80.5167 70.9241 81.0639Z" fill="#66072F"/>
<path d="M77.142 67.8146C76.728 68.316 75.9499 68.3903 75.4485 67.9762C74.9472 67.5622 74.8729 66.784 75.2869 66.2826C75.4111 66.1322 75.6269 65.9731 75.8056 65.9098L69.1417 60.4487L67.6098 62.3039C68.1112 62.7179 68.1855 63.4961 67.7714 63.9975C67.3574 64.4989 66.5793 64.5731 66.078 64.1591L64.5461 66.0142L65.5488 66.8423C66.159 66.4608 66.996 66.5195 67.5976 67.0164C68.1993 67.5132 68.4152 68.324 68.156 68.9954L72.0667 72.225C72.1407 72.0332 72.2606 71.837 72.3804 71.6408C73.0014 70.8887 74.1457 70.7795 74.8977 71.4006C75.6498 72.0217 75.759 73.166 75.138 73.9181C75.0138 74.0685 74.8438 74.2233 74.6237 74.3367L76.6291 75.9929L77.4158 75.0402C76.9144 74.6262 76.8402 73.8481 77.2542 73.3467C77.6682 72.8453 78.4463 72.771 78.9477 73.1851L81.2248 70.4274L77.3642 67.2392C77.3403 67.4724 77.2662 67.6642 77.142 67.8146ZM70.2851 67.5913C69.5331 66.9703 69.4239 65.8259 70.0449 65.0738C70.6659 64.3217 71.8102 64.2126 72.5622 64.8336C73.3143 65.4547 73.4235 66.599 72.8024 67.3511C72.1814 68.1032 71.0372 68.2124 70.2851 67.5913ZM78.7904 71.5373C78.3764 72.0387 77.5983 72.1129 77.097 71.6989C76.5956 71.2848 76.5213 70.5067 76.9354 70.0053C77.3494 69.5039 78.1275 69.4296 78.6288 69.8437C79.1302 70.2577 79.2001 70.9901 78.7904 71.5373Z" fill="#66072F"/>
<path d="M82.5103 72.0222L69.6584 87.5865L70.5802 88.3477L83.4321 72.7834L82.5103 72.0222Z" fill="#66072F"/>
<path fill-rule="evenodd" clip-rule="evenodd" d="M91.0193 45.2895C90.8123 45.5402 90.8472 45.9064 91.0979 46.1134C91.3486 46.3204 91.7148 46.2855 91.9218 46.0348C92.1288 45.7841 92.0939 45.4179 91.8432 45.2109C91.5925 45.0039 91.2263 45.0388 91.0193 45.2895Z" fill="#66072F"/>
<path fill-rule="evenodd" clip-rule="evenodd" d="M90.1499 46.3424C89.9429 46.5931 89.9779 46.9593 90.2286 47.1664C90.4792 47.3734 90.8454 47.3384 91.0524 47.0877C91.2594 46.837 91.2245 46.4708 90.9738 46.2638C90.7231 46.0568 90.3569 46.0917 90.1499 46.3424Z" fill="#66072F"/>
<path fill-rule="evenodd" clip-rule="evenodd" d="M89.2805 47.3954C89.0735 47.6461 89.1085 48.0123 89.3592 48.2193C89.6098 48.4263 89.976 48.3914 90.183 48.1407C90.39 47.89 90.3551 47.5238 90.1044 47.3168C89.8537 47.1097 89.4875 47.1447 89.2805 47.3954Z" fill="#66072F"/>
<path fill-rule="evenodd" clip-rule="evenodd" d="M88.4112 48.4483C88.2042 48.699 88.2391 49.0652 88.4898 49.2722C88.7404 49.4793 89.1066 49.4443 89.3136 49.1936C89.5206 48.9429 89.4856 48.5768 89.235 48.3697C88.9843 48.1627 88.6182 48.1976 88.4112 48.4483Z" fill="#66072F"/>
<path fill-rule="evenodd" clip-rule="evenodd" d="M89.4522 44.8386C89.2452 45.0893 89.2801 45.4555 89.5308 45.6625C89.7815 45.8695 90.1476 45.8346 90.3546 45.5839C90.5616 45.3332 90.5267 44.967 90.276 44.7599C90.0253 44.5529 89.6592 44.5879 89.4522 44.8386Z" fill="#66072F"/>
<path fill-rule="evenodd" clip-rule="evenodd" d="M88.5369 45.8959C88.3299 46.1466 88.3648 46.5128 88.6155 46.7198C88.8662 46.9268 89.2324 46.8919 89.4394 46.6412C89.6464 46.3905 89.6115 46.0243 89.3608 45.8173C89.1559 45.6059 88.7439 45.6452 88.5369 45.8959Z" fill="#66072F"/>
<path fill-rule="evenodd" clip-rule="evenodd" d="M87.672 46.9946C87.465 47.2453 87.4999 47.6115 87.7506 47.8185C88.0013 48.0255 88.3675 47.9906 88.5745 47.7399C88.7815 47.4892 88.7466 47.123 88.4959 46.916C88.2408 46.6632 87.8747 46.6981 87.672 46.9946Z" fill="#66072F"/>
<path fill-rule="evenodd" clip-rule="evenodd" d="M88.7129 43.3848C88.5059 43.6355 88.5408 44.0017 88.7915 44.2087C89.0422 44.4158 89.4084 44.3808 89.6154 44.1301C89.8224 43.8794 89.7875 43.5132 89.5368 43.3062C89.2861 43.0992 88.9199 43.1341 88.7129 43.3848Z" fill="#66072F"/>
<path fill-rule="evenodd" clip-rule="evenodd" d="M87.8435 44.4378C87.6365 44.6885 87.6715 45.0547 87.9222 45.2617C88.1728 45.4687 88.539 45.4338 88.746 45.1831C88.953 44.9324 88.9181 44.5662 88.6674 44.3592C88.4167 44.1522 88.0506 44.1871 87.8435 44.4378Z" fill="#66072F"/>
<path fill-rule="evenodd" clip-rule="evenodd" d="M86.9741 45.4907C86.7671 45.7414 86.8021 46.1076 87.0528 46.3146C87.3034 46.5217 87.6696 46.4867 87.8766 46.236C88.0836 45.9853 88.0487 45.6191 87.798 45.4121C87.5473 45.2051 87.1811 45.24 86.9741 45.4907Z" fill="#66072F"/>
<path fill-rule="evenodd" clip-rule="evenodd" d="M86.1048 46.5437C85.8978 46.7944 85.9327 47.1606 86.1834 47.3676C86.4341 47.5746 86.8002 47.5397 87.0072 47.289C87.2142 47.0383 87.1792 46.6721 86.9286 46.4651C86.6779 46.258 86.3118 46.293 86.1048 46.5437Z" fill="#66072F"/>
<path fill-rule="evenodd" clip-rule="evenodd" d="M87.1458 42.9339C86.9388 43.1846 86.9737 43.5508 87.2244 43.7578C87.4751 43.9649 87.8412 43.9299 88.0482 43.6792C88.2552 43.4285 88.2203 43.0623 87.9696 42.8553C87.7189 42.6483 87.3528 42.6832 87.1458 42.9339Z" fill="#66072F"/>
<path fill-rule="evenodd" clip-rule="evenodd" d="M86.2307 43.9912C86.0237 44.2419 86.0587 44.6081 86.3094 44.8151C86.5601 45.0222 86.9262 44.9872 87.1332 44.7365C87.3402 44.4858 87.3053 44.1196 87.0546 43.9126C86.8497 43.7012 86.4378 43.7405 86.2307 43.9912Z" fill="#66072F"/>
<path fill-rule="evenodd" clip-rule="evenodd" d="M85.3655 45.0899C85.1585 45.3406 85.1934 45.7068 85.4441 45.9138C85.6948 46.1209 86.061 46.0859 86.268 45.8352C86.475 45.5845 86.4401 45.2183 86.1894 45.0113C85.9845 44.7999 85.5725 44.8392 85.3655 45.0899Z" fill="#66072F"/>
<path d="M79.3486 49.3131L73.9663 55.8313C73.4649 55.4172 73.3907 54.6391 73.8047 54.1377L77.6551 49.4747C78.0233 48.9776 78.8014 48.9034 79.3486 49.3131Z" fill="#66072F"/>
<path d="M94.0319 59.9212L87.1178 68.2946L79.898 62.3322C78.9956 61.5869 78.3001 60.591 77.9163 59.4728C77.6001 58.5792 77.0638 57.799 76.3619 57.2193L75.1586 56.2256L75.9038 55.3231L77.1071 56.3168C78.0096 57.0621 78.705 58.0581 79.0387 59.1348C79.3549 60.0284 79.8956 60.8544 80.6476 61.4755L86.9148 66.6512L92.297 60.133L86.0299 54.9573C85.2778 54.3362 84.3645 53.9615 83.4273 53.8199C82.3026 53.6501 81.1975 53.2013 80.2951 52.456L79.0918 51.4623L79.837 50.5597L81.0403 51.5535C81.7923 52.1746 82.6599 52.5537 83.547 52.6538C84.7174 52.8192 85.8225 53.2681 86.7293 54.0591L94.0319 59.9212Z" fill="#66072F"/>
<path d="M101.737 50.641L95.6098 58.0617L90.0446 53.4657L96.1721 46.045L101.737 50.641ZM95.4024 56.3725L99.9981 50.8069L96.2835 47.6971L91.688 53.2627L95.4024 56.3725Z" fill="#66072F"/>
<path d="M95.215 45.2125L89.0875 52.6332L81.6672 46.5052L87.7947 39.0845L95.215 45.2125ZM88.8845 50.9897L93.4801 45.4242L87.8647 40.7868L83.2691 46.3523L88.8845 50.9897Z" fill="#66072F"/>
<path fill-rule="evenodd" clip-rule="evenodd" d="M96.0811 49.9335C95.7913 50.2845 96.0878 50.4872 95.7936 50.7924C95.5452 51.0932 95.2487 50.8906 95.0047 51.2372C94.7606 51.5838 95.0113 51.7908 94.7171 52.096C94.4273 52.447 94.1723 52.1942 93.9282 52.5408C93.6798 52.8417 93.8847 53.0531 93.6865 53.3953L95.2407 54.6789L98.3045 50.9685L96.7001 49.6435C96.5257 49.7525 96.2838 49.6371 96.0811 49.9335Z" fill="#66072F"/>
<path fill-rule="evenodd" clip-rule="evenodd" d="M83.4496 55.0188C82.7456 54.9012 82.0328 54.6921 81.3615 54.4328C81.1588 54.7293 81.3638 54.9407 81.1153 55.2415C80.8255 55.5925 80.5705 55.3397 80.3264 55.6863C80.0366 56.0373 80.3331 56.2399 80.0389 56.5451C79.7905 56.846 79.5442 56.6847 79.287 56.894C79.7143 57.4999 80.0501 58.1145 80.2573 58.8338C80.4601 59.5073 80.883 60.0674 81.4346 60.5228L86.7491 64.9118L90.5995 60.2488L85.2849 55.8598C84.7792 55.4 84.1493 55.0906 83.4496 55.0188ZM81.8347 56.0043C82.2902 55.4527 83.0683 55.3785 83.6198 55.8339C84.1713 56.2894 84.2455 57.0675 83.7901 57.6191C83.3347 58.1706 82.5566 58.2449 82.0051 57.7894C81.4993 57.3296 81.4251 56.5514 81.8347 56.0043ZM82.3344 58.8203C82.7898 58.2688 83.5679 58.1945 84.1194 58.65C84.6709 59.1055 84.7452 59.8836 84.2898 60.4351C83.8343 60.9867 83.0562 61.0609 82.5047 60.6055C81.999 60.1456 81.9247 59.3675 82.3344 58.8203ZM87.5595 62.7559C87.1041 63.3075 86.326 63.3817 85.7745 62.9263C85.223 62.4708 85.1487 61.6927 85.6041 61.1411C86.0596 60.5896 86.8377 60.5153 87.3892 60.9708C87.9363 61.3805 88.0149 62.2044 87.5595 62.7559ZM87.0882 59.7524C86.6327 60.304 85.8547 60.3782 85.3031 59.9227C84.7516 59.4673 84.6774 58.6891 85.1328 58.1376C85.5882 57.5861 86.3663 57.5118 86.9178 57.9673C87.4693 58.4227 87.4978 59.2052 87.0882 59.7524Z" fill="#66072F"/>
<path d="M110.279 38.3754L104.19 45.7498L105.112 46.511L111.201 39.1366L110.279 38.3754Z" fill="#66072F"/>
<path d="M109.57 37.3762L108.908 38.1784L108.005 37.4331L108.668 36.6309C108.916 36.33 108.877 35.9181 108.622 35.6653C108.321 35.4169 107.913 35.5019 107.665 35.8028L107.127 36.4546L106.224 35.7093L106.762 35.0575C107.425 34.2552 108.611 34.0959 109.413 34.7584C110.119 35.3839 110.233 36.5739 109.57 37.3762Z" fill="#66072F"/>
<path d="M108.149 42.8231C106.452 44.8788 103.486 45.2542 101.53 43.6394L99.5248 41.9832L100.27 41.0807L102.276 42.7369C103.73 43.9377 105.918 43.6365 107.201 42.0822C108.485 40.5278 108.321 38.3263 106.913 37.1212L104.907 35.465L105.652 34.5625L107.658 36.2187C109.655 37.7834 109.847 40.7673 108.149 42.8231Z" fill="#66072F"/>
<path d="M102.006 40.8694L102.507 41.2834L102.557 41.3248L103.008 41.6975C103.961 42.4842 105.467 42.2943 106.295 41.2915C107.123 40.2887 107.025 38.7738 106.072 37.9871L105.621 37.6145L105.571 37.573L105.069 37.159L102.006 40.8694Z" fill="#66072F"/>
<path d="M99.7529 34.2021L101.758 35.8583C101.909 35.9825 102.101 36.0566 102.334 36.0805C102.613 36.1001 102.929 36.0238 103.278 35.8057L101.222 34.1081C100.579 33.6614 99.9229 34.0473 99.7529 34.2021Z" fill="#66072F"/>
<path d="M98.6308 35.5101L100.636 37.1664C100.787 37.2906 100.979 37.3647 101.212 37.3886C101.491 37.4082 101.807 37.3318 102.155 37.1138L100.1 35.4161C99.5025 34.965 98.8051 35.4011 98.6308 35.5101Z" fill="#66072F"/>
<path d="M97.5585 36.8595L99.564 38.5157C99.7144 38.6399 99.9062 38.714 100.139 38.738C100.418 38.7575 100.734 38.6812 101.083 38.4632L99.0275 36.7655C98.3845 36.3188 97.6871 36.7549 97.5585 36.8595Z" fill="#66072F"/>
<path d="M122.899 4.74171C122.798 4.6589 122.62 4.72215 122.633 4.85947L122.409 6.86699C122.101 7.03488 121.803 7.29431 121.509 7.59952C121.26 7.90036 121.062 8.24261 120.955 8.57612L119.022 9.13011C118.889 9.18898 118.856 9.33066 118.957 9.41347L121.714 11.6908L121.764 11.7322C123.018 12.7673 124.89 12.5425 125.966 11.2388C127.043 9.9352 126.91 8.05414 125.656 7.01901L122.899 4.74171Z" fill="#66072F"/>
<path d="M134.73 10.6336L127.03 19.9596C126.823 20.2103 126.456 20.2452 126.16 20.0426L115.426 11.1361C115.18 10.9748 113.805 10.598 112.671 10.3366C112.484 10.3083 112.283 10.1427 112.22 9.96395C112.157 9.78523 112.181 9.55199 112.305 9.40157L121.537 -1.77965C121.662 -1.93007 121.882 -2.04345 122.069 -2.01515C122.257 -1.98685 122.453 -1.867 122.52 -1.6425C122.991 -0.578898 123.622 0.700465 123.826 0.911859L134.606 9.81402C134.902 10.0167 134.937 10.3829 134.73 10.6336ZM126.495 18.7173L133.409 10.3439L123.081 1.81439C122.78 1.56596 122.268 0.552482 121.865 -0.286629L113.874 9.39041C114.82 9.62347 115.866 9.93934 116.167 10.1878L126.495 18.7173Z" fill="#66072F"/>
<path fill-rule="evenodd" clip-rule="evenodd" d="M114.057 19.5346C114.242 20.025 114.011 20.509 113.726 20.9057L111.076 24.1147L110.538 24.7665C110.206 25.1676 109.771 25.4402 109.254 25.3509C108.737 25.2616 108.251 25.4927 107.975 25.981C107.739 26.4192 107.838 26.9641 108.152 27.3498C108.52 27.8228 109.087 27.9535 109.581 27.8139C109.538 28.3261 109.773 28.8579 110.307 29.1303C110.746 29.3656 111.295 29.3132 111.685 29.045C112.112 28.6809 112.247 28.16 112.062 27.6696C111.876 27.1792 112.024 26.7955 112.356 26.3944L115.005 23.1854L115.544 22.5336C115.875 22.1325 116.348 21.7641 116.864 21.8533C117.381 21.9426 117.913 21.7071 118.144 21.2232C118.379 20.785 118.281 20.2401 117.967 19.8544C117.598 19.3814 117.032 19.2508 116.537 19.3903C116.58 18.8781 116.345 18.3463 115.811 18.0739C115.373 17.8386 114.824 17.891 114.433 18.1592C114.006 18.5233 113.876 19.09 114.057 19.5346Z" fill="#66072F"/>
<path d="M123.796 23.8247L115.35 34.0533C115.143 34.304 114.777 34.3389 114.48 34.1363L111.672 31.8176C111.422 31.6106 111.387 31.2444 111.59 30.9479L120.036 20.7193C120.243 20.4686 120.609 20.4337 120.905 20.6363L123.713 22.955C123.968 23.2078 124.003 23.574 123.796 23.8247ZM114.816 32.811L122.516 23.4849L120.661 21.9529L112.961 31.279L114.816 32.811Z" fill="#66072F"/>
<path d="M9.19162 50.28L4.96863 55.3943L4.51738 55.0216C4.36697 54.8974 1.21706 52.3804 -1.80528 56.0406L-2.1779 56.4919L-8.69574 51.1092L2.85541 37.1201L9.37325 42.5028L9.00064 42.9541C7.71718 44.5084 7.35348 46.0212 7.91391 47.5381C8.34785 48.6977 9.15441 49.4059 9.20018 49.4016L9.65142 49.7742L9.19162 50.28ZM4.76562 53.7508L7.91217 49.9402C6.9835 48.9202 5.15217 46.185 7.63838 42.7145L2.97561 38.8638L-7.00226 50.9476L-2.3395 54.7983C-0.495973 52.821 1.43071 52.6833 2.70143 52.9316C3.59726 53.1233 4.32312 53.4697 4.76562 53.7508Z" fill="#66072F"/>
<path d="M0.294048 45.1244C-0.078571 45.5756 -0.167836 46.0922 -0.0282527 46.587C-0.540455 46.5435 -1.07222 46.779 -1.40344 47.1801C-1.98307 47.8821 -1.88262 48.9348 -1.18069 49.5145C-0.478771 50.0942 0.957563 50.1419 1.86422 49.963C2.63794 49.843 3.57726 49.5224 3.57726 49.5224C3.57726 49.5224 3.66862 48.5437 3.64888 47.8528C3.64433 46.837 3.37162 45.4312 2.62393 44.8559C1.922 44.2762 0.86931 44.3767 0.294048 45.1244Z" fill="#66072F"/>
<path d="M29.6295 64.0804L25.1581 69.4955C24.4957 70.2978 23.3057 70.4113 22.5035 69.7488L17.1388 65.3184C15.9355 64.3247 15.192 62.8252 15.1809 61.2559C15.159 61.027 15.0914 60.8025 14.8952 60.6826L13.2407 59.3163L13.9859 58.4137L15.6405 59.7801C16.0917 60.1528 16.373 60.6802 16.384 61.2796C16.4104 62.5242 16.9816 63.6706 17.9342 64.4573L23.2989 68.8877C23.5997 69.1361 24.0574 69.0925 24.3058 68.7916L28.7772 63.3765C29.0256 63.0757 28.982 62.6179 28.6811 62.3695L23.2663 57.8977C22.3137 57.111 21.08 56.7668 19.853 56.9763C19.2624 57.0788 18.6913 56.9024 18.24 56.5297L16.5855 55.1634L17.3308 54.2608L18.9853 55.6272C19.1858 55.7929 19.419 55.8168 19.6021 55.7993C21.1452 55.5135 22.7581 55.9601 23.9614 56.9538L29.3261 61.3842C30.1784 62.0881 30.292 63.2782 29.6295 64.0804Z" fill="#66072F"/>
<path d="M18.756 53.7091L12.9183 60.7788L10.4616 58.75C9.91009 58.2945 9.8271 57.4248 10.2782 56.8275L14.3769 51.8636C14.8324 51.3121 15.702 51.2291 16.2993 51.6802L18.756 53.7091ZM12.7567 59.0852L17.0625 53.8707L15.5083 52.5871C15.4581 52.5457 15.3208 52.5588 15.2794 52.6089L11.1806 57.5728C11.1392 57.6229 11.1523 57.7602 11.2025 57.8016L12.7567 59.0852Z" fill="#66072F"/>
<path fill-rule="evenodd" clip-rule="evenodd" d="M24.3086 61.0777C25.4116 61.9886 25.5689 63.6364 24.6624 64.7853C23.7516 65.8884 22.1039 66.0456 20.9551 65.139C19.8521 64.2281 19.6948 62.5803 20.6013 61.4314C21.5535 60.2782 23.2012 60.121 24.3086 61.0777Z" fill="#66072F"/>
<path d="M9.92635 87.9928L5.33072 93.5584L-1.18712 88.1757C-1.98932 87.5132 -2.45157 86.5411 -2.50189 85.5298L-5.05888 83.4181L-1.99513 79.7077L0.561872 81.8194C1.56444 81.6776 2.60631 81.9476 3.4085 82.6101L9.92635 87.9928ZM5.12335 91.8692L8.18709 88.1588L2.57173 83.5214C1.97008 83.0245 1.21593 82.8655 0.446583 83.0313L0.130556 83.1077L-1.97521 81.3687L-3.50708 83.2238L-1.40132 84.9629L-1.41651 85.2876C-1.4338 86.0745 -1.13507 86.785 -0.533419 87.2819L5.12335 91.8692Z" fill="#66072F"/>
<path d="M0.137503 84.6313C0.551523 84.1299 1.3296 84.0556 1.83097 84.4697L2.78357 85.2564L6.54386 88.3618L5.012 90.2169L1.25171 87.1116L0.299104 86.3249C-0.202268 85.9108 -0.276516 85.1327 0.137503 84.6313Z" fill="#66072F"/>
<path d="M2.34972 97.1685L-3.32234 104.038C-3.65355 104.439 -4.29433 104.5 -4.69543 104.169L-13.0727 97.2082C-13.4738 96.8769 -13.6635 96.3408 -13.5285 95.8198L-12.2632 90.2025L-9.11669 86.3919L2.21433 95.7495C2.61979 96.1265 2.67657 96.7216 2.34972 97.1685ZM-4.10934 103.05L1.27292 96.5322L-8.95509 88.0855L-11.1494 90.7429L-12.3493 96.0768C-12.3864 96.1727 -12.3362 96.2141 -12.2817 96.3013L-4.10934 103.05Z" fill="#66072F"/>
<path d="M7.43628 71.0941L8.84868 71.3751C9.2737 71.4731 9.73141 71.4294 10.1302 71.2528L11.464 70.7098L11.1831 72.1223C11.0851 72.5473 11.1288 73.0051 11.3054 73.4039L11.8484 74.7378L10.436 74.4569C10.0109 74.3589 9.55323 74.4025 9.15441 74.5792L7.82063 75.1221L8.10154 73.7096C8.19954 73.2846 8.15586 72.8268 7.97925 72.428L7.43628 71.0941Z" fill="#66072F"/>
<path d="M9.0437 76.8068L9.88938 76.9571C10.1727 77.0224 10.4016 77.0006 10.6675 76.8828L11.4695 76.5754L11.3192 77.4211C11.2539 77.7045 11.2758 77.9333 11.3935 78.1992L11.701 79.0013L10.8553 78.8511C10.5719 78.7857 10.3431 78.8076 10.0772 78.9253L9.27519 79.2328L9.42542 78.387C9.49075 78.1037 9.46891 77.8748 9.35117 77.6089L9.0437 76.8068Z" fill="#66072F"/>
<path d="M13.189 75.7184L13.6598 75.8121C13.8014 75.8447 13.9388 75.8316 14.0717 75.7727L14.5163 75.5918L14.4227 76.0626C14.39 76.2043 14.4031 76.3416 14.462 76.4745L14.643 76.9192L14.1722 76.8255C14.0305 76.7928 13.8932 76.806 13.7602 76.8648L13.3156 77.0458L13.4093 76.575C13.4419 76.4333 13.4288 76.296 13.37 76.163L13.189 75.7184Z" fill="#66072F"/>
<path d="M21.1375 74.3133L11.9049 85.4946L4.38428 79.2837C3.23113 78.3314 1.10771 75.4394 0.780686 74.9163L-2.22755 72.432L5.68023 62.8552L8.68847 65.3395C9.22251 65.6119 12.5095 67.1458 13.6583 68.0524L21.1375 74.3133ZM11.789 83.7966L19.4484 74.5207L12.8761 69.0508C11.9736 68.3055 9.11595 66.9154 8.10238 66.4578L8.00646 66.4208L5.80043 64.5989L-0.575474 72.3205L1.63056 74.1423L1.68507 74.2295C2.32603 75.1383 4.23141 77.6817 5.13388 78.427L11.789 83.7966Z" fill="#66072F"/>
<path d="M5.0341 67.2811L1.93091 71.0393L2.85267 71.8005L5.95586 68.0424L5.0341 67.2811Z" fill="#66072F"/>
<path d="M29.0184 46.5405L27.4865 48.3957L25.481 46.7395C25.2804 46.5739 25.2085 46.3036 25.2782 46.066L25.7573 44.3113C25.7856 44.1238 26.0101 44.0562 26.1605 44.1804L29.0184 46.5405Z" fill="#66072F"/>
<path d="M39.1565 52.5939L35.3061 57.257L29.7409 52.661L30.5275 51.7083L27.0681 48.8513L29.3866 46.0435L32.8461 48.9005L33.6327 47.9478L39.1565 52.5939ZM35.1445 55.5634L37.4631 52.7555L33.7529 49.6915L32.9663 50.6442L29.5068 47.7872L28.7201 48.7399L32.1796 51.5968L31.393 52.5495L35.1445 55.5634Z" fill="#66072F"/>
<path d="M33.0141 48.6634L30.2329 52.0316L31.1547 52.7928L33.9358 49.4246L33.0141 48.6634Z" fill="#66072F"/>
<path d="M44.3317 46.3264C42.3858 48.683 39.6463 49.4987 38.092 48.2152C36.5378 46.9316 36.8206 44.087 38.7665 41.7305C40.7124 39.3739 43.4519 38.5582 45.0061 39.8417C46.5604 41.1253 46.2776 43.9699 44.3317 46.3264ZM39.6689 42.4757C38.2199 44.2306 37.8301 46.4388 38.8329 47.2669C39.8356 48.095 41.93 47.2947 43.3791 45.5397C44.8281 43.7848 45.2179 41.5768 44.2151 40.7486C43.2124 39.9205 41.118 40.7208 39.6689 42.4757Z" fill="#66072F"/>
<path d="M42.4766 44.7944C43.3047 43.7916 43.6249 42.7911 43.6597 42.1873C43.6705 41.8168 43.3195 41.5269 42.9577 41.6076C42.3714 41.7559 41.4496 42.2596 40.6216 43.2624C39.7935 44.2652 39.4733 45.2658 39.4385 45.8695C39.4277 46.2401 39.7787 46.5299 40.1405 46.4492C40.7224 46.2551 41.6486 45.7972 42.4766 44.7944Z" fill="#66072F"/>
<path d="M39.6691 42.4757C37.7646 44.7822 34.3319 45.1097 32.0255 43.2051C29.7192 41.3004 29.3916 37.8675 31.2961 35.561C33.2006 33.2546 36.6334 32.927 38.9397 34.8317C41.246 36.7363 41.5736 40.1693 39.6691 42.4757ZM32.2444 36.302C30.7539 38.107 31.0072 40.7618 32.8122 42.2524C34.6171 43.743 37.2718 43.4897 38.7622 41.6847C40.2527 39.8796 39.9994 37.2248 38.1944 35.7342C36.3939 34.2894 33.7392 34.5427 32.2444 36.302Z" fill="#66072F"/>
<path d="M85.3979 -3.45825L81.5889 1.15465C81.3819 1.40535 81.0158 1.44029 80.7193 1.23763L73.0483 -5.09741L71.4202 -5.21919L71.5355 -6.43111L73.3511 -6.28104C73.4884 -6.29414 73.5886 -6.21133 73.6889 -6.12852L81.0591 -0.0419181L84.1228 -3.75228L76.8028 -9.79747C76.7025 -9.88028 76.6436 -10.0132 76.5848 -10.1462L76.1943 -11.8179L77.3712 -12.0688L77.6984 -10.5758L85.3193 -4.28215C85.57 -4.07512 85.6049 -3.70895 85.3979 -3.45825Z" fill="#66072F"/>
<path d="M85.3979 -3.45825L81.5889 1.15465C81.3819 1.40535 81.0158 1.44029 80.7193 1.23763L73.0483 -5.09741L71.4202 -5.21919L71.5355 -6.43111L73.3511 -6.28104C73.4884 -6.29414 73.5886 -6.21133 73.6889 -6.12852L81.0591 -0.0419181L84.1228 -3.75228L76.8028 -9.79747C76.7025 -9.88028 76.6436 -10.0132 76.5848 -10.1462L76.1943 -11.8179L77.3712 -12.0688L77.6984 -10.5758L85.3193 -4.28215C85.57 -4.07512 85.6049 -3.70895 85.3979 -3.45825Z" fill="#66072F"/>
<path d="M76.6316 6.80089C76.6359 6.84666 76.5902 6.85103 76.6316 6.80089C76.089 7.40694 75.3654 7.56837 74.6897 7.26333L72.0326 6.0388C71.9367 6.00176 71.8539 6.10204 71.8081 6.10641C71.7667 6.15655 71.7253 6.20669 71.7842 6.33964L73.489 8.71738C73.9163 9.32326 73.8991 10.1101 73.448 10.7075C72.9969 11.3048 72.232 11.5163 71.5606 11.2571L70.4097 10.8126C69.7885 10.5947 69.2131 10.3725 68.5919 10.1547C68.4001 10.0806 68.2082 10.0065 68.0164 9.93242C66.7239 9.45529 65.4313 8.97817 64.1583 8.22204C63.3736 7.74264 62.6347 7.25888 62.1071 6.57019C61.3245 5.6287 61.1433 4.21411 61.5746 2.92584C62.0473 1.58743 63.1805 0.878839 64.2266 0.224751C64.3138 0.170244 64.4009 0.115729 64.4881 0.061222C64.6036 -0.180743 64.6776 -0.372568 64.7887 -0.660306C64.8998 -0.948045 65.0109 -1.23578 65.1678 -1.52788C65.3247 -1.81999 65.4402 -2.06195 65.6058 -2.26251C66.181 -3.01025 67.007 -3.55095 67.9049 -3.82139C68.8944 -4.10056 70.0779 -3.79779 71.122 -3.01982C72.4169 -2.03483 73.3761 -0.694493 74.2526 0.746128C74.7932 1.57214 75.2925 2.44829 75.7831 3.23289C76.1145 3.80173 76.4415 4.3248 76.7729 4.89364C77.1544 5.50389 77.087 6.24935 76.6316 6.80089ZM70.8599 5.36548C71.2325 4.91422 71.8144 4.72013 72.3397 4.90095C72.3855 4.89658 72.3898 4.94236 72.4356 4.93799L75.1842 6.15378C75.472 6.2649 75.6419 6.11011 75.7291 6.0556C75.7705 6.00546 75.9361 5.8049 75.7726 5.54336C75.4412 4.97452 75.1142 4.45146 74.7828 3.88262C74.2879 3.05224 73.793 2.22186 73.2523 1.39585C72.3802 0.00100508 71.5256 -1.21075 70.3855 -2.02576C69.7926 -2.43108 68.9207 -2.85596 68.2015 -2.64876C67.5739 -2.4503 66.9637 -2.06876 66.5082 -1.51722C66.384 -1.3668 66.3056 -1.22075 66.1901 -0.978783C66.0747 -0.736818 65.9592 -0.494848 65.8481 -0.20711C65.7414 0.126401 65.5845 0.418505 65.432 0.756383C65.395 0.852296 65.3121 0.952576 65.225 1.00708C65.0964 1.11173 64.9635 1.17061 64.7891 1.27962C63.876 1.87483 63.0043 2.41991 62.6296 3.33326C62.2963 4.19648 62.4381 5.19911 62.957 5.79625C63.3755 6.31058 64.0186 6.75732 64.703 7.1539C65.83 7.83159 67.031 8.31744 68.3235 8.79457C68.5154 8.86865 68.7072 8.94273 68.899 9.0168C69.5202 9.23466 70.0956 9.45689 70.7212 9.72052L71.8721 10.165C72.1598 10.2761 72.3254 10.0755 72.3668 10.0254C72.4082 9.97525 72.5694 9.72892 72.3602 9.47175L70.6466 7.00247C70.6422 6.95669 70.5965 6.96106 70.5921 6.91528C70.4067 6.42489 70.4873 5.81674 70.8599 5.36548Z" fill="#66072F"/>
<path d="M67.5894 -0.835175L68.435 -0.684922C68.6726 -0.615212 68.9472 -0.641415 69.1673 -0.754797L69.9693 -1.06227L69.8191 -0.216531C69.7494 0.0210671 69.7756 0.295706 69.889 0.515835L70.1964 1.31792L69.3508 1.16766C69.1132 1.09795 68.8386 1.12416 68.6185 1.23754L67.8165 1.54501L67.9667 0.699259C68.0364 0.461661 68.0102 0.187022 67.8968 -0.0331073L67.5894 -0.835175Z" fill="#66072F"/>
<path d="M68.5947 2.44073L69.0197 2.53876C69.1614 2.57143 69.253 2.56269 69.3859 2.50382L69.7847 2.32718L69.6867 2.75225C69.6541 2.89394 69.6628 2.98548 69.7217 3.11843L69.8983 3.51728L69.4733 3.41927C69.3316 3.3866 69.24 3.39534 69.1071 3.45421L68.7083 3.63083L68.8063 3.20578C68.8389 3.06409 68.8302 2.97255 68.7713 2.8396L68.5947 2.44073Z" fill="#66072F"/>
<path d="M48.9012 31.2945L47.1623 33.4004L46.2097 32.6137C45.8587 32.3238 45.4337 32.2258 45.1591 32.252C44.6011 32.2129 44.1172 31.9819 43.7118 31.6049C42.9967 30.8879 42.8374 29.7022 43.4039 28.8629C43.7678 28.3201 44.2908 27.9931 44.9272 27.8862C45.5637 27.7792 46.1805 27.9513 46.6361 28.3697C47.0372 28.701 47.264 29.1413 47.3992 29.5902C47.4799 29.9521 47.6935 30.255 47.9944 30.5034L48.9012 31.2945Z" fill="#66072F"/>
<path d="M52.6445 36.1567C52.1477 36.7584 51.446 37.1487 50.6679 37.2229C49.6152 37.3234 48.5471 36.7786 48.0347 35.7652L47.699 35.1505L48.7538 34.588L49.0895 35.2026C49.4209 35.7715 50.0051 36.0852 50.5543 36.0328C51.012 35.9892 51.4523 35.7624 51.7421 35.4114C52.0319 35.0604 52.1713 34.5852 52.1276 34.1275C52.0708 33.5325 51.6523 33.0181 51.0354 32.846L50.3684 32.6325L50.7213 31.4903L51.3883 31.7038C52.4389 32.0655 53.2171 32.9612 53.3176 34.014C53.3919 34.7921 53.1413 35.555 52.6445 36.1567Z" fill="#66072F"/>
<path d="M51.6286 29.8883L46.2419 36.4118L47.1637 37.1731L52.5503 30.6495L51.6286 29.8883Z" fill="#66072F"/>
<path d="M66.8082 19.0546L64.6139 21.712C63.6203 22.9154 61.19 22.1311 60.2374 21.3444L53.8198 16.0445C52.7669 15.175 52.6141 13.573 53.4792 12.4743L55.6734 9.81685C56.5429 8.76391 58.1448 8.61105 59.2435 9.47619L65.661 14.7761C66.618 15.6086 67.8063 17.897 66.8082 19.0546ZM54.386 13.2653C53.9306 13.8169 54.0092 14.6408 54.5607 15.0962L60.9782 20.3961C61.7303 21.0172 63.3301 21.3264 63.6613 20.9253L65.8557 18.2679C66.1869 17.8668 65.5807 16.3542 64.8286 15.7331L58.4111 10.4332C57.8596 9.97776 57.0357 10.0564 56.5803 10.6079L54.386 13.2653Z" fill="#66072F"/>
<path d="M59.9814 27.3735L57.8699 29.9306C57.0005 30.9836 55.3986 31.1364 54.2999 30.2713L48.3336 25.344C46.5287 23.8534 46.2753 21.1986 47.7658 19.3936C49.2563 17.5885 51.9109 17.3352 53.7158 18.8258L59.5318 23.6288C60.7307 24.5768 60.8923 26.2704 59.9814 27.3735ZM48.7141 20.1345C47.6376 21.4381 47.8211 23.3606 49.1202 24.3914L55.0866 29.3186C55.6381 29.7741 56.4619 29.6955 56.9173 29.1439L59.0288 26.5868C59.5257 25.9851 59.4383 25.0696 58.8323 24.527L53.0164 19.724C51.7172 18.6932 49.7949 18.8766 48.7141 20.1345Z" fill="#66072F"/>
<path d="M56.0704 10.1023L55.3252 11.0049L54.0259 9.97408L53.2349 10.881L54.5385 11.9575L53.7933 12.86L51.5415 11.0426L53.86 8.23471L56.0704 10.1023Z" fill="#66072F"/>
<path d="M51.789 8.10296L51.0278 9.02478L52.8004 10.4887L53.5616 9.56687L51.789 8.10296Z" fill="#66072F"/>
<path d="M50.3493 11.6182L49.6084 12.5665L48.1544 11.3657L51.7608 7.04933L52.6632 7.79464L49.8479 11.2042L50.3493 11.6182Z" fill="#66072F"/>
<path d="M49.6183 18.4778L48.8317 19.4305L47.2774 18.1469L46.4864 19.0538L48.045 20.3831L47.2998 21.2857L44.7929 19.2154L47.1114 16.4076L49.6183 18.4778Z" fill="#66072F"/>
<path d="M61.631 14.6525C62.3831 15.2736 62.4923 16.4179 61.8756 17.2158C61.2546 17.9679 60.1103 18.0771 59.3125 17.4604C57.9087 16.301 57.5137 13.6136 57.5137 13.6136C57.5137 13.6136 60.2272 13.4932 61.631 14.6525Z" fill="#66072F"/>
<path d="M54.6518 24.2793C55.1531 24.6933 55.2274 25.4714 54.8134 25.9728C54.3994 26.4742 53.6213 26.5485 53.1199 26.1344C52.6185 25.7204 52.5443 24.9423 52.9583 24.4409C53.4181 23.9351 54.1504 23.8652 54.6518 24.2793Z" fill="#66072F"/>
<path d="M54.1393 22.2958C54.4401 22.5442 54.4838 23.002 54.2354 23.3028C53.987 23.6037 53.5293 23.6473 53.2284 23.3989C52.9276 23.1505 52.8839 22.6927 53.1324 22.3919C53.3808 22.0911 53.8385 22.0474 54.1393 22.2958Z" fill="#66072F"/>
<path d="M55.292 23.2481C55.4423 23.3723 55.4597 23.5552 55.3313 23.6597C55.2072 23.81 55.0243 23.8275 54.9197 23.699C54.7694 23.5749 54.752 23.392 54.8804 23.2874C55.0089 23.1829 55.1918 23.1654 55.292 23.2481Z" fill="#66072F"/>
<path d="M52.7926 19.0117L48.2842 24.4716L49.2059 25.2328L53.7143 19.7729L52.7926 19.0117Z" fill="#66072F"/>
<path d="M58.3583 23.6061L53.8499 29.066L54.7716 29.8272L59.28 24.3673L58.3583 23.6061Z" fill="#66072F"/>
<path fill-rule="evenodd" clip-rule="evenodd" d="M1.35582 14.6303L1.3057 14.5889C0.31169 13.8523 -1.32082 13.6848 -1.81764 14.2865C-2.31447 14.8881 -1.88699 16.464 -0.930015 17.2965L-0.879875 17.3379C0.0727294 18.1246 1.17993 18.1113 1.84236 17.3091C2.50479 16.5068 2.30843 15.417 1.35582 14.6303Z" fill="#66072F"/>
<path fill-rule="evenodd" clip-rule="evenodd" d="M4.3783 10.9701L4.32816 10.9287C3.33415 10.1921 1.70164 10.0246 1.20481 10.6263C0.707991 11.2279 1.13548 12.8038 2.09246 13.6362L2.1426 13.6776C3.0952 14.4643 4.2024 14.4511 4.86483 13.6488C5.52726 12.8466 5.33527 11.8026 4.3783 10.9701Z" fill="#66072F"/>
<path fill-rule="evenodd" clip-rule="evenodd" d="M7.3546 7.31421L7.30448 7.2728C6.31047 6.53624 4.67796 6.36868 4.18114 6.97036C3.68431 7.57204 4.11179 9.14788 5.06876 9.98035L5.1189 10.0218C6.07151 10.8085 7.17871 10.7952 7.84114 9.99295C8.50794 9.23649 8.35735 8.14232 7.3546 7.31421Z" fill="#66072F"/>
<path fill-rule="evenodd" clip-rule="evenodd" d="M2.16295 6.14681L2.11283 6.1054C1.11882 5.36884 -0.513692 5.2013 -1.01051 5.80298C-1.50734 6.40466 -1.07986 7.98048 -0.122887 8.81295L-0.072747 8.85436C0.879858 9.64106 1.98706 9.62779 2.64949 8.82555C3.31192 8.02331 3.16133 6.92914 2.16295 6.14681Z" fill="#66072F"/>
<path d="M9.79654 11.6078C9.21691 12.3097 8.5239 12.7916 7.71315 13.0075C7.65446 13.8445 7.31241 14.6162 6.77419 15.268L6.73278 15.3181C6.19455 15.97 5.50156 16.4518 4.69081 16.6677C4.63212 17.5047 4.29007 18.2764 3.75185 18.9282L3.71044 18.9784C3.17222 19.6302 2.47921 20.112 1.66846 20.328C1.60977 21.165 1.26772 21.9366 0.729496 22.5885L0.688105 22.6386C-0.0985322 23.5913 -1.20347 24.1124 -2.44798 24.1388L-2.47001 22.9399C-1.59602 22.9027 -0.798371 22.5495 -0.264513 21.8519L-0.223108 21.8018C0.232313 21.2502 0.487183 20.533 0.467438 19.8421L0.465166 19.3342L0.964268 19.2404C1.69221 19.1248 2.30242 18.7432 2.75784 18.1917L2.79924 18.1415C3.25467 17.59 3.50954 16.8728 3.48979 16.1819L3.48752 15.674L3.9866 15.5802C4.71455 15.4645 5.32912 15.1288 5.78018 14.5314L5.82158 14.4813C6.277 13.9298 6.53187 13.2126 6.51213 12.5216L6.50986 12.0138L7.00896 11.92C7.7369 11.8043 8.34711 11.4228 8.80253 10.8712L8.84392 10.8211C9.42355 10.1191 9.61956 9.26901 9.49517 8.44947L10.6764 8.24437C10.8815 9.42573 10.5788 10.6094 9.79654 11.6078Z" fill="#66072F"/>
<path fill-rule="evenodd" clip-rule="evenodd" d="M1.35582 14.6303L1.3057 14.5889C0.31169 13.8523 -1.32082 13.6848 -1.81764 14.2865C-2.31447 14.8881 -1.88699 16.464 -0.930015 17.2965L-0.879875 17.3379C0.0727294 18.1246 1.17993 18.1113 1.84236 17.3091C2.50479 16.5068 2.30843 15.417 1.35582 14.6303Z" fill="#66072F"/>
<path fill-rule="evenodd" clip-rule="evenodd" d="M4.3783 10.9701L4.32816 10.9287C3.33415 10.1921 1.70164 10.0246 1.20481 10.6263C0.707991 11.2279 1.13548 12.8038 2.09246 13.6362L2.1426 13.6776C3.0952 14.4643 4.2024 14.4511 4.86483 13.6488C5.52726 12.8466 5.33527 11.8026 4.3783 10.9701Z" fill="#66072F"/>
<path d="M6.76993 15.2223C6.1903 15.9242 5.4973 16.406 4.68655 16.622C4.62786 17.459 4.28581 18.2306 3.74759 18.8825L3.70618 18.9326C3.16796 19.5844 2.47495 20.0663 1.6642 20.2822C1.6055 21.1192 1.26346 21.8909 0.725234 22.5427L0.683844 22.5928C0.145618 23.2446 -0.547392 23.7265 -1.35814 23.9424C-1.41683 24.7794 -1.75888 25.5511 -2.2971 26.2029L-2.33851 26.2531C-3.12514 27.2057 -4.23008 27.7268 -5.47459 27.7532L-5.49661 26.5544C-4.62262 26.5172 -3.82497 26.1639 -3.29111 25.4663L-3.24971 25.4162C-2.79429 24.8647 -2.53942 24.1475 -2.55916 23.4566L-2.56143 22.9487L-2.06233 22.8549C-1.33439 22.7392 -0.724196 22.3577 -0.268774 21.8061L-0.22737 21.756C0.228052 21.2044 0.482922 20.4873 0.463177 19.7963L0.460906 19.2885L0.960006 19.1947C1.68795 19.079 2.30252 18.7432 2.75358 18.1459L2.79498 18.0958C3.2504 17.5442 3.50527 16.8271 3.48553 16.1361L3.48326 15.6282L3.98234 15.5344C4.71029 15.4188 5.32049 15.0372 5.77591 14.4857L5.81732 14.4355C6.39695 13.7336 6.59294 12.8835 6.46856 12.0639L7.64984 11.8588C7.8593 13.086 7.55656 14.2696 6.76993 15.2223Z" fill="#66072F"/>
<path d="M27.8022 -10.2489L17.5301 2.14004C16.7435 3.0927 15.5992 3.20189 14.6009 2.41955L12.7959 0.928955C12.3948 0.597711 11.6908 0.480133 11.3596 0.881254L9.52708 3.45796C8.61623 4.56104 7.16244 4.33024 6.20984 3.54354C5.25723 2.75684 4.75131 1.32706 5.70792 0.219607L5.74932 0.169466L7.89139 -2.06727C8.057 -2.26783 8.02642 -2.58823 8.01332 -2.72555C7.94135 -2.99582 7.77347 -3.30313 7.57292 -3.46876L5.76798 -4.95935C5.2666 -5.37341 4.98972 -5.85506 4.98307 -6.4087C4.93503 -6.9122 5.11583 -7.43754 5.48845 -7.8888L15.7649 -20.232C16.6343 -21.2849 17.8243 -21.3985 18.9775 -20.4462L27.5052 -13.3615C28.0567 -12.906 28.3837 -12.3829 28.4361 -11.8337C28.4384 -11.3258 28.262 -10.7547 27.8022 -10.2489ZM13.5826 -0.0237027L15.3875 1.46689C15.6883 1.71533 16.1265 1.95066 16.6233 1.34898L26.8953 -11.04C27.1023 -11.2907 27.2135 -11.5784 27.196 -11.7615C27.1741 -11.9904 27.0106 -12.2519 26.7098 -12.5004L18.1821 -19.585C17.43 -20.2061 16.9942 -19.9336 16.663 -19.5325L6.38656 -7.18928C6.26235 -7.03886 6.10111 -6.79253 6.12295 -6.56366C6.14042 -6.38057 6.2538 -6.16045 6.50448 -5.95342L8.30941 -4.46282C8.76065 -4.09017 9.04191 -3.56273 9.14009 -3.01782C9.24701 -2.38137 9.11635 -1.81463 8.74373 -1.36337L8.70233 -1.31324L6.56025 0.923506C6.06779 1.57096 6.5496 2.26401 6.94633 2.54948C7.29729 2.83931 8.07328 3.22716 8.57011 2.62548L10.4026 0.0487786C11.2394 -0.862478 12.6845 -0.723228 13.5826 -0.0237027Z" fill="#66072F"/>
<path d="M14.7869 30.9931C14.1571 31.6537 13.0543 31.7127 12.3524 31.133C12.0014 30.8432 11.7747 30.4029 11.731 29.9452L4.61869 27.5292C4.33097 27.418 4.08255 27.7189 4.24606 27.9804L5.74827 30.6546C5.78968 30.6045 5.8267 30.5086 5.86811 30.4585C6.28213 29.9571 7.06022 29.8828 7.56159 30.2969C8.06296 30.7109 8.13721 31.4891 7.72319 31.9905C7.47478 32.2913 7.11735 32.4178 6.74683 32.4069L7.96778 34.5537L9.02084 36.3932C9.09054 36.1556 9.20164 35.8679 9.36725 35.6673C9.98828 34.9152 11.1325 34.806 11.9303 35.4227C12.7282 36.0395 12.7916 37.1881 12.1749 37.986C11.6781 38.5877 10.9088 38.7535 10.2462 38.5858L10.6364 39.2876C11.3537 40.5124 13.0778 40.6712 13.9886 39.5682L15.8931 37.2617L17.7976 34.9553C18.7084 33.8522 18.2264 32.1892 16.8881 31.7164L14.7869 30.9931ZM9.57827 33.5225C9.0769 33.1084 9.00265 32.3303 9.41667 31.8289C9.83069 31.3275 10.6088 31.2532 11.1101 31.6673C11.6115 32.0813 11.6858 32.8595 11.2717 33.3609C10.8621 33.908 10.084 33.9823 9.57827 33.5225ZM15.7729 35.518C15.3589 36.0194 14.5808 36.0936 14.0794 35.6796C13.5781 35.2655 13.5038 34.4874 13.9178 33.986C14.3318 33.4846 15.1099 33.4103 15.6113 33.8244C16.1127 34.2384 16.1869 35.0166 15.7729 35.518Z" fill="#66072F"/>
<path d="M21.9909 22.2687C21.5769 22.7701 20.7988 22.8444 20.2974 22.4303C19.796 22.0163 19.7218 21.2381 20.1358 20.7367C20.26 20.5863 20.4757 20.4272 20.6545 20.3639L13.9906 14.9028L12.4587 16.758C12.9601 17.172 13.0343 17.9501 12.6203 18.4515C12.2063 18.9529 11.4282 19.0272 10.9268 18.6131L9.39496 20.4683L10.3977 21.2964C11.0079 20.9149 11.8449 20.9736 12.4465 21.4704C13.0482 21.9673 13.2641 22.7781 13.0048 23.4495L16.9155 26.6791C16.9896 26.4873 17.1094 26.2911 17.2293 26.0949C17.8503 25.3428 18.9946 25.2336 19.7466 25.8547C20.4987 26.4758 20.6079 27.6201 19.9868 28.3722C19.8626 28.5226 19.6927 28.6774 19.4725 28.7908L21.478 30.447L22.2647 29.4943C21.7633 29.0803 21.689 28.3022 22.1031 27.8008C22.5171 27.2994 23.2952 27.2251 23.7965 27.6392L26.0737 24.8815L22.2131 21.6933C22.2349 21.9221 22.1151 22.1183 21.9909 22.2687ZM15.1384 22.0912C14.3863 21.4701 14.2771 20.3258 14.8981 19.5737C15.5192 18.8216 16.6634 18.7124 17.4155 19.3335C18.1675 19.9546 18.2767 21.0989 17.6557 21.851C17.0347 22.6031 15.8904 22.7123 15.1384 22.0912ZM23.6393 25.9914C23.2253 26.4928 22.4472 26.567 21.9458 26.1529C21.4445 25.7389 21.3702 24.9607 21.7842 24.4593C22.1982 23.9579 22.9763 23.8837 23.4777 24.2978C23.9791 24.7118 24.0533 25.49 23.6393 25.9914Z" fill="#66072F"/>
<path d="M27.3546 26.4938L14.5027 42.0582L15.4244 42.8194L28.2763 27.2551L27.3546 26.4938Z" fill="#66072F"/>
<path fill-rule="evenodd" clip-rule="evenodd" d="M34.999 0.796535C34.792 1.04723 34.827 1.41342 35.0777 1.62045C35.3284 1.82747 35.6945 1.79254 35.9015 1.54184C36.1085 1.29114 36.0736 0.92495 35.8229 0.717924C35.618 0.506531 35.2061 0.545836 34.999 0.796535Z" fill="#66072F"/>
<path fill-rule="evenodd" clip-rule="evenodd" d="M34.1297 1.84948C33.9227 2.10018 33.9576 2.46637 34.2083 2.6734C34.459 2.88042 34.8251 2.84548 35.0321 2.59478C35.2391 2.34408 35.2042 1.9779 34.9535 1.77087C34.7028 1.56385 34.3367 1.59878 34.1297 1.84948Z" fill="#66072F"/>
<path fill-rule="evenodd" clip-rule="evenodd" d="M33.2603 2.90243C33.0533 3.15313 33.0882 3.5193 33.3389 3.72633C33.5896 3.93336 33.9558 3.89842 34.1628 3.64772C34.3698 3.39702 34.3348 3.03084 34.0841 2.82382C33.8335 2.61679 33.4673 2.65173 33.2603 2.90243Z" fill="#66072F"/>
<path fill-rule="evenodd" clip-rule="evenodd" d="M33.4361 0.391383C33.2291 0.642083 33.264 1.00826 33.5147 1.21528C33.7654 1.42231 34.1315 1.38737 34.3385 1.13667C34.5456 0.88597 34.5106 0.519796 34.2599 0.312771C34.0092 0.105745 33.6431 0.140684 33.4361 0.391383Z" fill="#66072F"/>
<path fill-rule="evenodd" clip-rule="evenodd" d="M32.5667 1.44433C32.3597 1.69504 32.3946 2.06121 32.6453 2.26824C32.896 2.47527 33.2621 2.44033 33.4691 2.18963C33.6761 1.93893 33.6412 1.57275 33.3905 1.36572C33.1398 1.15869 32.7737 1.19363 32.5667 1.44433Z" fill="#66072F"/>
<path fill-rule="evenodd" clip-rule="evenodd" d="M31.8233 -0.0551496C31.6163 0.195549 31.6512 0.561737 31.9019 0.768762C32.1526 0.975788 32.5187 0.940848 32.7258 0.690149C32.9328 0.43945 32.8978 0.0732626 32.6471 -0.133763C32.4422 -0.345156 32.0303 -0.305849 31.8233 -0.0551496Z" fill="#66072F"/>
<path fill-rule="evenodd" clip-rule="evenodd" d="M30.9539 0.997768C30.7469 1.24847 30.7818 1.61465 31.0325 1.82168C31.2832 2.02871 31.6493 1.99377 31.8564 1.74307C32.0634 1.49237 32.0284 1.12618 31.7777 0.919156C31.527 0.712131 31.1609 0.747069 30.9539 0.997768Z" fill="#66072F"/>
<path d="M24.2022 3.81291L18.8199 10.3311C18.3185 9.91706 18.2443 9.13892 18.6583 8.63752L22.5087 3.9745C22.9183 3.42733 23.6964 3.35309 24.2022 3.81291Z" fill="#66072F"/>
<path d="M38.8812 14.3753L32.0128 22.7444L24.793 16.782C23.8906 16.0367 23.1951 15.0407 22.8113 13.9226C22.4951 13.0289 21.9588 12.2487 21.2569 11.669L20.0536 10.6753L20.7988 9.77278L22.0021 10.7665C22.9046 11.5118 23.6 12.5078 23.9337 13.5845C24.2499 14.4781 24.7906 15.3041 25.5426 15.9252L31.8512 21.0508L37.2335 14.5325L30.9663 9.35687C30.2142 8.73579 29.301 8.36104 28.3637 8.21953C27.239 8.04971 26.1339 7.60088 25.2315 6.85558L24.0282 5.86185L24.7734 4.95934L25.9767 5.95307C26.7287 6.57415 27.5963 6.95326 28.4834 7.05337C29.6538 7.21882 30.7589 7.66765 31.6658 8.45872L38.8812 14.3753Z" fill="#66072F"/>
<path d="M46.5862 5.09505L40.4587 12.5158L34.8935 7.91979L41.021 0.49905L46.5862 5.09505ZM40.2971 10.8222L44.8927 5.25664L41.1324 2.15124L36.5368 7.71679L40.2971 10.8222Z" fill="#66072F"/>
<path d="M40.0685 -0.287662L33.941 7.13306L26.5207 1.00507L32.6482 -6.41565L40.0685 -0.287662ZM33.7794 5.43948L38.375 -0.126071L32.7596 -4.76348L28.164 0.802068L33.7794 5.43948Z" fill="#66072F"/>
<path fill-rule="evenodd" clip-rule="evenodd" d="M40.9302 4.3876C40.6404 4.73859 40.9369 4.94125 40.6427 5.24646C40.3943 5.5473 40.0978 5.34464 39.8538 5.69125C39.6097 6.03786 39.8604 6.2449 39.5663 6.55011C39.2764 6.90109 39.0214 6.64828 38.7773 6.9949C38.5289 7.29574 38.7339 7.50712 38.5356 7.84937L40.0898 9.13294L43.1536 5.42258L41.5492 4.0976C41.3748 4.20661 41.1372 4.1369 40.9302 4.3876Z" fill="#66072F"/>
<path fill-rule="evenodd" clip-rule="evenodd" d="M28.3444 9.4685C27.6403 9.35092 26.9276 9.14179 26.2563 8.88252C26.0536 9.179 26.2585 9.3904 26.0101 9.69124C25.7203 10.0422 25.4652 9.78941 25.2212 10.136C24.9314 10.487 25.2279 10.6897 24.9337 10.9949C24.6853 11.2957 24.4389 11.1345 24.1818 11.3438C24.6091 11.9496 24.9449 12.5642 25.1521 13.2835C25.3549 13.957 25.7778 14.5171 26.3293 14.9726L31.6439 19.3615L35.4942 14.6985L30.1797 10.3095C29.674 9.84971 29.0026 9.59045 28.3444 9.4685ZM26.7339 10.4998C27.1893 9.94823 27.9674 9.87399 28.5189 10.3294C29.0704 10.7849 29.1447 11.563 28.6892 12.1146C28.2338 12.6661 27.4557 12.7404 26.9042 12.2849C26.3527 11.8295 26.2741 11.0055 26.7339 10.4998ZM27.2335 13.3158C27.6889 12.7643 28.467 12.6901 29.0185 13.1455C29.57 13.601 29.6443 14.3791 29.1889 14.9307C28.7334 15.4822 27.9554 15.5565 27.4039 15.101C26.8524 14.6455 26.7737 13.8216 27.2335 13.3158ZM32.4085 17.2101C31.9531 17.7616 31.175 17.8358 30.6235 17.3804C30.072 16.9249 29.9977 16.1468 30.4531 15.5952C30.9086 15.0437 31.6866 14.9695 32.2381 15.4249C32.7897 15.8804 32.8639 16.6585 32.4085 17.2101ZM31.9371 14.2065C31.4817 14.7581 30.7036 14.8323 30.1521 14.3769C29.6006 13.9214 29.5264 13.1432 29.9818 12.5917C30.4372 12.0402 31.2153 11.9659 31.7668 12.4214C32.3183 12.8768 32.3926 13.655 31.9371 14.2065Z" fill="#66072F"/>
<path d="M55.1232 -7.15295L49.0339 0.221497L49.9557 0.982711L56.045 -6.39174L55.1232 -7.15295Z" fill="#66072F"/>
</g>
<path d="M64.9022 34.8947C64.5266 30.9583 65.729 27.1022 68.2545 24.0437C70.78 20.9851 74.3388 19.0751 78.275 18.6995L112.419 15.4415L113.135 22.9482L78.9913 26.2062C77.069 26.3896 75.3125 27.3425 74.0704 28.8467C72.8283 30.3509 72.225 32.256 72.4084 34.1785L73.5637 46.7704C73.5164 50.1467 71.2568 53.0875 68.0552 53.9011L66.7453 54.2108L64.9022 34.8947Z" fill="white"/>
<path d="M68.1911 69.3616L67.4748 61.8549L101.619 58.5969C103.541 58.4135 105.298 57.4606 106.54 55.9564C107.782 54.4522 108.385 52.547 108.202 50.6246L107.058 38.6321C106.717 35.0619 109.079 31.7418 112.551 30.8562L113.861 30.5465L115.708 49.9084C116.084 53.8448 114.881 57.7009 112.356 60.7594C109.83 63.818 106.271 65.728 102.335 66.1036L68.1911 69.3616Z" fill="white"/>
<path d="M95.6346 51.5466L94.7087 41.8428L90.7757 47.576L85.8294 42.69L86.7553 52.3938L80.8511 52.9572L79.0254 33.8242L84.6093 33.2914L89.9589 39.0165L94.1293 32.383L99.7132 31.8502L101.539 50.9832L95.6346 51.5466Z" fill="white"/>
<path d="M30.6 42.7868L30.0715 37.2484L33.55 36.9164L33.6723 38.1981L31.6127 38.3946L32.0189 42.6515L30.6 42.7868Z" fill="white"/>
<path d="M38.4724 42.0356L38.2671 39.8843L36.0702 40.094L36.2755 42.2453L34.8566 42.3807L34.3281 36.8422L35.747 36.7068L35.9435 38.7665L38.1405 38.5569L37.9439 36.4971L39.3628 36.3618L39.8913 41.9002L38.4724 42.0356Z" fill="white"/>
<path d="M48.3584 41.0923L47.9522 36.8355L46.2588 36.9971L46.1365 35.7154L50.988 35.2525L51.1103 36.5341L49.3711 36.7001L49.7773 40.9569L48.3584 41.0923Z" fill="white"/>
<path d="M44.5137 41.4591L44.2123 38.3008L42.1794 41.6819L40.9894 41.7954L40.4609 36.2569L41.8798 36.1215L42.1768 39.2341L44.1683 35.9032L45.4498 35.7809L45.9783 41.3194L44.5137 41.4591Z" fill="white"/>
<path d="M22.224 43.586L21.9095 40.2904L20.6109 42.1695L19.0261 40.5655L19.3405 43.8612L17.8759 44.0009L17.3474 38.4624L18.7663 38.327L20.4143 40.1097L21.6955 38.0475L23.1602 37.9078L23.6886 43.4463L22.224 43.586Z" fill="white"/>
<path d="M26.2472 41.216L27.6203 41.085L26.7678 39.4111L26.2472 41.216ZM28.5404 42.9833L28.1458 42.2358L25.9031 42.4498L25.6569 43.2585L24.1923 43.3982L25.9065 37.6457L27.2338 37.5191L30.005 42.8436L28.5404 42.9833Z" fill="white"/>
<path d="M17.0135 35.4458C16.9479 34.7592 17.4491 34.2033 18.1815 34.1335C18.4103 34.1116 18.5978 34.1399 18.7896 34.214L18.8463 34.809C18.6545 34.735 18.5085 34.6565 18.2339 34.6827C17.8677 34.7177 17.5735 35.0229 17.6085 35.3891C17.6434 35.7552 17.99 35.9993 18.3562 35.9644C18.585 35.9425 18.7637 35.8793 18.9337 35.7245L18.9905 36.3195C18.8161 36.4286 18.5917 36.4962 18.3628 36.518C17.6763 36.5835 17.079 36.1324 17.0135 35.4458Z" fill="white"/>
<path d="M19.1926 34.0831L20.9319 33.9171L20.9799 34.4206L19.8357 34.5298L19.8663 34.8502L20.7817 34.7629L20.8297 35.2664L19.9143 35.3537L19.958 35.8115L21.148 35.6979L21.196 36.2014L19.411 36.3717L19.1926 34.0831Z" fill="white"/>
<path d="M21.2981 33.8822L21.8931 33.8255L22.5711 34.6384L23.0831 33.7119L23.6781 33.6551L23.8965 35.9438L23.3015 36.0006L23.1661 34.5816L22.8153 35.2617L22.4949 35.2923L22.0219 34.6908L22.1573 36.1097L21.5623 36.1665L21.3439 33.8779L21.2981 33.8822Z" fill="white"/>
<path d="M24.0901 33.6158L24.6851 33.5591L24.755 34.2914L25.1669 34.2521C25.7619 34.1954 26.1129 34.4852 26.1565 34.9429C26.2002 35.4006 25.8646 35.756 25.3154 35.8084L24.3085 35.9045L24.0901 33.6158ZM25.2216 35.3093C25.4504 35.2874 25.579 35.1828 25.5572 34.9539C25.5397 34.7708 25.3893 34.6466 25.1604 34.6685L24.7943 34.7034L24.8511 35.2984L25.2172 35.2635L25.2216 35.3093Z" fill="white"/>
<path d="M26.8715 34.6899C26.5882 34.6246 26.3789 34.3674 26.3527 34.0928C26.3134 33.6808 26.6032 33.3299 27.1067 33.2818L28.2051 33.177L28.4235 35.4656L27.8285 35.5224L27.7455 34.6527L27.5167 34.6746L26.9589 35.6054L26.2723 35.6709L26.8715 34.6899ZM27.7018 34.195L27.6582 33.7373L27.2005 33.7809C27.0174 33.7984 26.9346 33.8987 26.9477 34.036C26.9608 34.1733 27.0611 34.2561 27.2441 34.2387L27.7018 34.195Z" fill="white"/>
<path d="M29.491 33.1005L30.086 33.0437L30.764 33.8566L31.276 32.9301L31.871 32.8734L32.0894 35.162L31.4944 35.2188L31.359 33.7998L31.0082 34.4799L30.6878 34.5105L30.2147 33.909L30.3501 35.328L29.7551 35.3847L29.5367 33.0961L29.491 33.1005Z" fill="white"/>
<path d="M33.0567 32.7141L33.606 32.6617L34.7899 34.9044L34.1491 34.9655L33.918 34.4795L33.0484 34.5624L32.9133 35.0834L32.2726 35.1446L33.0567 32.7141ZM33.6912 34.0392L33.4056 33.466L33.2335 34.0829L33.6912 34.0392Z" fill="white"/>
<path d="M34.8462 32.5895L36.5397 32.4279L36.5877 32.9314L35.4892 33.0362L35.6596 34.8214L35.0646 34.8782L34.8462 32.5895Z" fill="white"/>
<path d="M37.1759 32.321L37.7251 32.2686L38.909 34.5113L38.2683 34.5724L38.0371 34.0864L37.1675 34.1694L37.0325 34.6904L36.3917 34.7515L37.1759 32.321ZM37.8561 33.6418L37.5705 33.0686L37.3984 33.6854L37.8561 33.6418Z" fill="white"/>
<path d="M39.0747 34.3107L39.0223 33.7614C39.2686 33.9227 39.5519 33.988 39.8266 33.9618C40.1469 33.9313 40.2755 33.8266 40.258 33.6435C40.2449 33.5062 40.0531 33.4321 39.8243 33.454L39.5497 33.4802L39.506 33.0224L39.8721 32.9875C40.101 32.9657 40.138 32.8697 40.1293 32.7782C40.1206 32.6867 39.9745 32.6082 39.7457 32.6301C39.4253 32.6606 39.1594 32.7784 38.985 32.8874L38.937 32.3839C39.1113 32.2749 39.3729 32.1114 39.6933 32.0808C40.2883 32.024 40.6349 32.2681 40.6742 32.68C40.696 32.9089 40.5718 33.0593 40.4432 33.164C40.635 33.238 40.8356 33.4037 40.8618 33.6783C40.9011 34.0902 40.5655 34.4456 39.9247 34.5067C39.5542 34.4959 39.2708 34.4306 39.0747 34.3107Z" fill="white"/>
<path d="M41.0708 31.9955L41.6658 31.9388L41.7881 33.2204L42.627 31.8471L43.1304 31.799L43.3488 34.0877L42.7538 34.1444L42.6271 32.817L41.7926 34.2362L41.2892 34.2842L41.0708 31.9955Z" fill="white"/>
<path d="M43.5422 31.7597L44.1372 31.7029L44.2159 32.5268L45.0855 32.4438L45.0069 31.6199L45.6019 31.5631L45.8202 33.8518L45.2252 33.9086L45.1335 32.9473L44.2639 33.0303L44.3556 33.9915L43.7606 34.0483L43.5422 31.7597Z" fill="white"/>
<path d="M46.0772 32.6726C46.016 32.0318 46.4671 31.4344 47.1994 31.3646C47.8859 31.2991 48.4876 31.7959 48.5487 32.4367C48.6099 33.0776 48.1588 33.6749 47.4265 33.7448C46.6942 33.8146 46.1383 33.3134 46.0772 32.6726ZM47.908 32.4979C47.873 32.1317 47.5722 31.8833 47.2518 31.9138C46.8857 31.9488 46.683 32.2453 46.718 32.6114C46.7529 32.9776 47.0537 33.226 47.3741 33.1955C47.6945 33.1649 47.9429 32.8641 47.908 32.4979Z" fill="white"/>
<path d="M48.76 31.2618L49.9043 31.1527C50.3162 31.1134 50.654 31.2659 50.6934 31.6778C50.7152 31.9067 50.5953 32.1029 50.4624 32.1618C50.6499 32.1901 50.9419 32.347 50.9769 32.7131C51.0162 33.1251 50.7177 33.3845 50.2142 33.4326L49.0242 33.5461L48.8058 31.2575L48.76 31.2618ZM49.8957 32.0311C50.033 32.018 50.1158 31.9177 50.1071 31.8261C50.094 31.6888 49.9981 31.6518 49.8608 31.6649L49.4031 31.7086L49.4424 32.1205L49.9001 32.0769L49.8957 32.0311ZM50.0288 32.9422C50.2119 32.9247 50.2947 32.8244 50.2816 32.6871C50.2685 32.5498 50.1682 32.467 49.9851 32.4844L49.5274 32.5281L49.5755 33.0316L50.0332 32.9879L50.0288 32.9422Z" fill="white"/>
<path d="M34.2954 25.8522C34.243 25.3029 34.4238 24.7776 34.7551 24.3764C35.0863 23.9753 35.5679 23.6984 36.1171 23.646L40.7399 23.2049L40.836 24.2119L36.2132 24.653C35.9386 24.6792 35.7185 24.7926 35.5529 24.9931C35.3873 25.1937 35.3176 25.4313 35.3438 25.7059L35.5054 27.3995C35.5033 27.8616 35.1721 28.2628 34.7645 28.3478L34.5858 28.4111L34.3412 25.8478L34.2954 25.8522Z" fill="white"/>
<path d="M34.7366 30.4752L34.6405 29.4682L39.2632 29.0271C39.5378 29.0009 39.7579 28.8875 39.9235 28.687C40.0891 28.4864 40.1589 28.2488 40.1326 27.9742L39.9798 26.3721C39.9317 25.8686 40.2586 25.4217 40.7119 25.3323L40.8906 25.2691L41.1396 27.8781C41.192 28.4274 41.0112 28.9527 40.68 29.3538C40.3487 29.7549 39.8671 30.0319 39.3179 30.0843L34.7409 30.521L34.7366 30.4752Z" fill="white"/>
<path d="M38.6567 25.5746L39.1602 25.5266L39.1209 25.1146L39.0751 25.119C38.9378 25.1321 38.8005 25.1452 38.6632 25.1583C38.4344 25.1801 38.3102 25.3305 38.2862 25.5638C38.295 25.6553 38.2667 25.8428 38.2798 25.9801L36.1743 26.181C36.1787 26.2267 36.1875 26.3183 36.2376 26.3597C36.3139 26.6757 36.3903 26.9918 36.5124 27.3035C36.5756 27.4822 36.6345 27.6151 36.8219 27.6434C36.8721 27.6848 36.9636 27.6761 37.0094 27.6717C37.4213 27.6324 37.8333 27.5931 38.2452 27.5538C38.5198 27.5276 38.5939 27.3358 38.6222 27.1483C38.6548 27.0066 38.6417 26.8693 38.6744 26.7276C38.6896 26.4029 38.7004 26.0323 38.7156 25.7075C38.6699 25.7119 38.6567 25.5746 38.6567 25.5746Z" fill="white"/>
<path d="M38.567 28.0309C38.5495 27.8479 38.3993 27.7238 38.2163 27.7413C38.0334 27.7587 37.9093 27.909 37.9268 28.092C37.9442 28.2749 38.0945 28.399 38.2774 28.3816C38.4647 28.4098 38.5844 28.2138 38.567 28.0309Z" fill="white"/>
<path d="M36.6909 28.2099C36.7084 28.3928 36.8587 28.5169 37.0416 28.4995C37.2245 28.482 37.3486 28.3317 37.3312 28.1488C37.3137 27.9659 37.1634 27.8417 36.9805 27.8592C36.7976 27.8766 36.6735 28.0269 36.6909 28.2099Z" fill="white"/>
<path d="M43.1704 24.9591C43.118 24.4099 43.2988 23.8845 43.63 23.4834C43.9613 23.0823 44.4429 22.8054 44.9921 22.753L49.6606 22.3075L49.7567 23.3145L45.0882 23.76C44.8136 23.7862 44.5935 23.8996 44.4279 24.1001C44.2623 24.3007 44.1969 24.5841 44.2188 24.8129L44.3847 26.5523C44.3826 27.0144 44.0514 27.4155 43.6482 27.5463L43.4695 27.6096L43.2162 24.9548L43.1704 24.9591Z" fill="white"/>
<path d="M43.6203 29.6737L43.5242 28.6667L48.1927 28.2212C48.4673 28.195 48.6874 28.0816 48.853 27.8811C49.0186 27.6805 49.084 27.3971 49.0621 27.1683L48.9049 25.5205C48.8569 25.017 49.1837 24.5701 49.6327 24.4349L49.8114 24.3716L50.0647 27.0264C50.1171 27.5757 49.9363 28.101 49.6051 28.5022C49.2739 28.9033 48.7922 29.1802 48.243 29.2326L43.6203 29.6737Z" fill="white"/>
<path d="M46.0126 24.7341L46.0912 25.558L45.2673 25.6367L45.3591 26.5979L46.1829 26.5193L46.2615 27.3432L47.2684 27.2471L47.1898 26.4232L47.9679 26.3489L47.8762 25.3877L47.0981 25.462L47.0195 24.6381L46.0126 24.7341Z" fill="white"/>
<path d="M25.4121 26.6536C25.3597 26.1044 25.5405 25.579 25.8718 25.1779C26.203 24.7768 26.6846 24.4999 27.2338 24.4475L31.9023 24.002L31.9984 25.009L27.3299 25.4545C27.0553 25.4807 26.8352 25.5941 26.6696 25.7946C26.504 25.9952 26.4387 26.2786 26.4605 26.5074L26.6265 28.2468C26.6244 28.7089 26.2931 29.11 25.8899 29.2409L25.7112 29.3041L25.4579 26.6493L25.4121 26.6536Z" fill="white"/>
<path d="M25.8618 31.3682L25.7657 30.3612L30.4342 29.9158C30.7088 29.8896 30.9289 29.7762 31.0945 29.5756C31.2601 29.3751 31.3255 29.0917 31.3036 28.8628L31.1464 27.215C31.0983 26.7115 31.4252 26.2646 31.8741 26.1294L32.0529 26.0662L32.3062 28.721C32.3586 29.2703 32.1778 29.7956 31.8466 30.1967C31.5154 30.5978 31.0337 30.8747 30.4845 30.9271L25.8618 31.3682Z" fill="white"/>
<path d="M30.2834 26.8817C30.2572 26.607 30.2354 26.3782 30.2354 26.3782L30.2266 26.2866L30.1351 26.2954C30.0893 26.2997 29.9978 26.3085 29.952 26.3128C29.7275 26.3804 29.4529 26.4066 29.2786 26.5157C29.0584 26.629 28.9299 26.7337 28.8558 26.9255C28.7468 26.7512 28.6007 26.6727 28.3632 26.603C28.1714 26.5289 27.8967 26.5551 27.6635 26.5312C27.6178 26.5356 27.5262 26.5443 27.4804 26.5487L27.3889 26.5574L27.3977 26.649C27.3977 26.649 27.4239 26.9236 27.4457 27.1524C27.4763 27.4729 27.5243 27.9764 28.0409 28.0656L28.0866 28.0613C27.8339 28.3163 27.8775 28.7741 27.9451 28.9986L27.9539 29.0901L28.3157 29.0094C28.5859 28.9374 28.8605 28.9112 29.013 28.5733C29.2267 28.8763 29.4599 28.9002 29.7803 28.8696L30.1051 28.8849L30.0963 28.7933C30.1203 28.5601 30.0766 28.1023 29.7801 27.8997L29.8259 27.8953C30.3119 27.6642 30.314 27.2021 30.2834 26.8817Z" fill="white"/>
<path d="M16.5325 27.5009C16.4801 26.9516 16.6609 26.4263 16.9921 26.0252C17.3233 25.6241 17.805 25.3472 18.3542 25.2947L23.0227 24.8493L23.1188 25.8563L18.4503 26.3018C18.1757 26.328 17.9556 26.4413 17.7899 26.6419C17.6243 26.8425 17.559 27.1258 17.5808 27.3547L17.7468 29.0941C17.7447 29.5561 17.4135 29.9573 17.0103 30.0881L16.8316 30.1514L16.5783 27.4965L16.5325 27.5009Z" fill="white"/>
<path d="M16.9824 32.2155L16.8863 31.2085L21.5548 30.7631C21.8294 30.7368 22.0495 30.6235 22.2152 30.4229C22.3808 30.2223 22.4461 29.939 22.4242 29.7101L22.267 28.0623C22.219 27.5588 22.5458 27.1119 22.9991 27.0224L23.1779 26.9592L23.4312 29.614C23.4836 30.1633 23.3028 30.6886 22.9716 31.0898C22.6404 31.4909 22.1587 31.7678 21.6095 31.8202L16.9868 32.2613L16.9824 32.2155Z" fill="white"/>
<path d="M20.722 29.7802L20.5954 28.4528L20.0703 29.2419L19.3596 28.5707L19.4863 29.8981L18.7082 29.9723L18.4592 27.3633L19.1915 27.2934L19.9567 28.0518L20.5189 27.1668L21.2969 27.0925L21.5459 29.7016L20.722 29.7802Z" fill="white"/>
<path d="M22.2074 82.6178C21.9022 82.3236 21.7714 81.9204 21.7233 81.4169C21.6753 80.9134 21.7777 80.5341 21.9716 80.1461C22.2156 79.7995 22.5185 79.5858 22.9305 79.5465C23.3424 79.5072 23.726 79.6554 23.9854 79.9539C24.2906 80.2481 24.4215 80.6514 24.4695 81.1549C24.5176 81.6584 24.4196 82.0834 24.2213 82.4256C23.9772 82.7723 23.6743 82.9859 23.2624 83.0252C22.8505 83.0645 22.5126 82.912 22.2074 82.6178ZM23.866 82.09C24.0272 81.8437 24.0424 81.5189 24.0118 81.1985C23.9769 80.8323 23.8591 80.5664 23.7 80.3507C23.4951 80.1393 23.2989 80.0194 23.0243 80.0456C22.7497 80.0718 22.5797 80.2266 22.4184 80.473C22.2572 80.7193 22.242 81.0441 22.2726 81.3645C22.3075 81.7307 22.4253 81.9966 22.5844 82.2123C22.7893 82.4237 22.9855 82.5436 23.2601 82.5174C23.489 82.4955 23.7047 82.3364 23.866 82.09Z" fill="white"/>
<path d="M25.6337 82.7065L25.5988 82.3403L26.5554 81.2329C26.7624 80.9822 26.928 80.7816 27.0065 80.6356C27.0849 80.4895 27.1176 80.3478 27.1001 80.1647C27.0695 79.8443 26.7731 79.6417 26.3611 79.681C26.0407 79.7115 25.7335 79.8794 25.4851 80.1803L25.4326 79.631C25.6854 79.3759 25.9927 79.208 26.4046 79.1687C26.725 79.1382 27.0084 79.2035 27.2547 79.3648C27.501 79.526 27.6144 79.7461 27.645 80.0666C27.6668 80.2954 27.6429 80.5287 27.5186 80.6791C27.4446 80.8709 27.2833 81.1172 27.0306 81.3723L26.3638 82.1288L27.9199 81.9803L27.9636 82.438L25.6294 82.6608L25.6337 82.7065Z" fill="white"/>
<path d="M29.003 82.2002L28.955 81.6967C29.2471 81.8536 29.5762 81.9146 29.9423 81.8796C30.1712 81.8578 30.3499 81.7946 30.4741 81.6441C30.5983 81.4937 30.6767 81.3477 30.6549 81.1188C30.62 80.7526 30.2734 80.5086 29.8157 80.5522C29.6784 80.5653 29.5454 80.6242 29.4125 80.6831L29.3775 80.3169L30.21 79.3599L28.8369 79.4909L28.7932 79.0332L30.8528 78.8367L30.8921 79.2486L30.1011 80.1555C30.3801 80.1751 30.6177 80.2448 30.8182 80.4104C31.0188 80.576 31.1322 80.7961 31.1627 81.1165C31.1977 81.4827 31.0866 81.7705 30.8752 81.9754C30.6682 82.2261 30.3565 82.3482 29.9904 82.3831C29.6242 82.4181 29.2951 82.3571 29.003 82.2002Z" fill="white"/>
<path d="M32.9567 82.0078L32.6902 79.2156L31.9972 79.6975L31.9492 79.194L32.6836 78.662L33.1413 78.6183L33.4601 81.9597L32.9567 82.0078Z" fill="white"/>
<path d="M36.7621 81.2289C36.4569 80.9347 36.3261 80.5315 36.278 80.028C36.23 79.5245 36.3324 79.1452 36.5263 78.7572C36.7703 78.4106 37.0732 78.1969 37.4851 78.1576C37.8971 78.1183 38.2807 78.2664 38.5401 78.565C38.8453 78.8592 38.9762 79.2624 39.0242 79.7659C39.0722 80.2694 38.9743 80.6945 38.776 81.0367C38.5319 81.3833 38.229 81.597 37.8171 81.6363C37.4052 81.6756 37.0673 81.5231 36.7621 81.2289ZM38.4206 80.7011C38.5819 80.4548 38.5971 80.13 38.5665 79.8096C38.5316 79.4434 38.4138 79.1775 38.2547 78.9618C38.0498 78.7504 37.8536 78.6305 37.579 78.6567C37.3043 78.6829 37.1344 78.8377 36.9731 79.0841C36.8119 79.3304 36.7967 79.6552 36.8273 79.9756C36.8622 80.3417 36.98 80.6076 37.1391 80.8234C37.344 81.0348 37.5402 81.1546 37.8148 81.1284C38.0437 81.1066 38.2594 80.9475 38.4206 80.7011Z" fill="white"/>
<path d="M42.1928 78.1241C42.4478 78.3769 42.6201 78.73 42.6681 79.2335C42.7205 79.7827 42.6269 80.2536 42.3872 80.646C42.1476 81.0383 41.7989 81.2564 41.3412 81.3C41.0666 81.3262 40.829 81.2565 40.587 81.1411L40.5434 80.6833C40.7395 80.8032 41.0229 80.8685 41.2517 80.8467C41.5721 80.8161 41.7922 80.7027 41.9535 80.4564C42.1147 80.2101 42.1801 79.9267 42.1495 79.6063C41.9926 79.8984 41.681 80.0205 41.3148 80.0555C40.9944 80.086 40.7568 80.0163 40.5105 79.8551C40.31 79.6894 40.1465 79.4279 40.1159 79.1075C40.0853 78.7871 40.1506 78.5037 40.3577 78.253C40.5647 78.0023 40.8305 77.8846 41.1509 77.854C41.6042 77.7645 41.9377 77.8713 42.1928 78.1241ZM40.7958 78.4883C40.6716 78.6388 40.6389 78.7804 40.6607 79.0093C40.6782 79.1924 40.7415 79.3711 40.8875 79.4496C41.0379 79.5738 41.2254 79.6021 41.4084 79.5846C41.5915 79.5672 41.7245 79.5083 41.853 79.4036C41.9816 79.299 42.06 79.1529 42.0927 79.0112C41.9989 78.5121 41.6937 78.2179 41.2818 78.2572C41.0529 78.279 40.92 78.3379 40.7958 78.4883Z" fill="white"/>
<path d="M43.7408 80.794L43.6928 80.2905C43.9849 80.4474 44.314 80.5083 44.6801 80.4734C44.909 80.4515 45.0877 80.3883 45.2119 80.2379C45.3361 80.0875 45.4145 79.9414 45.3927 79.7126C45.3578 79.3464 45.0112 79.1023 44.5535 79.146C44.4162 79.1591 44.2832 79.218 44.1503 79.2768L44.1153 78.9107L44.9477 77.9536L43.5747 78.0847L43.531 77.6269L45.5906 77.4304L45.6299 77.8424L44.8389 78.7492C45.1179 78.7688 45.3555 78.8385 45.556 79.0041C45.7566 79.1698 45.8699 79.3899 45.9005 79.7103C45.9355 80.0765 45.8244 80.3642 45.613 80.5691C45.406 80.8198 45.0943 80.9419 44.7282 80.9769C44.362 81.0118 44.0329 80.9508 43.7408 80.794Z" fill="white"/>
<path d="M47.008 80.667L46.9731 80.3008L47.9297 79.1934C48.1367 78.9427 48.3023 78.7421 48.3807 78.5961C48.4592 78.45 48.4918 78.3083 48.4744 78.1252C48.4438 77.8048 48.1473 77.6021 47.7354 77.6414C47.415 77.672 47.1077 77.8399 46.8593 78.1408L46.8069 77.5915C47.0597 77.3364 47.367 77.1685 47.7789 77.1292C48.0993 77.0987 48.3826 77.164 48.629 77.3252C48.8753 77.4865 48.9887 77.7066 49.0192 78.027C49.0411 78.2559 49.0171 78.4891 48.8929 78.6396C48.8189 78.8314 48.6576 79.0777 48.4048 79.3328L47.738 80.0893L49.2942 79.9408L49.3379 80.3985L47.0036 80.6212L47.008 80.667Z" fill="white"/>
<path d="M54.5184 79.0265C54.549 79.347 54.4335 79.5889 54.2221 79.7938C54.0108 79.9988 53.6991 80.1209 53.3329 80.1558C52.9668 80.1908 52.6377 80.1298 52.3913 79.9685C52.0993 79.8116 51.9859 79.5915 51.9553 79.2711C51.916 78.8592 52.16 78.5125 52.5589 78.3359C52.2254 78.2292 52.0161 77.972 51.9855 77.6516C51.9593 77.377 52.029 77.1394 52.2448 76.9802C52.4561 76.7753 52.722 76.6576 53.0424 76.627C53.3628 76.5964 53.6462 76.6617 53.8925 76.823C54.1388 76.9842 54.2478 77.1586 54.274 77.4332C54.3046 77.7537 54.1477 78.0457 53.8404 78.2136C54.2197 78.316 54.4791 78.6146 54.5184 79.0265ZM53.7424 78.6387C53.5964 78.5603 53.4046 78.4862 53.1757 78.508C52.9469 78.5298 52.7682 78.5931 52.6439 78.7435C52.5154 78.8482 52.4369 78.9942 52.4544 79.1773C52.4719 79.3604 52.5765 79.489 52.7226 79.5674C52.8686 79.6459 53.0604 79.7199 53.2893 79.6981C53.5181 79.6763 53.6968 79.613 53.821 79.4626C53.9496 79.358 54.028 79.2119 54.0106 79.0288C53.9975 78.8915 53.8928 78.7629 53.7424 78.6387ZM53.7335 77.5772C53.7029 77.2568 53.4108 77.0999 53.0447 77.1348C52.6785 77.1698 52.4257 77.4248 52.4519 77.6995C52.4782 77.9741 52.7746 78.1768 53.1408 78.1418C53.5069 78.1069 53.7597 77.8518 53.7335 77.5772Z" fill="white"/>
<path d="M55.641 79.6585L55.5929 79.155C55.885 79.3119 56.2141 79.3728 56.5803 79.3379C56.8091 79.316 56.9879 79.2528 57.1121 79.1024C57.2363 78.952 57.3147 78.8059 57.2929 78.5771C57.2579 78.2109 56.9113 77.9668 56.4536 78.0105C56.3163 78.0236 56.1834 78.0825 56.0504 78.1413L56.0155 77.7752L56.8479 76.8181L55.4748 76.9492L55.4311 76.4914L57.4908 76.2949L57.5301 76.7069L56.7391 77.6137C57.0181 77.6333 57.2557 77.703 57.4562 77.8686C57.6568 78.0343 57.7701 78.2544 57.8007 78.5748C57.8356 78.941 57.7245 79.2287 57.5132 79.4336C57.3062 79.6843 56.9945 79.8064 56.6283 79.8414C56.2622 79.8763 55.8873 79.8197 55.641 79.6585Z" fill="white"/>
<path d="M59.137 79.5097L60.3265 76.4862L58.633 76.6478L58.5894 76.1901L60.8778 75.9717L60.9171 76.3837L59.732 79.4529L59.137 79.5097Z" fill="white"/>
<path d="M62.4017 78.8747C62.1467 78.6219 61.9744 78.2689 61.9264 77.7654C61.8739 77.2161 61.9676 76.7453 62.2073 76.3529C62.4469 75.9605 62.7956 75.7424 63.2533 75.6988C63.5279 75.6726 63.8113 75.7379 64.0075 75.8578L64.0511 76.3155C63.8092 76.2 63.5716 76.1303 63.3428 76.1521C63.0224 76.1827 62.8023 76.2961 62.641 76.5424C62.4798 76.7888 62.4145 77.0721 62.445 77.3925C62.6019 77.1004 62.9136 76.9783 63.2797 76.9434C63.6001 76.9128 63.8377 76.9825 64.084 77.1438C64.3303 77.305 64.4481 77.5709 64.4786 77.8913C64.5092 78.2117 64.4025 78.5453 64.2369 78.7458C64.0299 78.9965 63.764 79.1143 63.4436 79.1448C62.9903 79.2343 62.6568 79.1275 62.4017 78.8747ZM63.7944 78.4647C63.9186 78.3143 63.9512 78.1726 63.9294 77.9437C63.9119 77.7606 63.8487 77.5819 63.7026 77.5035C63.5522 77.3793 63.4106 77.3466 63.1817 77.3684C62.9986 77.3859 62.8657 77.4448 62.7371 77.5494C62.6085 77.6541 62.5301 77.8001 62.4974 77.9418C62.5913 78.4409 62.8964 78.7351 63.3084 78.6958C63.4958 78.7241 63.6702 78.6151 63.7944 78.4647Z" fill="white"/>
<path d="M67.4671 78.7148L68.6566 75.6913L66.9631 75.8529L66.9194 75.3952L69.2079 75.1768L69.2472 75.5888L68.0621 78.658L67.4671 78.7148Z" fill="white"/>
<path d="M70.4247 78.2478L70.3766 77.7443C70.6687 77.9012 70.9978 77.9621 71.364 77.9272C71.5928 77.9053 71.7715 77.8421 71.8958 77.6917C72.02 77.5413 72.0984 77.3952 72.0766 77.1663C72.0416 76.8002 71.695 76.5561 71.2373 76.5998C71.1 76.6129 70.9671 76.6718 70.8341 76.7306L70.7992 76.3645L71.6316 75.4074L70.2585 75.5385L70.2148 75.0807L72.2745 74.8842L72.3138 75.2962L71.5228 76.203C71.8018 76.2226 72.0393 76.2923 72.2399 76.4579C72.4405 76.6235 72.5538 76.8437 72.5844 77.1641C72.6193 77.5303 72.5082 77.818 72.2969 78.0229C72.0898 78.2736 71.7782 78.3957 71.412 78.4307C71.0916 78.4612 70.7167 78.4046 70.4247 78.2478Z" fill="white"/>
<path d="M76.3504 76.9433C76.381 77.2637 76.2655 77.5057 76.0541 77.7106C75.8428 77.9155 75.5311 78.0377 75.165 78.0726C74.7988 78.1075 74.4697 78.0466 74.2234 77.8853C73.9313 77.7284 73.8179 77.5083 73.7873 77.1879C73.748 76.7759 73.9921 76.4293 74.3909 76.2527C74.0574 76.146 73.8481 75.8888 73.8175 75.5684C73.7913 75.2938 73.861 75.0561 74.0768 74.897C74.2882 74.6921 74.554 74.5743 74.8744 74.5438C75.1948 74.5132 75.4782 74.5785 75.7245 74.7398C75.9708 74.901 76.0798 75.0754 76.106 75.35C76.1366 75.6704 75.9797 75.9625 75.6724 76.1304C76.0059 76.2372 76.3111 76.5314 76.3504 76.9433ZM75.5287 76.5599C75.3826 76.4814 75.1908 76.4073 74.962 76.4292C74.7331 76.451 74.5544 76.5142 74.4302 76.6647C74.3016 76.7693 74.2232 76.9154 74.2407 77.0985C74.2581 77.2815 74.3628 77.4101 74.5088 77.4886C74.6549 77.567 74.8467 77.6411 75.0755 77.6192C75.3044 77.5974 75.4831 77.5342 75.6073 77.3838C75.7358 77.2791 75.8143 77.1331 75.7968 76.95C75.7837 76.8126 75.7248 76.6797 75.5287 76.5599ZM75.5197 75.4983C75.4892 75.1779 75.1971 75.021 74.8309 75.056C74.4648 75.0909 74.212 75.346 74.2382 75.6206C74.2644 75.8953 74.5609 76.0979 74.927 76.063C75.2932 76.028 75.5459 75.773 75.5197 75.4983Z" fill="white"/>
<path d="M79.3122 74.5822C79.5672 74.835 79.7395 75.1881 79.7875 75.6916C79.8399 76.2408 79.7463 76.7117 79.5066 77.1041C79.2669 77.4964 78.9183 77.7145 78.4606 77.7581C78.186 77.7843 77.9484 77.7146 77.7064 77.5992L77.6627 77.1414C77.8589 77.2613 78.1423 77.3266 78.3711 77.3048C78.6915 77.2742 78.9116 77.1608 79.0729 76.9145C79.2341 76.6682 79.2994 76.3848 79.2689 76.0644C79.112 76.3565 78.8004 76.4786 78.4342 76.5135C78.1138 76.5441 77.8762 76.4744 77.6299 76.3132C77.4294 76.1475 77.2658 75.886 77.2353 75.5656C77.2047 75.2452 77.27 74.9618 77.477 74.7111C77.684 74.4604 77.9499 74.3427 78.2703 74.3121C78.7236 74.2226 79.0571 74.3294 79.3122 74.5822ZM77.9152 74.9464C77.7909 75.0969 77.7583 75.2385 77.7801 75.4674C77.7976 75.6505 77.8608 75.8292 78.0069 75.9077C78.1573 76.0319 78.3447 76.0602 78.5278 76.0427C78.7109 76.0253 78.8438 75.9664 78.9724 75.8617C79.101 75.7571 79.1794 75.611 79.2121 75.4693C79.1183 74.9702 78.8131 74.676 78.4012 74.7153C78.2181 74.7328 78.0394 74.796 77.9152 74.9464Z" fill="white"/>
</svg>
