<svg width="49" height="36" viewBox="0 0 49 36" fill="none" xmlns="http://www.w3.org/2000/svg">
<mask id="mask0" mask-type="alpha" maskUnits="userSpaceOnUse" x="1" y="1" width="48" height="34">
<path d="M3.48261 32.3367L1.15048 7.89605C1.00757 6.39834 2.10919 5.06421 3.6068 4.92131L42.9724 1.16504C44.4701 1.02214 45.8041 2.12385 45.947 3.62156L48.2791 28.0622C48.422 29.5599 47.3204 30.894 45.8228 31.0369L6.45717 34.7932C4.958 34.9196 3.62552 33.8344 3.48261 32.3367Z" fill="#EE2329"/>
</mask>
<g mask="url(#mask0)">
<rect x="-1.83325" y="2.38452" width="51.0838" height="36.2075" transform="rotate(-5.45066 -1.83325 2.38452)" fill="#EE2329"/>
<path d="M23.6899 35.2581L22.1715 37.097L22.0092 36.9631C21.9551 36.9184 20.8225 36.0134 19.7358 37.3295L19.6018 37.4917L17.2582 35.5563L21.4116 30.5263L23.7552 32.4617L23.6213 32.624C23.1598 33.1829 23.029 33.7268 23.2305 34.2722C23.3865 34.6892 23.6765 34.9438 23.693 34.9423L23.8553 35.0763L23.6899 35.2581ZM22.0985 36.5061L23.2299 35.1359C22.896 34.7692 22.2375 33.7857 23.1314 32.5378L21.4549 31.1532L17.8671 35.4982L19.5437 36.8828C20.2066 36.1718 20.8994 36.1223 21.3563 36.2116C21.6768 36.264 21.9394 36.405 22.0985 36.5061Z" fill="#66072F"/>
<path d="M20.489 33.3879C20.355 33.5501 20.3229 33.7359 20.3731 33.9138C20.1889 33.8981 19.9977 33.9828 19.8786 34.127C19.6702 34.3794 19.7063 34.758 19.9587 34.9664C20.2111 35.1749 20.7276 35.192 21.0536 35.1277C21.3318 35.0845 21.6695 34.9693 21.6695 34.9693C21.6695 34.9693 21.7024 34.6174 21.6953 34.3689C21.6936 34.0037 21.5956 33.4982 21.3267 33.2913C21.0759 33.0994 20.6974 33.1355 20.489 33.3879Z" fill="#66072F"/>
<path d="M10.0684 34.0002C10.4172 34.3489 10.7825 35.0448 10.9942 35.5229L10.1903 36.4964C9.68087 36.379 8.91203 36.1534 8.52013 35.8752C8.44802 35.8157 8.39394 35.771 8.33828 35.7099C8.33357 35.6605 8.36491 35.6409 8.39626 35.6213L8.42761 35.6017C8.6619 35.4465 8.87974 35.2928 9.00429 35.0318C9.13903 34.7034 9.08174 34.2771 9.37087 34.0004C9.53776 33.835 9.81754 33.8083 10.0143 33.9556C10.0323 33.9705 10.0503 33.9853 10.0684 34.0002Z" fill="#66072F"/>
<path d="M6.54884 32.3555L6.27515 32.6869L6.61933 32.9712L6.89302 32.6397L6.54884 32.3555Z" fill="#66072F"/>
<path d="M7.80089 31.9911L6.132 33.9939C5.95172 33.845 5.92502 33.5652 6.07389 33.3849L7.1904 32.0328C7.35729 31.8674 7.62061 31.8422 7.80089 31.9911Z" fill="#66072F"/>
<path d="M12.0397 35.6889L10.551 37.4917L10.4327 37.4698C10.3653 37.4596 8.81198 37.1926 8.01016 36.6214C7.40507 36.1975 7.27642 35.5455 7.34294 35.0243L6.47447 34.2767L6.75889 33.9507L7.82409 34.8455L7.80217 34.9639C7.75362 35.1512 7.66832 35.8236 8.27341 36.2475C8.8785 36.6714 10.0321 36.9267 10.4052 37.0074L11.5664 35.6012C11.4166 35.2501 10.9478 34.1655 10.4171 33.6514C9.88645 33.1374 9.24229 33.3483 9.06754 33.4314L8.93903 33.4769L7.85737 32.5836L8.12533 32.2591L9.00869 32.9886C9.50787 32.8247 10.174 32.8442 10.7031 33.3418C11.4156 34.0212 11.9715 35.4961 11.9942 35.5603L12.0397 35.6889Z" fill="#66072F"/>
<path d="M10.2831 27.7259L9.94336 27.9892L12.3742 31.1254L12.7139 30.8621L10.2831 27.7259Z" fill="#66072F"/>
<path d="M11.8462 29.7762L11.2988 30.4391L13.6443 32.3761L14.1917 31.7132L11.8462 29.7762Z" fill="#66072F"/>
<path d="M15.419 31.5964L13.7665 33.5976L10.3938 30.7971L10.6617 30.4725L13.7084 32.9886L14.81 31.6545L11.4749 28.9002L11.7578 28.5577L15.419 31.5964Z" fill="#66072F"/>
<path fill-rule="evenodd" clip-rule="evenodd" d="M10.7197 29.6864C10.1358 29.6591 9.64534 30.0879 9.61802 30.6718C9.57424 31.2572 10.0195 31.7462 10.5884 31.7916L10.7197 29.6864ZM10.346 30.4694C10.3084 30.4232 10.2841 30.3425 10.2958 30.2915C10.3617 30.2853 10.4306 30.3119 10.4683 30.3581C10.5059 30.4044 10.5302 30.4851 10.5184 30.536C10.4526 30.5423 10.3837 30.5157 10.346 30.4694ZM10.0867 30.7101C10.1313 30.656 10.1956 30.6333 10.2614 30.627C10.3288 30.6372 10.3813 30.6654 10.4205 30.7281C10.3759 30.7821 10.3132 30.8213 10.2458 30.8112C10.1784 30.801 10.1243 30.7563 10.0867 30.7101ZM10.2443 31.1435C10.238 31.0776 10.2646 31.0087 10.3109 30.971C10.3571 30.9334 10.4378 30.9091 10.4887 30.9208C10.495 30.9867 10.4848 31.0541 10.4222 31.0933C10.3775 31.1474 10.3132 31.1701 10.2443 31.1435Z" fill="#66072F"/>
<path d="M18.188 28.2431L15.9683 30.9129L11.3171 27.0718L13.5204 24.4035L18.188 28.2431ZM15.9117 30.3204L17.5791 28.3012L13.5769 24.996L11.9096 27.0152L15.9117 30.3204Z" fill="#66072F"/>
<path d="M13.5606 24.9976L12.7269 26.0072L11.7354 25.1884L12.5691 24.1788L13.5606 24.9976ZM12.6688 25.3982L12.9517 25.0557L12.6272 24.7877L12.3443 25.1303L12.6688 25.3982Z" fill="#66072F"/>
<path fill-rule="evenodd" clip-rule="evenodd" d="M15.466 27.39L15.1458 29.0814C15.6027 29.1707 16.0549 28.8618 16.1441 28.4048C16.2318 27.9314 15.9245 27.4957 15.466 27.39ZM15.5219 28.4974C15.5595 28.5437 15.5642 28.593 15.536 28.6456C15.4866 28.6503 15.4341 28.6221 15.3965 28.5758C15.3589 28.5296 15.3542 28.4802 15.3824 28.4277C15.4317 28.423 15.4843 28.4512 15.5219 28.4974ZM15.7546 28.3257C15.7248 28.3618 15.6606 28.3845 15.6096 28.3728C15.5587 28.3611 15.5062 28.3328 15.485 28.285C15.5148 28.249 15.579 28.2262 15.63 28.238C15.6794 28.2333 15.7334 28.2779 15.7546 28.3257ZM15.5994 28.0914C15.5532 28.1291 15.5038 28.1338 15.4513 28.1056C15.4466 28.0562 15.4748 28.0037 15.521 27.9661C15.5672 27.9284 15.6166 27.9237 15.6691 27.9519C15.6738 28.0013 15.6456 28.0538 15.5994 28.0914Z" fill="#66072F"/>
<path fill-rule="evenodd" clip-rule="evenodd" d="M13.5168 26.6293C13.219 26.9899 13.2724 27.5495 13.633 27.8473C13.9935 28.145 14.5531 28.0916 14.8508 27.7311C15.1485 27.3705 15.0951 26.8109 14.7346 26.5131C14.3576 26.2169 13.8145 26.2688 13.5168 26.6293ZM14.1414 27.0846C14.1117 27.1206 14.0787 27.1238 14.0427 27.094C14.0066 27.0642 14.0035 27.0313 14.0333 26.9952C14.063 26.9592 14.096 26.956 14.132 26.9858C14.1681 27.0156 14.1712 27.0485 14.1414 27.0846ZM14.0654 26.8095C14.0293 26.7797 14.0262 26.7468 14.0559 26.7107C14.0857 26.6747 14.1186 26.6715 14.1547 26.7013C14.1907 26.7311 14.1939 26.764 14.1641 26.8001C14.1343 26.8361 14.085 26.8408 14.0654 26.8095ZM14.3953 26.9607C14.3656 26.9968 14.3326 26.9999 14.2966 26.9701C14.2605 26.9403 14.2574 26.9074 14.2872 26.8714C14.3169 26.8353 14.3499 26.8322 14.3859 26.862C14.422 26.8917 14.4251 26.9246 14.3953 26.9607Z" fill="#66072F"/>
<path d="M50.2121 29.8708L46.5171 34.309C46.2342 34.6515 45.8228 34.6908 45.4638 34.4095L44.8148 33.8735C44.6706 33.7544 44.4175 33.7121 44.2984 33.8563L43.6395 34.7828C43.3119 35.1795 42.7892 35.0965 42.4467 34.8136C42.1042 34.5307 41.9222 34.0166 42.2662 33.6184L42.2811 33.6004L43.0513 32.7962C43.1109 32.7241 43.0999 32.6088 43.0952 32.5595C43.0693 32.4623 43.0089 32.3518 42.9368 32.2922L42.2878 31.7563C42.1075 31.6074 42.008 31.4342 42.0056 31.2351C41.9883 31.0541 42.0533 30.8652 42.1873 30.7029L45.8823 26.2647C46.195 25.8861 46.6229 25.8453 47.0375 26.1877L50.1038 28.7352C50.3021 28.8989 50.4197 29.087 50.4385 29.2845C50.4409 29.4836 50.3759 29.6725 50.2121 29.8708ZM45.0992 33.5474L45.7482 34.0834C45.8564 34.1727 46.0139 34.2573 46.1926 34.041L49.8861 29.5863C49.9605 29.4962 50.0004 29.3927 49.9942 29.3269C49.9863 29.2446 49.9275 29.1506 49.8194 29.0612L46.7531 26.5138C46.4827 26.2905 46.3259 26.3885 46.2069 26.5327L42.5118 30.9709C42.4671 31.025 42.4092 31.1136 42.417 31.1959C42.4233 31.2617 42.4641 31.3409 42.5542 31.4153L43.2032 31.9513C43.3654 32.0853 43.4666 32.2749 43.5019 32.4708C43.5403 32.6997 43.4933 32.9035 43.3594 33.0657L43.3445 33.0837L42.5742 33.888C42.3972 34.1208 42.5704 34.37 42.7131 34.4726C42.8393 34.5769 43.1183 34.7163 43.2969 34.5L43.9558 33.5735C44.2551 33.2294 44.7747 33.2794 45.0992 33.5474Z" fill="#66072F"/>
<path fill-rule="evenodd" clip-rule="evenodd" d="M46.6201 31.21C46.0395 31.9131 45.2841 32.3506 44.4526 32.513C44.339 32.5404 44.2308 32.4511 44.2363 32.3343C44.2565 31.502 44.5416 30.661 45.1057 29.9594C45.6417 29.3104 46.3328 28.8957 47.0937 28.6902C47.0976 28.557 47.0952 28.3579 47.172 28.1181C47.2237 27.9636 47.2652 27.8766 47.3114 27.839C47.3812 28.0483 47.4988 28.2363 47.6791 28.3852C47.8594 28.5341 48.0843 28.6289 48.3194 28.6563C48.2912 28.7088 48.2136 28.766 48.0554 28.8476C47.8344 28.9683 47.6236 29.0216 47.4919 29.0342C47.4325 29.8038 47.1395 30.5626 46.6201 31.21ZM44.6492 31.614C44.5896 31.6861 44.6006 31.8013 44.6727 31.8609C44.7448 31.9204 44.86 31.9094 44.9196 31.8373C44.9791 31.7652 44.9681 31.65 44.896 31.5904C44.8223 31.5144 44.7071 31.5254 44.6492 31.614Z" fill="#66072F"/>
<path d="M48.916 34.9105L46.9807 37.2542C46.8004 37.1053 46.7737 36.8255 46.9226 36.6453L48.3071 34.9686C48.4544 34.7718 48.7341 34.7452 48.916 34.9105Z" fill="#66072F"/>
<path d="M35.3138 6.18082C35.3883 6.09067 35.4086 5.95586 35.3498 5.86182C35.3059 5.74976 35.2025 5.70981 35.1006 5.68631C35.1241 5.58442 35.0817 5.48881 34.9916 5.41437C34.9014 5.33993 34.7831 5.31801 34.6726 5.37838C34.5621 5.43874 34.4893 5.54534 34.5003 5.66055C34.5128 5.79222 34.458 5.91371 34.3491 5.99053L32.5892 7.38747L32.8721 7.74246L34.632 6.34552C34.7245 6.27026 34.871 6.23967 34.991 6.27806C35.1093 6.29998 35.2229 6.27253 35.3138 6.18082Z" fill="#66072F"/>
<path d="M36.1893 6.47927L32.5271 10.9143C32.2443 11.2569 31.7012 11.3087 31.339 10.9945L31.607 10.67C31.7873 10.8188 32.0522 10.8102 32.2026 10.6463L35.8648 6.21129C35.9987 6.04903 35.9736 5.7857 35.7753 5.62193L36.0433 5.29741C36.4038 5.59517 36.4705 6.12027 36.1893 6.47927Z" fill="#66072F"/>
<path d="M33.831 6.30569C32.5715 5.81137 31.23 6.37119 30.3054 7.47252C29.8439 8.03141 29.2735 8.66712 29.87 9.17488L30.7534 9.90439C30.9697 10.0831 31.2275 10.1747 31.494 10.1825C31.8263 10.184 32.1429 10.0209 32.4257 9.67839L34.2568 7.46085C34.5396 7.11831 34.1249 6.42712 33.831 6.30569Z" fill="#66072F"/>
<path d="M30.8174 33.8971L30.2666 34.5642L29.5455 33.9687C29.4734 33.9091 29.4475 33.8119 29.4725 33.7265L29.6448 33.0955C29.655 33.0281 29.7357 33.0038 29.7898 33.0485L30.8174 33.8971Z" fill="#66072F"/>
<path d="M34.4792 36.0721L33.0948 37.7488L31.0937 36.0962L31.3765 35.7537L30.1326 34.7264L30.9663 33.7168L32.2102 34.7441L32.493 34.4015L34.4792 36.0721ZM33.0366 37.1398L33.8703 36.1302L32.5363 35.0285L32.2534 35.3711L31.0095 34.3438L30.7266 34.6863L31.9706 35.7136L31.6877 36.0562L33.0366 37.1398Z" fill="#66072F"/>
<path d="M32.261 34.6584L31.261 35.8695L31.5924 36.1432L32.5924 34.9321L32.261 34.6584Z" fill="#66072F"/>
<path d="M36.3234 33.8201C35.6238 34.6674 34.6387 34.9607 34.0799 34.4992C33.521 34.0377 33.6227 33.0149 34.3224 32.1675C35.022 31.3202 36.0071 31.0269 36.5659 31.4884C37.1248 31.9499 37.0231 32.9728 36.3234 33.8201ZM34.6633 32.4339C34.1423 33.065 34.0022 33.8589 34.3627 34.1567C34.7233 34.4544 35.4763 34.1667 35.9974 33.5357C36.5184 32.9046 36.6585 32.1107 36.298 31.8129C35.9374 31.5152 35.1844 31.8029 34.6633 32.4339Z" fill="#66072F"/>
<path d="M35.6563 33.2693C35.9541 32.9087 36.0692 32.5489 36.0817 32.3318C36.0856 32.1986 35.9594 32.0944 35.8293 32.1234C35.6185 32.1767 35.287 32.3578 34.9893 32.7184C34.6916 33.079 34.5764 33.4387 34.5639 33.6558C34.56 33.7891 34.6862 33.8933 34.8163 33.8643C35.0271 33.8109 35.3602 33.6463 35.6563 33.2693Z" fill="#66072F"/>
<path d="M34.6633 32.434C33.9786 33.2633 32.7443 33.3811 31.915 32.6962C31.0857 32.0114 30.9679 30.777 31.6527 29.9477C32.3375 29.1183 33.5718 29.0006 34.4011 29.6854C35.2304 30.3703 35.3481 31.6046 34.6633 32.434ZM31.9952 30.2305C31.4593 30.8796 31.5504 31.8341 32.1994 32.3701C32.8484 32.9061 33.8029 32.815 34.3388 32.166C34.8748 31.5169 34.7837 30.5623 34.1347 30.0264C33.4857 29.4904 32.5147 29.5831 31.9952 30.2305Z" fill="#66072F"/>
<path d="M53.3108 13.2659L52.1348 14.6901L51.2695 13.9755L46.5315 11.1392C46.4445 11.0977 46.3857 11.0036 46.3763 10.9049C46.3504 10.8077 46.3904 10.7042 46.4499 10.6321L47.3729 9.51435L48.2661 8.43263C48.3257 8.36051 48.4212 8.31818 48.52 8.30875C48.6203 8.31579 48.7073 8.35731 48.781 8.43332L52.462 12.5497L53.3108 13.2659ZM52.0751 14.0647L52.7003 13.3075L52.1431 12.8625L48.5177 8.80721L47.6692 9.83485L46.8504 10.8264L51.5178 13.6197L52.0751 14.0647ZM48.4441 8.7312C48.4605 8.72963 48.4605 8.72963 48.4441 8.7312V8.7312Z" fill="#66072F"/>
<path d="M51.0911 15.9357L49.7215 17.5943C49.6471 17.6845 49.5154 17.697 49.4088 17.6242L46.6506 15.3463L46.0651 15.3025L46.1066 14.8667L46.7594 14.9207C46.8088 14.916 46.8448 14.9458 46.8809 14.9755L49.531 17.1641L50.6326 15.83L48.0005 13.6563C47.9645 13.6265 47.9433 13.5787 47.9222 13.5309L47.7818 12.9298L48.2049 12.8396L48.3226 13.3765L51.0628 15.6394C51.1514 15.6974 51.1639 15.8291 51.0911 15.9357Z" fill="#66072F"/>
<path d="M49.875 16.4171L47.0095 14.5813C46.8159 14.4669 46.2069 14.1763 45.8033 14.2978C45.7391 14.3205 45.6717 14.3104 45.6176 14.2657L44.2875 13.3795L44.5194 13.0252L45.7774 13.8519C46.4294 13.7232 47.2053 14.1972 47.2398 14.2106L50.1053 16.0464L49.875 16.4171Z" fill="#66072F"/>
<path d="M45.5532 13.9397L45.858 13.4788C45.8877 13.4427 45.8666 13.3949 45.8305 13.3651C45.8125 13.3503 45.7796 13.3534 45.7467 13.3565C45.7435 13.3236 45.7419 13.3072 45.7075 13.2938C45.6894 13.279 45.6565 13.2821 45.6236 13.2852C45.6205 13.2523 45.6189 13.2359 45.5844 13.2225C45.5664 13.2077 45.5335 13.2108 45.5005 13.2139C45.4974 13.181 45.4958 13.1646 45.4613 13.1512C45.4433 13.1364 45.4104 13.1395 45.3775 13.1426C45.3743 13.1097 45.3728 13.0933 45.3383 13.0799C45.3203 13.0651 45.2874 13.0682 45.2544 13.0713C45.2513 13.0384 45.2497 13.022 45.2152 13.0086C45.1972 12.9938 45.1643 12.9969 45.1314 13C45.1282 12.9671 45.1267 12.9507 45.0922 12.9374C45.0742 12.9225 45.0412 12.9256 45.0083 12.9287C45.0052 12.8958 45.0036 12.8794 44.9691 12.8661C44.9511 12.8512 44.9182 12.8543 44.8853 12.8574C44.8821 12.8245 44.8806 12.8081 44.8461 12.7948C44.828 12.7799 44.7951 12.783 44.7622 12.7861C44.7591 12.7532 44.7575 12.7368 44.723 12.7235C44.687 12.6937 44.6392 12.7148 44.6094 12.7509L44.3046 13.2118" fill="#66072F"/>
<path d="M51.0911 15.9357L49.7215 17.5943C49.6471 17.6845 49.5154 17.697 49.4088 17.6242L46.6506 15.3463L46.0651 15.3025L46.1066 14.8667L46.7594 14.9207C46.8088 14.916 46.8448 14.9458 46.8809 14.9755L49.531 17.1641L50.6326 15.83L48.0005 13.6563C47.9645 13.6265 47.9433 13.5787 47.9222 13.5309L47.7818 12.9298L48.2049 12.8396L48.3226 13.3765L51.0628 15.6394C51.1514 15.6974 51.1639 15.8291 51.0911 15.9357Z" fill="#66072F"/>
<path d="M47.9555 19.623C47.9391 19.6245 47.9391 19.6245 47.9555 19.623C47.7604 19.8409 47.5002 19.8989 47.2573 19.7892L46.3019 19.3489C46.2674 19.3356 46.2376 19.3717 46.2212 19.3732C46.2063 19.3913 46.1914 19.4093 46.2126 19.4571L46.8256 20.3121C46.9792 20.5299 46.973 20.8128 46.8108 21.0276C46.6486 21.2424 46.3736 21.3185 46.1322 21.2252L45.7183 21.0654C45.495 20.9871 45.2881 20.9072 45.0647 20.8289C44.9957 20.8022 44.9268 20.7756 44.8578 20.7489C44.393 20.5774 43.9283 20.4058 43.4706 20.1339C43.1884 19.9616 42.9227 19.7876 42.733 19.54C42.4516 19.2015 42.3864 18.6928 42.5415 18.2296C42.7115 17.7484 43.119 17.4936 43.4951 17.2584C43.5264 17.2388 43.5578 17.2192 43.5891 17.1996C43.6306 17.1126 43.6573 17.0436 43.6972 16.9402C43.7372 16.8367 43.7771 16.7332 43.8335 16.6282C43.8899 16.5232 43.9315 16.4362 43.991 16.3641C44.1979 16.0952 44.4948 15.9008 44.8177 15.8035C45.1735 15.7032 45.599 15.812 45.9745 16.0918C46.4401 16.4459 46.785 16.9279 47.1001 17.4459C47.2945 17.7429 47.474 18.0579 47.6504 18.34C47.7696 18.5446 47.8872 18.7326 48.0063 18.9372C48.1271 19.1582 48.1193 19.4246 47.9555 19.623ZM45.8802 19.1068C46.0142 18.9446 46.2234 18.8748 46.4123 18.9398C46.4288 18.9382 46.4303 18.9547 46.4468 18.9531L47.4351 19.3903C47.5386 19.4302 47.5997 19.3746 47.631 19.355C47.6459 19.3369 47.7055 19.2648 47.6467 19.1708C47.5275 18.9663 47.4099 18.7782 47.2908 18.5736C47.1128 18.2751 46.9348 17.9765 46.7404 17.6795C46.4269 17.1779 46.1196 16.7422 45.7097 16.4492C45.4965 16.3034 45.183 16.1507 44.9244 16.2252C44.6987 16.2965 44.4793 16.4337 44.3155 16.632C44.2708 16.6861 44.2426 16.7386 44.2011 16.8256C44.1596 16.9126 44.1181 16.9996 44.0781 17.1031C44.0398 17.223 43.9834 17.3281 43.9285 17.4495C43.9152 17.484 43.8854 17.5201 43.8541 17.5397C43.8079 17.5773 43.7601 17.5985 43.6974 17.6377C43.369 17.8517 43.0556 18.0477 42.9209 18.3761C42.801 18.6865 42.852 19.047 43.0386 19.2617C43.1891 19.4467 43.4203 19.6073 43.6664 19.7499C44.0716 19.9936 44.5035 20.1683 44.9682 20.3398C45.0372 20.3664 45.1062 20.3931 45.1751 20.4197C45.3985 20.4981 45.6054 20.578 45.8303 20.6728L46.2442 20.8326C46.3476 20.8725 46.4072 20.8004 46.4221 20.7824C46.4369 20.7643 46.4949 20.6758 46.4197 20.5833L45.8035 19.6954C45.802 19.679 45.7855 19.6805 45.7839 19.6641C45.7157 19.4713 45.7462 19.2691 45.8802 19.1068Z" fill="#66072F"/>
<path d="M44.7026 16.8608L45.0067 16.9149C45.0921 16.9399 45.1909 16.9305 45.27 16.8897L45.5584 16.7792L45.5044 17.0833C45.4793 17.1687 45.4887 17.2675 45.5295 17.3466L45.6401 17.635L45.336 17.581C45.2506 17.5559 45.1518 17.5653 45.0727 17.6061L44.7843 17.7167L44.8383 17.4126C44.8634 17.3271 44.854 17.2284 44.8132 17.1492L44.7026 16.8608Z" fill="#66072F"/>
<path d="M45.0642 18.0387L45.217 18.074C45.268 18.0857 45.3009 18.0826 45.3487 18.0614L45.4921 17.9979L45.4569 18.1507C45.4451 18.2017 45.4483 18.2346 45.4694 18.2824L45.5329 18.4258L45.3801 18.3906C45.3292 18.3788 45.2962 18.382 45.2484 18.4031L45.105 18.4666L45.1403 18.3138C45.152 18.2629 45.1489 18.2299 45.1277 18.1821L45.0642 18.0387Z" fill="#66072F"/>
<path d="M51.4016 12.7505L48.5374 9.53609L48.0477 10.1475L47.5862 10.7064L51.2841 12.9112L51.4016 12.7505Z" fill="#66072F"/>
<path d="M37.968 28.4317L37.3427 29.1889L37.0002 28.906C36.874 28.8018 36.7212 28.7665 36.6225 28.776C36.4218 28.7619 36.2478 28.6788 36.102 28.5433C35.8449 28.2855 35.7876 27.8591 35.9914 27.5573C36.1222 27.3622 36.3103 27.2446 36.5391 27.2061C36.7679 27.1677 36.9897 27.2296 37.1535 27.38C37.2978 27.4991 37.3793 27.6574 37.4279 27.8189C37.4569 27.949 37.5338 28.0579 37.6419 28.1472L37.968 28.4317Z" fill="#66072F"/>
<path d="M39.3141 30.1799C39.1354 30.3963 38.8831 30.5366 38.6033 30.5633C38.2248 30.5994 37.8408 30.4036 37.6565 30.0391L37.5358 29.8182L37.9151 29.6159L38.0358 29.8369C38.1549 30.0414 38.365 30.1542 38.5625 30.1354C38.7271 30.1197 38.8853 30.0382 38.9896 29.912C39.0938 29.7858 39.1439 29.6149 39.1282 29.4503C39.1078 29.2363 38.9573 29.0514 38.7355 28.9895L38.4956 28.9128L38.6225 28.5021L38.8623 28.5788C39.2401 28.7089 39.52 29.0309 39.5561 29.4095C39.5828 29.6893 39.5092 29.962 39.3141 30.1799Z" fill="#66072F"/>
<path d="M38.9542 27.9075L37.0173 30.2532L37.3488 30.5269L39.2856 28.1812L38.9542 27.9075Z" fill="#66072F"/>
<path d="M44.4233 24.029L43.6343 24.9845C43.277 25.4172 42.4032 25.1352 42.0606 24.8523L39.7531 22.9467C39.3745 22.634 39.3195 22.058 39.6306 21.6629L40.4196 20.7074C40.7322 20.3288 41.3082 20.2738 41.7033 20.5849L44.0108 22.4906C44.3384 22.7915 44.7806 23.5963 44.4233 24.029ZM39.9567 21.9474C39.7929 22.1457 39.8212 22.4419 40.0195 22.6057L42.327 24.5114C42.5974 24.7347 43.1727 24.8459 43.2918 24.7016L44.0808 23.7461C44.1999 23.6019 43.9819 23.058 43.7115 22.8347L41.404 20.929C41.2057 20.7653 40.9094 20.7935 40.7457 20.9919L39.9567 21.9474Z" fill="#66072F"/>
<path d="M41.9521 27.0218L41.1929 27.9412C40.8802 28.3198 40.3042 28.3748 39.9092 28.0637L37.7639 26.292C37.1149 25.7561 37.0238 24.8015 37.5597 24.1525C38.0957 23.5034 39.0502 23.4124 39.6992 23.9483L41.7904 25.6753C42.2364 25.9981 42.2945 26.6071 41.9521 27.0218ZM37.9172 24.4173C37.5301 24.8861 37.5961 25.5773 38.0632 25.9479L40.2085 27.7196C40.4068 27.8834 40.703 27.8551 40.8668 27.6568L41.626 26.7373C41.8047 26.521 41.7732 26.1918 41.5553 25.9967L39.4477 24.2713C38.9954 23.8826 38.3042 23.9486 37.9172 24.4173Z" fill="#66072F"/>
<path d="M40.5608 20.7936L40.2779 21.1361L39.8256 20.7475L39.5428 21.09L40.0115 21.4771L39.7271 21.8032L38.9339 21.1481L39.7675 20.1385L40.5608 20.7936Z" fill="#66072F"/>
<path d="M39.0012 20.087L38.7275 20.4185L39.3649 20.9448L39.6386 20.6134L39.0012 20.087Z" fill="#66072F"/>
<path d="M38.5052 21.3551L38.2207 21.6812L37.716 21.2643L38.9947 19.6974L39.3372 19.9803L38.3249 21.2062L38.5052 21.3551Z" fill="#66072F"/>
<path d="M38.226 23.8232L37.958 24.1477L37.3991 23.6861L37.1163 24.0287L37.6751 24.4902L37.3923 24.8328L36.5074 24.0868L37.341 23.0772L38.226 23.8232Z" fill="#66072F"/>
<path d="M42.5454 22.4477C42.8158 22.6711 42.8551 23.0825 42.6334 23.3694C42.4101 23.6398 41.9986 23.6791 41.7117 23.4574C41.207 23.0405 41.0649 22.0742 41.0649 22.0742C41.0649 22.0742 42.0571 22.0293 42.5454 22.4477Z" fill="#66072F"/>
<path d="M40.0522 25.9076C40.2325 26.0565 40.2592 26.3363 40.1103 26.5166C39.9615 26.6969 39.6817 26.7236 39.5014 26.5747C39.3211 26.4258 39.2944 26.146 39.4433 25.9657C39.5922 25.7854 39.872 25.7587 40.0522 25.9076Z" fill="#66072F"/>
<path d="M39.8665 25.178C39.9747 25.2673 39.9904 25.4319 39.9011 25.5401C39.8118 25.6482 39.6472 25.6639 39.539 25.5746C39.4308 25.4853 39.4151 25.3207 39.5045 25.2125C39.5938 25.1044 39.7584 25.0887 39.8665 25.178Z" fill="#66072F"/>
<path d="M40.2825 25.5369C40.3366 25.5815 40.3428 25.6473 40.2966 25.6849C40.252 25.7389 40.1862 25.7452 40.1486 25.699C40.0946 25.6544 40.0883 25.5886 40.1345 25.551C40.1627 25.4985 40.2285 25.4922 40.2825 25.5369Z" fill="#66072F"/>
<path d="M39.375 24.02L37.7539 25.9832L38.0853 26.2569L39.7064 24.2937L39.375 24.02Z" fill="#66072F"/>
<path d="M41.376 25.6719L39.7549 27.6351L40.0863 27.9088L41.7074 25.9456L41.376 25.6719Z" fill="#66072F"/>
<path d="M51.5314 1.57743C50.8466 2.40675 49.6123 2.52453 48.783 1.83968L46.4575 -0.0808695C45.6282 -0.765718 45.5104 -2.00009 46.1952 -2.82941C46.88 -3.65873 48.1143 -3.77651 48.9436 -3.09166L49.3582 -2.74924L51.2691 -1.17111C52.1 -0.469801 52.2162 0.748114 51.5314 1.57743ZM46.5213 -2.54497C45.9853 -1.89594 46.0764 -0.941352 46.7254 -0.405384L47.1401 -0.0629616L49.051 1.51517C49.7 2.05114 50.6545 1.96006 51.1904 1.31102C51.7264 0.661989 51.6353 -0.292596 50.9863 -0.828564L49.0753 -2.40669L48.6607 -2.74912C48.0117 -3.28508 47.0572 -3.194 46.5213 -2.54497Z" fill="#66072F"/>
<path fill-rule="evenodd" clip-rule="evenodd" d="M19.8006 23.7377L19.7825 23.7229C19.4251 23.458 18.8381 23.3978 18.6595 23.6141C18.4808 23.8305 18.6346 24.3971 18.9786 24.6964L18.9967 24.7113C19.3392 24.9942 19.7373 24.9894 19.9755 24.7009C20.1988 24.4305 20.1447 24.0371 19.8006 23.7377Z" fill="#66072F"/>
<path fill-rule="evenodd" clip-rule="evenodd" d="M20.8726 22.4397L20.8546 22.4248C20.4971 22.16 19.9101 22.0997 19.7315 22.3161C19.5529 22.5324 19.7066 23.099 20.0507 23.3984L20.0687 23.4133C20.4112 23.6961 20.8093 23.6914 21.0475 23.4029C21.2857 23.1144 21.2316 22.721 20.8726 22.4397Z" fill="#66072F"/>
<path fill-rule="evenodd" clip-rule="evenodd" d="M21.9593 21.1236L21.9412 21.1087C21.5838 20.8439 20.9968 20.7836 20.8182 21C20.6395 21.2163 20.7932 21.7829 21.1373 22.0823L21.1554 22.0972C21.4979 22.38 21.896 22.3753 22.1342 22.0868C22.3724 21.7983 22.3182 21.4049 21.9593 21.1236Z" fill="#66072F"/>
<path fill-rule="evenodd" clip-rule="evenodd" d="M23.0459 19.8075L23.0279 19.7926C22.6705 19.5278 22.0835 19.4675 21.9048 19.6839C21.7262 19.9002 21.8799 20.4668 22.224 20.7662L22.242 20.7811C22.5846 21.0639 22.9827 21.0592 23.2209 20.7707C23.4591 20.4822 23.3884 20.0904 23.0459 19.8075Z" fill="#66072F"/>
<path fill-rule="evenodd" clip-rule="evenodd" d="M19.0042 22.0035L18.9861 21.9886C18.6287 21.7237 18.0417 21.6635 17.8631 21.8798C17.6845 22.0962 17.8382 22.6628 18.1823 22.9621L18.2003 22.977C18.5428 23.2599 18.9409 23.2551 19.1791 22.9666C19.4173 22.6782 19.3632 22.2848 19.0042 22.0035Z" fill="#66072F"/>
<path fill-rule="evenodd" clip-rule="evenodd" d="M20.0908 20.6874L20.0728 20.6725C19.7154 20.4077 19.1284 20.3474 18.9498 20.5638C18.7711 20.7801 18.9248 21.3467 19.2689 21.6461L19.287 21.6609C19.6295 21.9438 20.0276 21.939 20.2658 21.6506C20.504 21.3621 20.4498 20.9687 20.0908 20.6874Z" fill="#66072F"/>
<path fill-rule="evenodd" clip-rule="evenodd" d="M21.1775 19.3713L21.1595 19.3564C20.8021 19.0916 20.2151 19.0313 20.0364 19.2477C19.8578 19.464 20.0115 20.0306 20.3556 20.3299L20.3736 20.3448C20.7162 20.6277 21.1143 20.6229 21.3525 20.3345C21.5906 20.046 21.5381 19.669 21.1775 19.3713Z" fill="#66072F"/>
<path d="M23.9059 21.3364C23.6975 21.5889 23.4483 21.7621 23.1568 21.8397C23.1357 22.1407 23.0127 22.4182 22.8192 22.6525L22.8043 22.6706C22.6108 22.9049 22.3616 23.0782 22.0701 23.1558C22.049 23.4568 21.926 23.7343 21.7325 23.9686L21.7176 23.9867C21.524 24.221 21.2749 24.3943 20.9833 24.4719C20.9622 24.7729 20.8393 25.0504 20.6457 25.2847L20.6308 25.3028C20.348 25.6453 19.9507 25.8327 19.5032 25.8422L19.4953 25.4111C19.8095 25.3977 20.0964 25.2707 20.2883 25.0199L20.3032 25.0019C20.4669 24.8035 20.5586 24.5457 20.5515 24.2972L20.5507 24.1146L20.7301 24.0809C20.9919 24.0393 21.2113 23.9021 21.375 23.7038L21.3899 23.6858C21.5537 23.4875 21.6453 23.2296 21.6382 22.9811L21.6374 22.7985L21.8169 22.7648C22.0786 22.7232 22.2996 22.6025 22.4618 22.3877L22.4767 22.3697C22.6404 22.1714 22.7321 21.9135 22.725 21.665L22.7241 21.4824L22.9036 21.4487C23.1653 21.4071 23.3848 21.2699 23.5485 21.0716L23.5634 21.0536C23.7718 20.8012 23.8423 20.4955 23.7976 20.2008L24.2223 20.1271C24.3141 20.5667 24.1888 20.9939 23.9059 21.3364Z" fill="#66072F"/>
<path fill-rule="evenodd" clip-rule="evenodd" d="M18.7139 25.0539L18.6959 25.039C18.3385 24.7741 17.7515 24.7139 17.5728 24.9302C17.3942 25.1466 17.5479 25.7132 17.892 26.0125L17.91 26.0274C18.2525 26.3103 18.6507 26.3055 18.8888 26.0171C19.127 25.7286 19.058 25.3532 18.7139 25.0539Z" fill="#66072F"/>
<path fill-rule="evenodd" clip-rule="evenodd" d="M19.8006 23.7377L19.7825 23.7229C19.4251 23.458 18.8381 23.3978 18.6595 23.6141C18.4808 23.8305 18.6346 24.3971 18.9786 24.6964L18.9967 24.7113C19.3392 24.9942 19.7373 24.9894 19.9755 24.7009C20.2153 24.4289 20.1447 24.0371 19.8006 23.7377Z" fill="#66072F"/>
<path fill-rule="evenodd" clip-rule="evenodd" d="M20.8726 22.4397L20.8546 22.4248C20.4971 22.16 19.9101 22.0997 19.7315 22.3161C19.5529 22.5324 19.7066 23.099 20.0507 23.3984L20.0687 23.4133C20.4112 23.6961 20.8093 23.6914 21.0475 23.4029C21.2857 23.1144 21.2316 22.721 20.8726 22.4397Z" fill="#66072F"/>
<path fill-rule="evenodd" clip-rule="evenodd" d="M21.9593 21.1236L21.9412 21.1087C21.5838 20.8439 20.9968 20.7836 20.8182 21C20.6395 21.2163 20.7932 21.7829 21.1373 22.0823L21.1554 22.0972C21.4979 22.38 21.896 22.3753 22.1342 22.0868C22.3724 21.7983 22.3182 21.4049 21.9593 21.1236Z" fill="#66072F"/>
<path fill-rule="evenodd" clip-rule="evenodd" d="M17.9339 23.318L17.9158 23.3031C17.5584 23.0383 16.9714 22.978 16.7928 23.1944C16.6141 23.4107 16.7679 23.9773 17.112 24.2767L17.13 24.2916C17.4725 24.5744 17.8706 24.5697 18.1088 24.2812C18.347 23.9927 18.2764 23.6009 17.9339 23.318Z" fill="#66072F"/>
<path fill-rule="evenodd" clip-rule="evenodd" d="M19.0042 22.0035L18.9861 21.9886C18.6287 21.7237 18.0417 21.6635 17.8631 21.8798C17.6845 22.0962 17.8382 22.6628 18.1823 22.9621L18.2003 22.977C18.5428 23.2599 18.9409 23.2551 19.1791 22.9666C19.4173 22.6782 19.3632 22.2848 19.0042 22.0035Z" fill="#66072F"/>
<path fill-rule="evenodd" clip-rule="evenodd" d="M20.0908 20.6874L20.0728 20.6725C19.7154 20.4077 19.1284 20.3474 18.9498 20.5638C18.7711 20.7801 18.9248 21.3467 19.2689 21.6461L19.287 21.6609C19.6295 21.9438 20.0276 21.939 20.2658 21.6506C20.504 21.3621 20.4498 20.9687 20.0908 20.6874Z" fill="#66072F"/>
<path d="M22.8356 22.651C22.6272 22.9034 22.378 23.0766 22.0865 23.1543C22.0654 23.4552 21.9424 23.7327 21.7489 23.9671L21.734 23.9851C21.5405 24.2195 21.2913 24.3927 20.9998 24.4703C20.9787 24.7713 20.8557 25.0488 20.6621 25.2831L20.6473 25.3012C20.4537 25.5355 20.2045 25.7088 19.913 25.7864C19.8919 26.0874 19.7689 26.3649 19.5754 26.5992L19.5605 26.6173C19.2777 26.9598 18.8804 27.1472 18.4329 27.1567L18.425 26.7256C18.7392 26.7122 19.026 26.5852 19.218 26.3344L19.2329 26.3164C19.3966 26.1181 19.4883 25.8602 19.4812 25.6117L19.4804 25.4291L19.6598 25.3954C19.9216 25.3538 20.141 25.2166 20.3047 25.0183L20.3196 25.0003C20.4834 24.802 20.575 24.5441 20.5679 24.2956L20.5671 24.113L20.7466 24.0793C21.0083 24.0377 21.2293 23.917 21.3915 23.7022L21.4064 23.6842C21.5701 23.4859 21.6618 23.228 21.6547 22.9796L21.6538 22.7969L21.8333 22.7632C22.095 22.7216 22.3144 22.5844 22.4782 22.3861L22.4931 22.3681C22.7015 22.1157 22.772 21.81 22.7272 21.5153L23.152 21.4416C23.2273 21.8828 23.1185 22.3084 22.8356 22.651Z" fill="#66072F"/>
<path d="M30.3981 13.4924L26.7046 17.9471C26.4217 18.2896 26.0103 18.3289 25.6513 18.0476L25.0023 17.5116C24.8581 17.3925 24.605 17.3502 24.4859 17.4945L23.8269 18.421C23.4994 18.8176 22.9767 18.7346 22.6342 18.4517C22.2917 18.1689 22.1097 17.6548 22.4537 17.2566L22.4686 17.2385L23.2388 16.4343C23.2984 16.3622 23.2874 16.247 23.2826 16.1976C23.2568 16.1004 23.1964 15.9899 23.1243 15.9303L22.4753 15.3944C22.295 15.2455 22.1955 15.0723 22.1931 14.8732C22.1758 14.6922 22.2408 14.5033 22.3748 14.341L26.0699 9.90284C26.3825 9.52424 26.8104 9.48341 27.225 9.82583L30.2913 12.3733C30.4896 12.537 30.6072 12.7251 30.626 12.9226C30.6104 13.1068 30.5454 13.2957 30.3981 13.4924ZM25.2687 17.1706L25.9177 17.7066C26.0259 17.7959 26.1834 17.8806 26.362 17.6642L30.0555 13.2095C30.13 13.1194 30.1699 13.0159 30.1636 12.9501C30.1558 12.8678 30.097 12.7738 29.9888 12.6845L26.9225 10.137C26.6521 9.91372 26.4954 10.0117 26.3763 10.1559L22.6813 14.5941C22.6366 14.6482 22.5786 14.7368 22.5865 14.8191C22.5928 14.8849 22.6335 14.9641 22.7237 15.0385L23.3727 15.5745C23.5349 15.7085 23.636 15.8981 23.6713 16.0941C23.7098 16.3229 23.6628 16.5267 23.5288 16.6889L23.5139 16.707L22.7437 17.5112C22.5666 17.744 22.7399 17.9932 22.8825 18.0959C23.0087 18.2001 23.2878 18.3395 23.4664 18.1232L24.1253 17.1967C24.4262 16.869 24.9622 16.9175 25.2687 17.1706Z" fill="#66072F"/>
<path fill-rule="evenodd" clip-rule="evenodd" d="M26.7893 14.8332C26.2087 15.5363 25.4533 15.9738 24.6218 16.1362C24.5082 16.1636 24.4 16.0743 24.4055 15.9575C24.4257 15.1252 24.7108 14.2842 25.2749 13.5826C25.8108 12.9336 26.502 12.5189 27.2629 12.3134C27.2668 12.1802 27.2644 11.9811 27.3412 11.7413C27.3929 11.5868 27.4344 11.4998 27.4806 11.4622C27.5504 11.6715 27.668 11.8595 27.8483 12.0084C28.0286 12.1573 28.2535 12.2521 28.4886 12.2795C28.4604 12.332 28.3828 12.3892 28.2245 12.4708C28.0036 12.5915 27.7928 12.6448 27.6611 12.6574C27.6017 13.427 27.3103 14.2022 26.7893 14.8332ZM24.8183 15.2372C24.7588 15.3093 24.7698 15.4245 24.8419 15.4841C24.914 15.5436 25.0292 15.5326 25.0888 15.4605C25.1483 15.3884 25.1373 15.2732 25.0652 15.2136C24.9931 15.1541 24.8779 15.1651 24.8183 15.2372Z" fill="#66072F"/>
<path fill-rule="evenodd" clip-rule="evenodd" d="M35.3126 0.600537C35.6912 0.913186 35.743 1.45631 35.4288 1.81846C35.1162 2.19706 34.5715 2.23242 34.211 1.93466C33.8324 1.62201 33.7806 1.07889 34.0948 0.716742C34.409 0.354597 34.952 0.302775 35.3126 0.600537Z" fill="#66072F"/>
<path d="M37.1043 1.97413C36.1962 3.07388 34.5505 3.23092 33.4508 2.32275L33.7188 1.99824C34.6382 2.75752 36.0042 2.62718 36.7634 1.70772C37.5226 0.788258 37.3923 -0.577785 36.4728 -1.33707L36.7408 -1.66159C37.8554 -0.771453 38.0124 0.874382 37.1043 1.97413Z" fill="#66072F"/>
<path d="M37.0596 1.67408L36.7859 2.00552L38.4175 3.35301L38.6912 3.02157L37.0596 1.67408Z" fill="#66072F"/>
<path d="M39.1307 2.23345L37.7517 3.90344L38.0831 4.17715L39.4621 2.50716L39.1307 2.23345Z" fill="#66072F"/>
<path d="M25.7183 28.3216C25.4919 28.5591 25.0953 28.5804 24.8429 28.3719C24.7168 28.2677 24.6352 28.1094 24.6195 27.9448L22.0622 27.0761C21.9587 27.0362 21.8694 27.1443 21.9282 27.2384L22.4683 28.1999C22.4832 28.1819 22.4965 28.1474 22.5114 28.1294C22.6603 27.9491 22.9401 27.9224 23.1203 28.0713C23.3006 28.2202 23.3273 28.5 23.1784 28.6802C23.0891 28.7884 22.9606 28.8339 22.8274 28.83L23.2664 29.6019L23.645 30.2633C23.6701 30.1779 23.71 30.0744 23.7696 30.0023C23.9929 29.7319 24.4043 29.6926 24.6912 29.9144C24.9616 30.1377 25.0009 30.5492 24.7791 30.836C24.6005 31.0524 24.3239 31.112 24.0856 31.0517L24.2259 31.304C24.4839 31.7445 25.1038 31.8016 25.4313 31.4049L26.1161 30.5756L26.8009 29.7463C27.1284 29.3497 26.9551 28.7517 26.4739 28.5817L25.7183 28.3216ZM23.829 29.2327C23.6487 29.0838 23.622 28.804 23.7709 28.6237C23.9198 28.4434 24.1995 28.4167 24.3798 28.5656C24.5601 28.7145 24.5868 28.9943 24.4379 29.1746C24.2891 29.3549 24.0257 29.38 23.829 29.2327ZM26.0729 29.9486C25.924 30.1289 25.6442 30.1556 25.4639 30.0067C25.2837 29.8578 25.257 29.5781 25.4058 29.3978C25.5547 29.2175 25.8345 29.1908 26.0147 29.3397C26.195 29.4885 26.2202 29.7519 26.0729 29.9486Z" fill="#66072F"/>
<path d="M28.3086 25.1847C28.1598 25.3649 27.88 25.3916 27.6997 25.2428C27.5194 25.0939 27.4927 24.8141 27.6416 24.6338C27.6863 24.5797 27.7638 24.5225 27.8281 24.4998L25.432 22.5361L24.8812 23.2032C25.0614 23.3521 25.0881 23.6318 24.9393 23.8121C24.7904 23.9924 24.5106 24.0191 24.3304 23.8702L23.7795 24.5373L24.1401 24.8351C24.3595 24.6979 24.6604 24.719 24.8768 24.8976C25.0931 25.0763 25.1708 25.3678 25.0775 25.6092L26.4837 26.7705C26.5103 26.7015 26.5534 26.631 26.5965 26.5604C26.8198 26.29 27.2312 26.2507 27.5017 26.4741C27.7721 26.6974 27.8113 27.1088 27.588 27.3793C27.5434 27.4333 27.4822 27.489 27.4031 27.5298L28.1242 28.1253L28.4071 27.7827C28.2268 27.6339 28.2001 27.3541 28.349 27.1738C28.4978 26.9935 28.7776 26.9668 28.9579 27.1157L29.7766 26.1241L28.3885 24.9777C28.3799 25.0616 28.3533 25.1306 28.3086 25.1847ZM25.8431 25.1044C25.5727 24.881 25.5334 24.4696 25.7567 24.1992C25.98 23.9287 26.3915 23.8895 26.6619 24.1128C26.9323 24.3361 26.9716 24.7476 26.7483 25.018C26.525 25.2884 26.1135 25.3277 25.8431 25.1044ZM28.9013 26.5232C28.7525 26.7035 28.4727 26.7302 28.2924 26.5813C28.1121 26.4324 28.0854 26.1526 28.2343 25.9723C28.3832 25.792 28.663 25.7653 28.8432 25.9142C29.0235 26.0631 29.0486 26.3264 28.9013 26.5232Z" fill="#66072F"/>
<path d="M30.2388 26.6975L25.6177 32.2939L25.9491 32.5677L30.5702 26.9712L30.2388 26.6975Z" fill="#66072F"/>
<path fill-rule="evenodd" clip-rule="evenodd" d="M33.2986 17.0854C33.2241 17.1755 33.2367 17.3072 33.3268 17.3816C33.417 17.4561 33.5486 17.4435 33.6231 17.3533C33.6975 17.2632 33.6849 17.1315 33.5948 17.0571C33.5047 16.9827 33.373 16.9952 33.2986 17.0854Z" fill="#66072F"/>
<path fill-rule="evenodd" clip-rule="evenodd" d="M32.9858 17.464C32.9114 17.5541 32.9239 17.6858 33.0141 17.7602C33.1042 17.8347 33.2359 17.8221 33.3103 17.732C33.3848 17.6418 33.3722 17.5101 33.2821 17.4357C33.1919 17.3613 33.0603 17.3738 32.9858 17.464Z" fill="#66072F"/>
<path fill-rule="evenodd" clip-rule="evenodd" d="M32.6733 17.8426C32.5989 17.9327 32.6114 18.0644 32.7016 18.1388C32.7917 18.2133 32.9234 18.2007 32.9978 18.1106C33.0722 18.0204 33.0597 17.8887 32.9695 17.8143C32.8794 17.7399 32.7477 17.7524 32.6733 17.8426Z" fill="#66072F"/>
<path fill-rule="evenodd" clip-rule="evenodd" d="M32.3606 18.2212C32.2861 18.3113 32.2987 18.443 32.3888 18.5174C32.479 18.5919 32.6106 18.5793 32.6851 18.4892C32.7595 18.399 32.7469 18.2674 32.6568 18.1929C32.5667 18.1185 32.435 18.131 32.3606 18.2212Z" fill="#66072F"/>
<path fill-rule="evenodd" clip-rule="evenodd" d="M32.7351 16.9232C32.6607 17.0134 32.6732 17.145 32.7634 17.2195C32.8535 17.2939 32.9851 17.2814 33.0596 17.1912C33.134 17.1011 33.1214 16.9694 33.0313 16.895C32.9412 16.8205 32.8095 16.8331 32.7351 16.9232Z" fill="#66072F"/>
<path fill-rule="evenodd" clip-rule="evenodd" d="M32.406 17.3034C32.3315 17.3936 32.3441 17.5252 32.4343 17.5997C32.5244 17.6741 32.6561 17.6615 32.7305 17.5714C32.8049 17.4813 32.7924 17.3496 32.7022 17.2752C32.6285 17.1991 32.4804 17.2133 32.406 17.3034Z" fill="#66072F"/>
<path fill-rule="evenodd" clip-rule="evenodd" d="M32.0949 17.6985C32.0205 17.7886 32.033 17.9203 32.1232 17.9947C32.2133 18.0692 32.345 18.0566 32.4194 17.9665C32.4938 17.8763 32.4813 17.7447 32.3911 17.6702C32.2994 17.5793 32.1678 17.5919 32.0949 17.6985Z" fill="#66072F"/>
<path fill-rule="evenodd" clip-rule="evenodd" d="M32.4692 16.4005C32.3948 16.4907 32.4073 16.6223 32.4975 16.6968C32.5876 16.7712 32.7193 16.7587 32.7937 16.6685C32.8682 16.5784 32.8556 16.4467 32.7655 16.3723C32.6753 16.2978 32.5437 16.3104 32.4692 16.4005Z" fill="#66072F"/>
<path fill-rule="evenodd" clip-rule="evenodd" d="M32.1565 16.7791C32.082 16.8693 32.0946 17.0009 32.1847 17.0754C32.2749 17.1498 32.4065 17.1373 32.481 17.0471C32.5554 16.957 32.5428 16.8253 32.4527 16.7509C32.3626 16.6764 32.2309 16.689 32.1565 16.7791Z" fill="#66072F"/>
<path fill-rule="evenodd" clip-rule="evenodd" d="M31.844 17.1577C31.7695 17.2479 31.7821 17.3795 31.8722 17.454C31.9624 17.5284 32.094 17.5159 32.1685 17.4257C32.2429 17.3356 32.2303 17.2039 32.1402 17.1295C32.0501 17.055 31.9184 17.0676 31.844 17.1577Z" fill="#66072F"/>
<path fill-rule="evenodd" clip-rule="evenodd" d="M31.5315 17.5363C31.457 17.6265 31.4696 17.7581 31.5597 17.8326C31.6499 17.907 31.7815 17.8945 31.856 17.8043C31.9304 17.7142 31.9178 17.5825 31.8277 17.5081C31.7375 17.4336 31.6059 17.4462 31.5315 17.5363Z" fill="#66072F"/>
<path fill-rule="evenodd" clip-rule="evenodd" d="M31.9057 16.2384C31.8313 16.3285 31.8439 16.4602 31.934 16.5346C32.0241 16.6091 32.1558 16.5965 32.2302 16.5064C32.3047 16.4162 32.2921 16.2846 32.202 16.2101C32.1118 16.1357 31.9802 16.1482 31.9057 16.2384Z" fill="#66072F"/>
<path fill-rule="evenodd" clip-rule="evenodd" d="M31.5766 16.6186C31.5022 16.7087 31.5148 16.8404 31.6049 16.9148C31.695 16.9893 31.8267 16.9767 31.9011 16.8866C31.9756 16.7964 31.963 16.6647 31.8729 16.5903C31.7992 16.5143 31.6511 16.5284 31.5766 16.6186Z" fill="#66072F"/>
<path fill-rule="evenodd" clip-rule="evenodd" d="M31.2656 17.0136C31.1912 17.1038 31.2037 17.2354 31.2939 17.3099C31.384 17.3843 31.5157 17.3718 31.5901 17.2816C31.6645 17.1915 31.652 17.0598 31.5618 16.9854C31.4882 16.9093 31.34 16.9235 31.2656 17.0136Z" fill="#66072F"/>
<path d="M29.1021 18.5321L27.1668 20.8758C26.9865 20.727 26.9598 20.4472 27.1087 20.2669L28.4931 18.5902C28.6255 18.4115 28.9053 18.3848 29.1021 18.5321Z" fill="#66072F"/>
<path d="M34.3816 22.3465L31.8956 25.3573L29.2996 23.2134C28.9751 22.9454 28.725 22.5873 28.587 22.1852C28.4733 21.8639 28.2805 21.5834 28.0281 21.3749L27.5954 21.0176L27.8634 20.6931L28.2961 21.0504C28.6206 21.3184 28.8706 21.6765 28.9906 22.0637C29.1043 22.385 29.2987 22.682 29.5691 22.9053L31.8226 24.7663L33.7578 22.4226L31.5044 20.5616C31.234 20.3383 30.9056 20.2035 30.5686 20.1526C30.1642 20.0916 29.7668 19.9302 29.4423 19.6622L29.0097 19.3049L29.2776 18.9804L29.7103 19.3377C29.9807 19.561 30.2926 19.6973 30.6116 19.7333C31.0325 19.7928 31.4298 19.9542 31.7559 20.2387L34.3816 22.3465Z" fill="#66072F"/>
<path d="M37.1523 19.0096L34.9491 21.6778L32.948 20.0253L35.1512 17.357L37.1523 19.0096ZM34.8745 21.0704L36.5269 19.0692L35.1913 17.9511L33.5389 19.9523L34.8745 21.0704Z" fill="#66072F"/>
<path d="M34.8071 17.0577L32.6039 19.7259L29.9358 17.5225L32.139 14.8543L34.8071 17.0577ZM32.5309 19.135L34.1833 17.1338L32.1642 15.4664L30.5118 17.4675L32.5309 19.135Z" fill="#66072F"/>
<path fill-rule="evenodd" clip-rule="evenodd" d="M35.1185 18.7552C35.0143 18.8814 35.1209 18.9543 35.0151 19.064C34.9258 19.1722 34.8192 19.0993 34.7314 19.224C34.6437 19.3486 34.7338 19.423 34.628 19.5328C34.5238 19.659 34.4321 19.5681 34.3444 19.6927C34.255 19.8009 34.3287 19.8769 34.2574 19.9999L34.8163 20.4615L35.9179 19.1273L35.341 18.6509C35.2783 18.6901 35.1913 18.6486 35.1185 18.7552Z" fill="#66072F"/>
<path fill-rule="evenodd" clip-rule="evenodd" d="M30.5766 20.5837C30.3235 20.5414 30.0672 20.4662 29.8258 20.373C29.7529 20.4796 29.8266 20.5556 29.7373 20.6638C29.6331 20.79 29.5414 20.6991 29.4536 20.8237C29.3494 20.9499 29.456 21.0228 29.3502 21.1325C29.2609 21.2407 29.1723 21.1827 29.0799 21.258C29.2335 21.4758 29.3543 21.6968 29.4288 21.9554C29.5017 22.1976 29.6538 22.399 29.8521 22.5628L31.763 24.1409L33.1475 22.4642L31.2365 20.8861C31.0547 20.7208 30.8282 20.6095 30.5766 20.5837ZM29.996 20.938C30.1597 20.7397 30.4395 20.713 30.6378 20.8768C30.8361 21.0406 30.8628 21.3204 30.699 21.5187C30.5353 21.717 30.2555 21.7437 30.0572 21.5799C29.8754 21.4146 29.8487 21.1348 29.996 20.938ZM30.1756 21.9506C30.3394 21.7523 30.6191 21.7256 30.8175 21.8894C31.0158 22.0531 31.0425 22.3329 30.8787 22.5312C30.7149 22.7296 30.4352 22.7562 30.2369 22.5925C30.055 22.4271 30.0283 22.1474 30.1756 21.9506ZM32.0544 23.3657C31.8906 23.564 31.6109 23.5907 31.4126 23.427C31.2143 23.2632 31.1876 22.9834 31.3513 22.7851C31.5151 22.5868 31.7948 22.5601 31.9931 22.7238C32.1899 22.8712 32.2181 23.1674 32.0544 23.3657ZM31.8849 22.2858C31.7212 22.4841 31.4414 22.5108 31.2431 22.347C31.0448 22.1832 31.0181 21.9034 31.1818 21.7051C31.3456 21.5068 31.6254 21.4801 31.8237 21.6439C32.022 21.8076 32.0322 22.089 31.8849 22.2858Z" fill="#66072F"/>
<path d="M40.2239 14.5993L38.0344 17.2509L38.3659 17.5246L40.5554 14.873L40.2239 14.5993Z" fill="#66072F"/>
<path d="M39.9687 14.24L39.7305 14.5285L39.406 14.2605L39.6442 13.972C39.7335 13.8638 39.7194 13.7157 39.6277 13.6248C39.5195 13.5355 39.373 13.5661 39.2837 13.6743L39.0901 13.9086L38.7657 13.6406L38.9592 13.4063C39.1974 13.1178 39.6237 13.0605 39.9121 13.2987C40.1661 13.5236 40.2069 13.9515 39.9687 14.24Z" fill="#66072F"/>
<path d="M39.4581 16.1985C38.8477 16.9377 37.7811 17.0727 37.078 16.492L36.3569 15.8965L36.6249 15.572L37.346 16.1675C37.8688 16.5993 38.6556 16.491 39.1171 15.9321C39.5786 15.3732 39.5197 14.5816 39.0133 14.1483L38.2922 13.5528L38.5602 13.2283L39.2813 13.8238C39.9993 14.3864 40.0684 15.4593 39.4581 16.1985Z" fill="#66072F"/>
<path d="M37.2488 15.496L37.4291 15.6449L37.4471 15.6598L37.6093 15.7938C37.9519 16.0767 38.4934 16.0084 38.7911 15.6478C39.0888 15.2872 39.0535 14.7425 38.711 14.4597L38.5487 14.3257L38.5307 14.3108L38.3504 14.1619L37.2488 15.496Z" fill="#66072F"/>
<path d="M36.439 13.0987L37.1601 13.6942C37.2141 13.7389 37.2831 13.7655 37.367 13.7741C37.4673 13.7812 37.5809 13.7537 37.7063 13.6753L36.9672 13.0649C36.7359 12.9043 36.5001 13.043 36.439 13.0987Z" fill="#66072F"/>
<path d="M36.0354 13.569L36.7565 14.1646C36.8106 14.2092 36.8796 14.2359 36.9634 14.2445C37.0638 14.2515 37.1774 14.224 37.3028 14.1456L36.5636 13.5352C36.3489 13.373 36.0981 13.5298 36.0354 13.569Z" fill="#66072F"/>
<path d="M35.6499 14.0542L36.371 14.6497C36.4251 14.6944 36.4941 14.721 36.5779 14.7296C36.6783 14.7367 36.7919 14.7092 36.9173 14.6308L36.1781 14.0204C35.9469 13.8598 35.6962 14.0166 35.6499 14.0542Z" fill="#66072F"/>
<path d="M44.7611 2.50574C44.7251 2.47597 44.6608 2.49871 44.6655 2.54808L44.585 3.26992C44.4745 3.33029 44.3671 3.42357 44.2613 3.53332C44.172 3.64149 44.1007 3.76455 44.0624 3.88447L43.3673 4.08366C43.3195 4.10483 43.3077 4.15577 43.3438 4.18555L44.3353 5.00439L44.3533 5.01928C44.804 5.39148 45.4772 5.31064 45.8642 4.84189C46.2513 4.37315 46.2034 3.69678 45.7527 3.32458L44.7611 2.50574Z" fill="#66072F"/>
<path d="M49.0155 4.62426L46.2465 7.97759C46.1721 8.06774 46.0405 8.0803 45.9339 8.00743L42.0744 4.80494C41.9858 4.74696 41.4913 4.61146 41.0837 4.51748C41.0163 4.50731 40.9442 4.44775 40.9215 4.38349C40.8987 4.31923 40.9073 4.23536 40.952 4.18128L44.2718 0.160884C44.3164 0.106798 44.3955 0.0660315 44.4629 0.0762085C44.5303 0.0863854 44.6009 0.129478 44.6252 0.210199C44.7945 0.592636 45.0211 1.05265 45.0948 1.12866L48.9708 4.32958C49.0773 4.40245 49.0899 4.53412 49.0155 4.62426ZM46.0545 7.53089L48.5405 4.5201L44.8268 1.45318C44.7187 1.36385 44.5344 0.999442 44.3894 0.697726L41.5163 4.17726C41.8564 4.26107 42.2326 4.37464 42.3407 4.46397L46.0545 7.53089Z" fill="#66072F"/>
<path fill-rule="evenodd" clip-rule="evenodd" d="M41.5818 7.8248C41.6484 8.00113 41.5654 8.17513 41.4627 8.31779L40.51 9.47162L40.3165 9.706C40.1974 9.85023 40.0406 9.94822 39.8549 9.91612C39.6692 9.88402 39.4944 9.96713 39.3949 10.1427C39.3103 10.3002 39.3456 10.4962 39.4585 10.6349C39.591 10.8049 39.7947 10.8519 39.9726 10.8017C39.957 10.9859 40.0417 11.1771 40.2337 11.2751C40.3912 11.3597 40.5887 11.3408 40.729 11.2444C40.8825 11.1135 40.9311 10.9262 40.8644 10.7498C40.7978 10.5735 40.8511 10.4356 40.9702 10.2913L41.9229 9.1375L42.1164 8.90313C42.2355 8.7589 42.4056 8.62642 42.5913 8.65852C42.7771 8.69062 42.9683 8.60595 43.0513 8.43194C43.1359 8.27439 43.1006 8.07846 42.9877 7.93976C42.8553 7.76971 42.6515 7.72272 42.4736 7.77291C42.4892 7.58873 42.4046 7.39751 42.2125 7.29957C42.055 7.21496 41.8575 7.2338 41.7173 7.33023C41.5637 7.46114 41.5167 7.66492 41.5818 7.8248Z" fill="#66072F"/>
<path d="M45.0836 9.36737L42.0467 13.0452C41.9723 13.1354 41.8406 13.1479 41.734 13.0751L40.7245 12.2413C40.6343 12.1669 40.6218 12.0352 40.6946 11.9286L43.7315 8.25077C43.806 8.16062 43.9376 8.14806 44.0442 8.22093L45.0538 9.05466C45.1455 9.14556 45.158 9.27723 45.0836 9.36737ZM41.8546 12.5985L44.6235 9.24518L43.9565 8.69433L41.1876 12.0477L41.8546 12.5985Z" fill="#66072F"/>
<path d="M3.87595 18.8798L2.35751 20.7187L2.19525 20.5847C2.14117 20.54 1.00857 19.635 -0.078163 20.9511L-0.212142 21.1134L-2.55574 19.1779L1.59767 14.1479L3.94126 16.0834L3.80728 16.2456C3.34579 16.8045 3.21502 17.3485 3.41653 17.8939C3.57256 18.3108 3.86258 18.5655 3.87903 18.5639L4.04128 18.6979L3.87595 18.8798ZM2.28451 20.1278L3.41591 18.7576C3.08199 18.3909 2.4235 17.4074 3.31746 16.1595L1.64088 14.7749L-1.94682 19.1198L-0.270249 20.5044C0.39262 19.7934 1.08539 19.7439 1.5423 19.8332C1.86441 19.9021 2.12541 20.0267 2.28451 20.1278Z" fill="#66072F"/>
<path d="M0.676699 17.026C0.542717 17.1883 0.510621 17.374 0.56081 17.5519C0.376639 17.5363 0.185433 17.621 0.0663382 17.7652C-0.142077 18.0176 -0.105957 18.3961 0.146431 18.6046C0.398819 18.813 0.915276 18.8301 1.24128 18.7658C1.51948 18.7227 1.85723 18.6074 1.85723 18.6074C1.85723 18.6074 1.89008 18.2555 1.88298 18.007C1.88135 17.6418 1.78329 17.1363 1.51444 16.9295C1.26206 16.721 0.883544 16.7572 0.676699 17.026Z" fill="#66072F"/>
<path d="M11.2246 23.8419L9.61683 25.789C9.37864 26.0775 8.95076 26.1183 8.66231 25.8801L6.73335 24.2871C6.30069 23.9298 6.03335 23.3906 6.02933 22.8263C6.02148 22.744 5.99717 22.6633 5.92663 22.6202L5.33171 22.1289L5.59968 21.8044L6.19459 22.2957C6.35684 22.4297 6.45797 22.6193 6.46193 22.8349C6.47142 23.2824 6.67682 23.6946 7.01934 23.9775L8.9483 25.5705C9.05647 25.6598 9.22104 25.6441 9.31036 25.5359L10.9181 23.5888C11.0074 23.4807 10.9917 23.3161 10.8836 23.2268L8.93659 21.6188C8.59406 21.336 8.15048 21.2122 7.70927 21.2875C7.4969 21.3244 7.29156 21.261 7.12931 21.127L6.5344 20.6357L6.80236 20.3111L7.39727 20.8025C7.46938 20.862 7.55324 20.8706 7.61907 20.8643C8.1739 20.7616 8.75386 20.9221 9.18652 21.2794L11.1155 22.8725C11.422 23.1256 11.4628 23.5535 11.2246 23.8419Z" fill="#66072F"/>
<path d="M7.31495 20.1128L5.21592 22.6548L4.33256 21.9253C4.13426 21.7615 4.10442 21.4488 4.26661 21.234L5.74039 19.4492C5.90415 19.2509 6.21684 19.2211 6.4316 19.3832L7.31495 20.1128ZM5.15781 22.0458L6.70604 20.1709L6.14718 19.7093C6.12915 19.6944 6.07978 19.6992 6.06489 19.7172L4.59111 21.502C4.57622 21.5201 4.58093 21.5694 4.59896 21.5843L5.15781 22.0458Z" fill="#66072F"/>
<path fill-rule="evenodd" clip-rule="evenodd" d="M9.31135 22.7623C9.70796 23.0898 9.7645 23.6823 9.43856 24.0954C9.11105 24.492 8.51859 24.5486 8.10553 24.2226C7.70892 23.8951 7.65238 23.3026 7.97832 22.8895C8.32072 22.4748 8.91318 22.4183 9.31135 22.7623Z" fill="#66072F"/>
<path d="M4.14014 32.4401L2.48771 34.4413L0.144109 32.5058C-0.144333 32.2676 -0.310544 31.9181 -0.328637 31.5544L-1.24804 30.7952L-0.146425 29.461L0.772988 30.2203C1.13348 30.1693 1.5081 30.2664 1.79654 30.5046L4.14014 32.4401ZM2.41314 33.8339L3.51476 32.4998L1.49567 30.8323C1.27933 30.6536 1.00817 30.5965 0.731534 30.6561L0.617901 30.6835L-0.139263 30.0582L-0.69007 30.7253L0.0670891 31.3506L0.0616292 31.4674C0.0554125 31.7503 0.162826 32.0058 0.379158 32.1845L2.41314 33.8339Z" fill="#66072F"/>
<path d="M0.620315 31.2314C0.769182 31.0511 1.04895 31.0244 1.22923 31.1733L1.57175 31.4561L2.92383 32.5727L2.37302 33.2398L1.02095 32.1232L0.678421 31.8403C0.498145 31.6915 0.471447 31.4117 0.620315 31.2314Z" fill="#66072F"/>
<path d="M1.41564 35.7393L-0.623839 38.2093C-0.742933 38.3535 -0.973334 38.3755 -1.11756 38.2564L-4.12975 35.7536C-4.27397 35.6345 -4.34219 35.4417 -4.29364 35.2544L-3.83869 33.2346L-2.7073 31.8644L1.36696 35.2291C1.51275 35.3647 1.53317 35.5786 1.41564 35.7393ZM-0.906819 37.8543L1.02846 35.5105L-2.64919 32.4734L-3.43818 33.4289L-3.86964 35.3468C-3.88296 35.3813 -3.86493 35.3962 -3.84533 35.4275L-0.906819 37.8543Z" fill="#66072F"/>
<path d="M3.24463 26.3639L3.75248 26.4649C3.90531 26.5001 4.06988 26.4844 4.21328 26.4209L4.69286 26.2257L4.59186 26.7336C4.55663 26.8864 4.57233 27.051 4.63584 27.1944L4.83107 27.674L4.32322 27.573C4.17039 27.5378 4.00581 27.5535 3.86241 27.617L3.38283 27.8122L3.48383 27.3043C3.51907 27.1515 3.50337 26.9869 3.43986 26.8435L3.24463 26.3639Z" fill="#66072F"/>
<path d="M3.82275 28.418L4.12683 28.472C4.22872 28.4955 4.311 28.4876 4.40661 28.4453L4.69498 28.3347L4.64096 28.6388C4.61747 28.7407 4.62532 28.823 4.66766 28.9186L4.77822 29.207L4.47414 29.153C4.37225 29.1295 4.28996 29.1374 4.19436 29.1797L3.90599 29.2903L3.96001 28.9862C3.9835 28.8843 3.97565 28.802 3.93331 28.7064L3.82275 28.418Z" fill="#66072F"/>
<path d="M5.31323 28.0266L5.48252 28.0603C5.53346 28.072 5.58283 28.0673 5.63063 28.0461L5.7905 27.9811L5.75683 28.1504C5.74508 28.2013 5.74979 28.2507 5.77096 28.2985L5.83604 28.4584L5.66676 28.4247C5.61581 28.4129 5.56644 28.4177 5.51864 28.4388L5.35878 28.5039L5.39245 28.3346C5.40419 28.2837 5.39948 28.2343 5.37831 28.1865L5.31323 28.0266Z" fill="#66072F"/>
<path d="M8.17122 27.5214L4.85147 31.5418L2.14732 29.3086C1.73268 28.9661 0.969177 27.9263 0.851588 27.7382L-0.230072 26.8449L2.6133 23.4014L3.69496 24.2947C3.88698 24.3926 5.06889 24.9442 5.48196 25.2701L8.17122 27.5214ZM4.80982 30.9312L7.56388 27.5959L5.20068 25.6292C4.87618 25.3612 3.84867 24.8613 3.48422 24.6968L3.44974 24.6835L2.65652 24.0284L0.363959 26.8048L1.15718 27.4599L1.17677 27.4912C1.40724 27.818 2.09235 28.7325 2.41685 29.0005L4.80982 30.9312Z" fill="#66072F"/>
<path d="M2.38094 24.9928L1.26514 26.3441L1.59657 26.6179L2.71237 25.2666L2.38094 24.9928Z" fill="#66072F"/>
<path d="M11.0051 17.5352L10.4543 18.2023L9.73321 17.6068C9.66109 17.5472 9.63522 17.45 9.66028 17.3646L9.83257 16.7337C9.84275 16.6663 9.92346 16.6419 9.97755 16.6866L11.0051 17.5352Z" fill="#66072F"/>
<path d="M14.6504 19.7118L13.2659 21.3885L11.2648 19.7359L11.5477 19.3934L10.3038 18.3661L11.1374 17.3565L12.3813 18.3838L12.6642 18.0412L14.6504 19.7118ZM13.2078 20.7795L14.0415 19.7699L12.7074 18.6682L12.4246 19.0107L11.1806 17.9835L10.8978 18.326L12.1417 19.3533L11.8589 19.6958L13.2078 20.7795Z" fill="#66072F"/>
<path d="M12.4419 18.2985L11.4419 19.5096L11.7733 19.7833L12.7733 18.5722L12.4419 18.2985Z" fill="#66072F"/>
<path d="M16.5112 17.4583C15.8115 18.3056 14.8265 18.5989 14.2676 18.1374C13.7087 17.6758 13.8104 16.653 14.5101 15.8057C15.2098 14.9583 16.1948 14.665 16.7537 15.1266C17.3125 15.5881 17.2109 16.6109 16.5112 17.4583ZM14.8346 16.0737C14.3136 16.7047 14.1734 17.4986 14.534 17.7964C14.8945 18.0942 15.6476 17.8064 16.1687 17.1754C16.6897 16.5444 16.8298 15.7504 16.4693 15.4527C16.1087 15.1549 15.3556 15.4427 14.8346 16.0737Z" fill="#66072F"/>
<path d="M15.8443 16.9074C16.142 16.5468 16.2572 16.1871 16.2697 15.97C16.2736 15.8367 16.1474 15.7325 16.0173 15.7615C15.8065 15.8149 15.475 15.996 15.1773 16.3565C14.8795 16.7171 14.7644 17.0769 14.7519 17.294C14.748 17.4272 14.8742 17.5314 15.0043 17.5024C15.2135 17.4326 15.5466 17.268 15.8443 16.9074Z" fill="#66072F"/>
<path d="M14.8347 16.0737C14.1499 16.903 12.9156 17.0208 12.0864 16.3359C11.2571 15.6511 11.1393 14.4167 11.8241 13.5874C12.5089 12.758 13.7432 12.6403 14.5725 13.3251C15.4017 14.01 15.5195 15.2443 14.8347 16.0737ZM12.1651 13.8538C11.6291 14.5028 11.7202 15.4574 12.3692 15.9934C13.0182 16.5293 13.9727 16.4383 14.5087 15.7892C15.0446 15.1402 14.9535 14.1856 14.3045 13.6496C13.6571 13.1301 12.7026 13.2212 12.1651 13.8538Z" fill="#66072F"/>
<path d="M31.2773 -0.442701L29.9078 1.21594C29.8333 1.30608 29.7017 1.31865 29.5951 1.24578L26.8368 -1.03209L26.2514 -1.07588L26.2929 -1.51164L26.9457 -1.45768C26.9951 -1.46239 27.0311 -1.43262 27.0672 -1.40284L29.7173 0.785696L30.8189 -0.548425L28.1868 -2.72207C28.1508 -2.75185 28.1296 -2.79965 28.1084 -2.84746L27.968 -3.44857L28.3912 -3.53877L28.5089 -3.00193L31.2491 -0.738949C31.3392 -0.664509 31.3518 -0.532844 31.2773 -0.442701Z" fill="#66072F"/>
<path d="M31.2773 -0.442701L29.9078 1.21594C29.8333 1.30608 29.7017 1.31865 29.5951 1.24578L26.8368 -1.03209L26.2514 -1.07588L26.2929 -1.51164L26.9457 -1.45768C26.9951 -1.46239 27.0311 -1.43262 27.0672 -1.40284L29.7173 0.785696L30.8189 -0.548425L28.1868 -2.72207C28.1508 -2.75185 28.1296 -2.79965 28.1084 -2.84746L27.968 -3.44857L28.3912 -3.53877L28.5089 -3.00193L31.2491 -0.738949C31.3392 -0.664509 31.3518 -0.532844 31.2773 -0.442701Z" fill="#66072F"/>
<path d="M28.1252 3.24615C28.1268 3.26261 28.1103 3.26418 28.1252 3.24615C27.9301 3.46407 27.6699 3.52211 27.4269 3.41243L26.4715 2.97213C26.4371 2.95881 26.4073 2.99487 26.3908 2.99644C26.3759 3.01447 26.3611 3.0325 26.3822 3.0803L26.9952 3.93526C27.1489 4.15311 27.1427 4.43605 26.9805 4.65082C26.8183 4.86559 26.5432 4.94166 26.3018 4.84844L25.888 4.68863C25.6647 4.61029 25.4577 4.53039 25.2344 4.45205C25.1654 4.42542 25.0964 4.39878 25.0275 4.37214C24.5627 4.20059 24.098 4.02903 23.6402 3.75715C23.3581 3.58477 23.0924 3.41083 22.9027 3.1632C22.6213 2.82467 22.5561 2.31603 22.7112 1.85281C22.8812 1.37157 23.2886 1.11678 23.6648 0.881592C23.6961 0.861993 23.7275 0.842392 23.7588 0.822793C23.8003 0.73579 23.827 0.666816 23.8669 0.563355C23.9069 0.459894 23.9468 0.356436 24.0032 0.251404C24.0596 0.146373 24.1011 0.0593697 24.1607 -0.012745C24.3675 -0.281605 24.6645 -0.476023 24.9874 -0.573263C25.3431 -0.673644 25.7687 -0.564779 26.1441 -0.285048C26.6097 0.0691231 26.9546 0.551063 27.2698 1.06906C27.4642 1.36607 27.6437 1.6811 27.8201 1.96322C27.9392 2.16776 28.0568 2.35583 28.176 2.56037C28.3132 2.77979 28.2889 3.04784 28.1252 3.24615ZM26.0499 2.73003C26.1839 2.56777 26.3931 2.49798 26.582 2.563C26.5984 2.56143 26.6 2.57789 26.6165 2.57631L27.6048 3.01347C27.7082 3.05343 27.7693 2.99777 27.8007 2.97817C27.8156 2.96014 27.8751 2.88803 27.8163 2.79399C27.6972 2.58945 27.5796 2.40138 27.4604 2.19684C27.2825 1.89826 27.1045 1.59969 26.9101 1.30268C26.5965 0.801141 26.2893 0.365433 25.8793 0.0723847C25.6661 -0.0733544 25.3526 -0.226127 25.094 -0.151627C24.8683 -0.080267 24.6489 0.0569215 24.4852 0.255237C24.4405 0.309323 24.4123 0.361839 24.3708 0.448842C24.3293 0.535845 24.2878 0.622849 24.2478 0.72631C24.2094 0.846229 24.153 0.95126 24.0982 1.07275C24.0849 1.10724 24.0551 1.14329 24.0238 1.16289C23.9775 1.20052 23.9297 1.22169 23.867 1.26089C23.5387 1.47491 23.2253 1.6709 23.0905 1.99931C22.9707 2.30969 23.0217 2.6702 23.2083 2.88492C23.3588 3.06985 23.59 3.23048 23.8361 3.37308C24.2413 3.61676 24.6731 3.79145 25.1379 3.96301C25.2069 3.98965 25.2758 4.01628 25.3448 4.04292C25.5682 4.12125 25.7751 4.20116 26 4.29595L26.4138 4.45577C26.5173 4.49572 26.5768 4.4236 26.5917 4.40557C26.6066 4.38755 26.6646 4.29897 26.5893 4.2065L25.9732 3.31863C25.9716 3.30217 25.9552 3.30374 25.9536 3.28728C25.8869 3.11095 25.9159 2.89229 26.0499 2.73003Z" fill="#66072F"/>
<path d="M24.874 0.500488L25.1781 0.554514C25.2635 0.579579 25.3623 0.570158 25.4414 0.529389L25.7298 0.418832L25.6758 0.722932C25.6507 0.808364 25.6601 0.907115 25.7009 0.986266L25.8114 1.27467L25.5074 1.22064C25.4219 1.19558 25.3232 1.205 25.2441 1.24577L24.9557 1.35632L25.0097 1.05222C25.0348 0.966787 25.0253 0.868036 24.9846 0.788885L24.874 0.500488Z" fill="#66072F"/>
<path d="M25.2354 1.67838L25.3882 1.71362C25.4391 1.72537 25.472 1.72223 25.5198 1.70106L25.6632 1.63755L25.628 1.79039C25.6163 1.84133 25.6194 1.87425 25.6406 1.92205L25.7041 2.06546L25.5512 2.03022C25.5003 2.01848 25.4674 2.02162 25.4196 2.04279L25.2762 2.10629L25.3114 1.95346C25.3232 1.90251 25.32 1.8696 25.2989 1.82179L25.2354 1.67838Z" fill="#66072F"/>
<path d="M18.1543 12.0532L17.529 12.8104L17.1865 12.5276C17.0603 12.4234 16.9075 12.3881 16.8087 12.3975C16.6081 12.3835 16.4341 12.3004 16.2883 12.1649C16.0312 11.907 15.9739 11.4807 16.1776 11.1789C16.3085 10.9837 16.4965 10.8662 16.7254 10.8277C16.9542 10.7893 17.176 10.8511 17.3398 11.0016C17.484 11.1207 17.5656 11.279 17.6142 11.4404C17.6432 11.5705 17.72 11.6795 17.8282 11.7688L18.1543 12.0532Z" fill="#66072F"/>
<path d="M19.5003 13.8015C19.3217 14.0179 19.0694 14.1582 18.7896 14.1849C18.4111 14.221 18.027 14.0251 17.8428 13.6607L17.7221 13.4397L18.1013 13.2375L18.2221 13.4585C18.3412 13.663 18.5513 13.7758 18.7488 13.757C18.9133 13.7413 19.0716 13.6597 19.1758 13.5335C19.28 13.4073 19.3302 13.2365 19.3145 13.0719C19.294 12.8579 19.1435 12.673 18.9217 12.6111L18.6819 12.5343L18.8088 12.1236L19.0486 12.2004C19.4264 12.3304 19.7062 12.6525 19.7423 13.0311C19.769 13.3109 19.679 13.5852 19.5003 13.8015Z" fill="#66072F"/>
<path d="M19.1351 11.5476L17.1982 13.8932L17.5297 14.167L19.4665 11.8213L19.1351 11.5476Z" fill="#66072F"/>
<path d="M24.5932 7.65217L23.8042 8.60769C23.4469 9.04038 22.5731 8.75838 22.2305 8.47551L19.923 6.56985C19.5444 6.2572 19.4895 5.68116 19.8005 5.2861L20.5895 4.33058C20.9021 3.95198 21.4781 3.89701 21.8732 4.20809L24.1807 6.11375C24.5248 6.41308 24.9521 7.23594 24.5932 7.65217ZM20.1266 5.57054C19.9628 5.76885 19.9911 6.0651 20.1894 6.22887L22.4969 8.13454C22.7674 8.35786 23.3426 8.46905 23.4617 8.32482L24.2507 7.3693C24.3698 7.22507 24.1518 6.68119 23.8814 6.45787L21.5739 4.55221C21.3756 4.38844 21.0793 4.4167 20.9156 4.61502L20.1266 5.57054Z" fill="#66072F"/>
<path d="M22.1384 10.6434L21.3791 11.5628C21.0665 11.9414 20.4905 11.9964 20.0955 11.6853L17.9502 9.91363C17.3012 9.37766 17.2101 8.42308 17.746 7.77405C18.2819 7.12501 19.2365 7.03393 19.8855 7.5699L21.9767 9.29691C22.4078 9.63776 22.4659 10.2467 22.1384 10.6434ZM18.087 8.04046C17.6999 8.5092 17.7659 9.20045 18.233 9.57108L20.3783 11.3428C20.5766 11.5065 20.8729 11.4783 21.0366 11.2799L21.7958 10.3605C21.9745 10.1441 21.9431 9.81497 21.7252 9.61985L19.634 7.89285C19.1668 7.52222 18.4756 7.58817 18.087 8.04046Z" fill="#66072F"/>
<path d="M20.732 4.43323L20.4641 4.75775L19.9969 4.38712L19.7125 4.71321L20.1812 5.1003L19.9132 5.42481L19.1036 4.77131L19.9372 3.7617L20.732 4.43323Z" fill="#66072F"/>
<path d="M19.1926 3.71432L18.9189 4.04578L19.5563 4.57215L19.83 4.24069L19.1926 3.71432Z" fill="#66072F"/>
<path d="M18.675 4.9783L18.4086 5.31927L17.8858 4.88752L19.1825 3.33549L19.507 3.60347L18.4947 4.82942L18.675 4.9783Z" fill="#66072F"/>
<path d="M18.4121 7.44479L18.1293 7.78733L17.5704 7.32581L17.286 7.6519L17.8464 8.12988L17.5784 8.4544L16.6771 7.71L17.5107 6.70039L18.4121 7.44479Z" fill="#66072F"/>
<path d="M22.7314 6.06935C23.0019 6.29267 23.0411 6.70413 22.8194 6.99102C22.5961 7.26145 22.1847 7.30071 21.8978 7.07896C21.393 6.6621 21.251 5.69577 21.251 5.69577C21.251 5.69577 22.2267 5.65249 22.7314 6.06935Z" fill="#66072F"/>
<path d="M20.2221 9.53079C20.4024 9.67967 20.4291 9.95946 20.2803 10.1397C20.1314 10.32 19.8516 10.3467 19.6713 10.1978C19.4911 10.049 19.4644 9.76918 19.6132 9.58889C19.7786 9.40704 20.0419 9.38191 20.2221 9.53079Z" fill="#66072F"/>
<path d="M20.0377 8.8176C20.1458 8.90693 20.1615 9.07152 20.0722 9.17969C19.9829 9.28786 19.8183 9.30357 19.7102 9.21424C19.602 9.12491 19.5863 8.96032 19.6756 8.85215C19.7649 8.74398 19.9295 8.72828 20.0377 8.8176Z" fill="#66072F"/>
<path d="M20.4522 9.16003C20.5063 9.20465 20.5125 9.27043 20.4664 9.30802C20.4217 9.36206 20.356 9.36834 20.3184 9.32214C20.2643 9.27752 20.2581 9.21175 20.3042 9.17415C20.3504 9.13656 20.4162 9.13028 20.4522 9.16003Z" fill="#66072F"/>
<path d="M19.5534 7.63674L17.9324 9.59995L18.2638 9.87366L19.8849 7.91045L19.5534 7.63674Z" fill="#66072F"/>
<path d="M21.5547 9.28872L19.9336 11.2519L20.265 11.5256L21.8861 9.56243L21.5547 9.28872Z" fill="#66072F"/>
<path fill-rule="evenodd" clip-rule="evenodd" d="M1.05837 6.06135L1.04035 6.04646C0.682938 5.78162 0.0959417 5.72137 -0.082699 5.93772C-0.26134 6.15406 -0.107633 6.72068 0.236462 7.02001L0.254491 7.0349C0.597016 7.31777 0.995128 7.313 1.23332 7.02454C1.4715 6.73608 1.4009 6.34422 1.05837 6.06135Z" fill="#66072F"/>
<path fill-rule="evenodd" clip-rule="evenodd" d="M2.14529 4.74525L2.12726 4.73036C1.76985 4.46552 1.18285 4.40527 1.00421 4.62162C0.825573 4.83796 0.979285 5.40458 1.32338 5.70391L1.34141 5.71879C1.68393 6.00167 2.08205 5.99689 2.32023 5.70844C2.55842 5.41998 2.48939 5.04458 2.14529 4.74525Z" fill="#66072F"/>
<path fill-rule="evenodd" clip-rule="evenodd" d="M3.21536 3.43074L3.19733 3.41585C2.83992 3.15101 2.25292 3.09076 2.07428 3.3071C1.89564 3.52344 2.04935 4.09006 2.39345 4.38939L2.41147 4.40428C2.754 4.68715 3.15211 4.68238 3.3903 4.39392C3.63006 4.12192 3.57591 3.7285 3.21536 3.43074Z" fill="#66072F"/>
<path fill-rule="evenodd" clip-rule="evenodd" d="M1.34866 3.01096L1.33063 2.99607C0.973221 2.73123 0.386225 2.67099 0.207584 2.88733C0.0289437 3.10368 0.18265 3.67029 0.526745 3.96962L0.544774 3.98451C0.887299 4.26738 1.28541 4.26261 1.5236 3.97415C1.76179 3.68569 1.70764 3.29226 1.34866 3.01096Z" fill="#66072F"/>
<path d="M4.09342 4.97454C3.88501 5.22694 3.63582 5.40019 3.34431 5.47784C3.3232 5.7788 3.20021 6.05626 3.00669 6.29063L2.9918 6.30866C2.79827 6.54304 2.54909 6.71629 2.25757 6.79393C2.23647 7.09489 2.11348 7.37236 1.91996 7.60673L1.90507 7.62476C1.71154 7.85913 1.46236 8.03238 1.17084 8.11002C1.14973 8.41098 1.02675 8.68845 0.833219 8.92282L0.818336 8.94085C0.535488 9.2834 0.138191 9.47078 -0.309295 9.48026L-0.317215 9.0492C-0.00295799 9.03583 0.283849 8.90881 0.475807 8.65798L0.490694 8.63995C0.654449 8.44163 0.746091 8.18377 0.738991 7.93532L0.738175 7.75271L0.917635 7.71898C1.17938 7.6774 1.39879 7.5402 1.56254 7.34188L1.57743 7.32386C1.74118 7.12554 1.83283 6.86767 1.82573 6.61923L1.82491 6.43662L2.00437 6.40288C2.26611 6.3613 2.48709 6.24057 2.64927 6.02579L2.66416 6.00776C2.82792 5.80945 2.91956 5.55158 2.91246 5.30313L2.91164 5.12053L3.0911 5.08679C3.35285 5.04521 3.57226 4.90802 3.73601 4.7097L3.75089 4.69167C3.95931 4.43927 4.02979 4.1336 3.98506 3.83892L4.4098 3.76517C4.48355 4.18995 4.3747 4.61554 4.09342 4.97454Z" fill="#66072F"/>
<path fill-rule="evenodd" clip-rule="evenodd" d="M1.05837 6.06135L1.04035 6.04646C0.682938 5.78162 0.0959417 5.72137 -0.082699 5.93772C-0.26134 6.15406 -0.107633 6.72068 0.236462 7.02001L0.254491 7.0349C0.597016 7.31777 0.995128 7.313 1.23332 7.02454C1.4715 6.73608 1.4009 6.34422 1.05837 6.06135Z" fill="#66072F"/>
<path fill-rule="evenodd" clip-rule="evenodd" d="M2.14529 4.74525L2.12726 4.73036C1.76985 4.46552 1.18285 4.40527 1.00421 4.62162C0.825573 4.83796 0.979285 5.40458 1.32338 5.70391L1.34141 5.71879C1.68393 6.00167 2.08205 5.99689 2.32023 5.70844C2.55842 5.41998 2.48939 5.04458 2.14529 4.74525Z" fill="#66072F"/>
<path d="M3.00529 6.27419C2.79687 6.52659 2.54769 6.69984 2.25618 6.77748C2.23507 7.07844 2.11208 7.35591 1.91856 7.59028L1.90367 7.60831C1.71014 7.84268 1.46096 8.01594 1.16944 8.09358C1.14834 8.39454 1.02535 8.672 0.83182 8.90637L0.816937 8.9244C0.623409 9.15877 0.374226 9.33203 0.0827075 9.40967C0.061604 9.71063 -0.0613835 9.9881 -0.254911 10.2225L-0.269799 10.2405C-0.552647 10.583 -0.949945 10.7704 -1.39743 10.7799L-1.40535 10.3489C-1.09109 10.3355 -0.804281 10.2085 -0.612324 9.95762L-0.597436 9.9396C-0.433681 9.74128 -0.342039 9.48341 -0.349138 9.23497L-0.349955 9.05236L-0.170496 9.01862C0.0912494 8.97704 0.310653 8.83985 0.474408 8.64153L0.489295 8.6235C0.65305 8.42519 0.744692 8.16732 0.737593 7.91887L0.736776 7.73627L0.916236 7.70253C1.17798 7.66095 1.39896 7.54022 1.56114 7.32544L1.57603 7.30741C1.73979 7.1091 1.83143 6.85123 1.82433 6.60278L1.82351 6.42017L2.00297 6.38644C2.26471 6.34485 2.48412 6.20766 2.64788 6.00935L2.66276 5.99132C2.87118 5.73892 2.94165 5.43324 2.89693 5.13856L3.32167 5.06482C3.39699 5.50606 3.28814 5.93165 3.00529 6.27419Z" fill="#66072F"/>
<path d="M10.5677 -2.88438L6.87425 1.57028C6.5914 1.91282 6.17997 1.95208 5.82099 1.67078L5.17199 1.13481C5.02777 1.01571 4.77463 0.973428 4.65553 1.11766L3.99662 2.04415C3.66911 2.44079 3.14638 2.3578 2.80385 2.07493C2.46133 1.79206 2.27942 1.27795 2.62338 0.879751L2.63827 0.861722L3.40849 0.0574682C3.46803 -0.0146465 3.45704 -0.129854 3.45233 -0.179229C3.42645 -0.276409 3.36608 -0.386908 3.29397 -0.44646L2.64498 -0.982429C2.4647 -1.13131 2.36514 -1.3045 2.36275 -1.50357C2.34548 -1.68461 2.41049 -1.8735 2.54447 -2.03576L6.23953 -6.47396C6.55215 -6.85256 6.98004 -6.89339 7.39467 -6.55097L10.4609 -4.00355C10.6593 -3.83978 10.7768 -3.6517 10.7957 -3.4542C10.7965 -3.27159 10.7331 -3.06624 10.5677 -2.88438ZM5.45484 0.792265L6.10384 1.32823C6.212 1.41756 6.36954 1.50218 6.54818 1.28583L10.2417 -3.16882C10.3161 -3.25897 10.3561 -3.36243 10.3498 -3.42826C10.3419 -3.51055 10.2831 -3.60459 10.175 -3.69392L7.10868 -6.24134C6.83827 -6.46466 6.68155 -6.36666 6.56245 -6.22243L2.8674 -1.78423C2.82274 -1.73015 2.76476 -1.64158 2.77261 -1.55929C2.77889 -1.49345 2.81966 -1.4143 2.9098 -1.33986L3.55879 -0.803893C3.72104 -0.669901 3.82217 -0.48025 3.85748 -0.28432C3.89592 -0.0554735 3.84894 0.148308 3.71496 0.310566L3.70007 0.328591L2.92985 1.13285C2.75278 1.36565 2.92602 1.61485 3.06867 1.71749C3.19487 1.82171 3.47389 1.96117 3.65253 1.74482L4.31144 0.818327C4.61232 0.49067 5.13191 0.54074 5.45484 0.792265Z" fill="#66072F"/>
<path d="M5.88799 11.9449C5.66155 12.1824 5.265 12.2036 5.01262 11.9952C4.88642 11.891 4.80489 11.7327 4.78918 11.5681L2.23184 10.6994C2.12839 10.6594 2.03906 10.7676 2.09785 10.8616L2.638 11.8232C2.65289 11.8052 2.6662 11.7707 2.68109 11.7527C2.82995 11.5724 3.10973 11.5457 3.29001 11.6945C3.47028 11.8434 3.49698 12.1232 3.34811 12.3035C3.25879 12.4117 3.13027 12.4572 2.99705 12.4533L3.43606 13.2252L3.8147 13.8866C3.83977 13.8012 3.87971 13.6977 3.93926 13.6256C4.16256 13.3552 4.57399 13.3159 4.86087 13.5376C5.14774 13.7594 5.17054 14.1724 4.94881 14.4593C4.77017 14.6757 4.49354 14.7353 4.25529 14.675L4.39561 14.9273C4.65353 15.3677 5.27344 15.4248 5.60095 15.0282L6.28574 14.1989L6.97053 13.3696C7.29804 12.9729 7.12473 12.375 6.64351 12.205L5.88799 11.9449ZM4.01514 12.8544C3.83486 12.7055 3.80816 12.4257 3.95703 12.2454C4.1059 12.0651 4.38567 12.0384 4.56595 12.1873C4.74622 12.3362 4.77292 12.616 4.62405 12.7963C4.47676 12.993 4.19699 13.0197 4.01514 12.8544ZM6.24252 13.5719C6.09365 13.7522 5.81388 13.7789 5.6336 13.63C5.45333 13.4811 5.42663 13.2013 5.5755 13.021C5.72436 12.8407 6.00414 12.814 6.18441 12.9629C6.36469 13.1118 6.39139 13.3916 6.24252 13.5719Z" fill="#66072F"/>
<path d="M8.47829 8.80789C8.32942 8.98818 8.04965 9.01488 7.86938 8.866C7.6891 8.71712 7.6624 8.43732 7.81127 8.25704C7.85593 8.20295 7.9335 8.14573 7.99776 8.12299L5.60165 6.15934L5.05084 6.8264C5.23112 6.97528 5.25782 7.25507 5.10895 7.43536C4.96008 7.61565 4.68031 7.64234 4.50003 7.49346L3.94922 8.16053L4.30978 8.45829C4.52918 8.32109 4.83012 8.3422 5.04646 8.52085C5.26279 8.69951 5.34043 8.99105 5.24722 9.23246L6.65337 10.3937C6.68 10.3248 6.72309 10.2542 6.76618 10.1837C6.98948 9.91323 7.40091 9.87397 7.67133 10.0973C7.94174 10.3206 7.981 10.7321 7.7577 11.0025C7.71304 11.0566 7.65193 11.1122 7.57278 11.153L8.29389 11.7485L8.57674 11.406C8.39646 11.2571 8.36976 10.9773 8.51863 10.797C8.6675 10.6167 8.94727 10.59 9.12755 10.7389L9.94632 9.74735L8.55819 8.60097C8.56604 8.68326 8.52295 8.75381 8.47829 8.80789ZM6.01436 8.74405C5.74394 8.52073 5.70468 8.10927 5.92798 7.83884C6.15128 7.56841 6.56271 7.52915 6.83313 7.75247C7.10354 7.97579 7.1428 8.38725 6.9195 8.65768C6.6962 8.92811 6.28477 8.96737 6.01436 8.74405ZM9.07101 10.1464C8.92214 10.3267 8.64237 10.3534 8.46209 10.2045C8.28182 10.0556 8.25512 9.77585 8.40399 9.59557C8.55285 9.41528 8.83263 9.38858 9.01291 9.53746C9.19318 9.68634 9.21988 9.96614 9.07101 10.1464Z" fill="#66072F"/>
<path d="M10.407 10.3271L5.78589 15.9235L6.11732 16.1972L10.7384 10.6008L10.407 10.3271Z" fill="#66072F"/>
<path fill-rule="evenodd" clip-rule="evenodd" d="M13.1552 1.0872C13.0808 1.17734 13.0934 1.30901 13.1835 1.38345C13.2737 1.45789 13.4053 1.44533 13.4797 1.35519C13.5542 1.26504 13.5416 1.13338 13.4515 1.05894C13.3778 0.982926 13.2297 0.997059 13.1552 1.0872Z" fill="#66072F"/>
<path fill-rule="evenodd" clip-rule="evenodd" d="M12.8427 1.4658C12.7683 1.55595 12.7809 1.68761 12.871 1.76205C12.9612 1.83649 13.0928 1.82393 13.1672 1.73379C13.2417 1.64364 13.2291 1.51198 13.139 1.43754C13.0488 1.3631 12.9172 1.37566 12.8427 1.4658Z" fill="#66072F"/>
<path fill-rule="evenodd" clip-rule="evenodd" d="M12.5303 1.8444C12.4558 1.93455 12.4684 2.06621 12.5585 2.14065C12.6487 2.21509 12.7803 2.20253 12.8548 2.11238C12.9292 2.02224 12.9166 1.89058 12.8265 1.81614C12.7363 1.7417 12.6047 1.75426 12.5303 1.8444Z" fill="#66072F"/>
<path fill-rule="evenodd" clip-rule="evenodd" d="M12.5932 0.941511C12.5188 1.03165 12.5314 1.16332 12.6215 1.23776C12.7116 1.3122 12.8433 1.29963 12.9177 1.20949C12.9922 1.11935 12.9796 0.987683 12.8895 0.913244C12.7993 0.838805 12.6677 0.851368 12.5932 0.941511Z" fill="#66072F"/>
<path fill-rule="evenodd" clip-rule="evenodd" d="M12.2807 1.32011C12.2063 1.41026 12.2189 1.54192 12.309 1.61636C12.3991 1.6908 12.5308 1.67824 12.6052 1.5881C12.6797 1.49795 12.6671 1.36629 12.577 1.29185C12.4868 1.21741 12.3552 1.22997 12.2807 1.32011Z" fill="#66072F"/>
<path fill-rule="evenodd" clip-rule="evenodd" d="M12.0134 0.780958C11.939 0.871101 11.9515 1.00277 12.0417 1.07721C12.1318 1.15165 12.2635 1.13909 12.3379 1.04894C12.4123 0.958799 12.3998 0.82713 12.3096 0.752691C12.236 0.676681 12.0878 0.690815 12.0134 0.780958Z" fill="#66072F"/>
<path fill-rule="evenodd" clip-rule="evenodd" d="M11.7009 1.15956C11.6265 1.2497 11.639 1.38137 11.7292 1.45581C11.8193 1.53025 11.951 1.51769 12.0254 1.42754C12.0998 1.3374 12.0873 1.20573 11.9971 1.13129C11.907 1.05685 11.7753 1.06942 11.7009 1.15956Z" fill="#66072F"/>
<path d="M9.27314 2.17178L7.33786 4.51551C7.15758 4.36663 7.13088 4.08684 7.27975 3.90655L8.66422 2.22988C8.81152 2.03314 9.0913 2.00644 9.27314 2.17178Z" fill="#66072F"/>
<path d="M14.5511 5.96965L12.0815 8.97888L9.48548 6.835C9.16098 6.56702 8.91092 6.20889 8.77291 5.80686C8.65922 5.48554 8.46638 5.20499 8.21399 4.99656L7.78133 4.63925L8.04929 4.31473L8.48195 4.67205C8.80645 4.94003 9.05651 5.29816 9.17649 5.68531C9.29019 6.00662 9.4846 6.30363 9.75501 6.52695L12.0234 8.36992L13.9586 6.02619L11.7052 4.16519C11.4348 3.94187 11.1064 3.80712 10.7694 3.75623C10.365 3.69517 9.96762 3.53379 9.64312 3.26581L9.21046 2.9085L9.47842 2.58398L9.91108 2.94129C10.1815 3.16461 10.4934 3.30093 10.8124 3.33692C11.2333 3.39642 11.6306 3.5578 11.9567 3.84224L14.5511 5.96965Z" fill="#66072F"/>
<path d="M17.3218 2.6328L15.1185 5.30105L13.1174 3.64848L15.3207 0.980235L17.3218 2.6328ZM15.0604 4.69209L16.7128 2.69091L15.3608 1.57431L13.7083 3.57549L15.0604 4.69209Z" fill="#66072F"/>
<path d="M14.978 0.697357L12.7748 3.3656L10.1067 1.16218L12.3099 -1.50606L14.978 0.697357ZM12.7167 2.75664L14.3691 0.75546L12.35 -0.911996L10.6976 1.08919L12.7167 2.75664Z" fill="#66072F"/>
<path fill-rule="evenodd" clip-rule="evenodd" d="M15.2879 2.37841C15.1837 2.50461 15.2903 2.57748 15.1845 2.68722C15.0952 2.79539 14.9886 2.72252 14.9008 2.84715C14.8131 2.97178 14.9032 3.04623 14.7975 3.15597C14.6933 3.28217 14.6015 3.19127 14.5138 3.3159C14.4245 3.42407 14.4982 3.50008 14.4269 3.62314L14.9857 4.08467L16.0873 2.75055L15.5105 2.27413C15.4478 2.31333 15.3623 2.28826 15.2879 2.37841Z" fill="#66072F"/>
<path fill-rule="evenodd" clip-rule="evenodd" d="M10.7626 4.20533C10.5095 4.16305 10.2532 4.08786 10.0118 3.99463C9.93896 4.10124 10.0126 4.17725 9.92333 4.28542C9.81912 4.41162 9.72741 4.32072 9.63966 4.44535C9.53545 4.57155 9.64205 4.64442 9.53627 4.75416C9.44695 4.86233 9.35838 4.80435 9.26592 4.87961C9.41956 5.09746 9.54029 5.31846 9.61479 5.57708C9.68772 5.81924 9.83979 6.02064 10.0381 6.18441L11.949 7.76254L13.3335 6.08587L11.4226 4.50774C11.2407 4.3424 10.9993 4.24918 10.7626 4.20533ZM10.1836 4.57614C10.3473 4.37783 10.6271 4.35113 10.8254 4.5149C11.0237 4.67867 11.0504 4.95846 10.8866 5.15677C10.7229 5.35509 10.4431 5.38179 10.2448 5.21802C10.0465 5.05425 10.0182 4.758 10.1836 4.57614ZM10.3632 5.58871C10.527 5.39039 10.8067 5.36369 11.005 5.52746C11.2034 5.69123 11.2301 5.97103 11.0663 6.16934C10.9025 6.36766 10.6228 6.39435 10.4245 6.23059C10.2262 6.06682 10.1979 5.77056 10.3632 5.58871ZM12.224 6.98893C12.0602 7.18725 11.7804 7.21394 11.5821 7.05018C11.3838 6.88641 11.3571 6.60662 11.5209 6.4083C11.6846 6.20999 11.9644 6.18329 12.1627 6.34706C12.361 6.51083 12.3877 6.79062 12.224 6.98893ZM12.0545 5.90897C11.8907 6.10728 11.611 6.13398 11.4127 5.97021C11.2143 5.80644 11.1876 5.52665 11.3514 5.32833C11.5152 5.13002 11.7949 5.10332 11.9932 5.26709C12.1915 5.43086 12.2182 5.71065 12.0545 5.90897Z" fill="#66072F"/>
<path d="M20.3916 -1.77117L18.2021 0.880432L18.5336 1.15414L20.7231 -1.49746L20.3916 -1.77117Z" fill="#66072F"/>
</g>
<path d="M23.9074 13.3477C23.7723 11.9323 24.2047 10.5458 25.1128 9.44604C26.0209 8.34629 27.3005 7.65951 28.7158 7.52446L40.9929 6.35298L41.2505 9.05214L28.9734 10.2236C28.2822 10.2896 27.6506 10.6322 27.204 11.173C26.7574 11.7139 26.5404 12.3989 26.6064 13.0902L27.0218 17.6178C27.0048 18.8318 26.1923 19.8892 25.0411 20.1818L24.5701 20.2931L23.9074 13.3477V13.3477Z" fill="white"/>
<path d="M25.09 25.7409L24.8325 23.0417L37.1095 21.8702C37.8007 21.8043 38.4323 21.4616 38.8789 20.9208C39.3255 20.3799 39.5425 19.6949 39.4765 19.0036L39.0651 14.6916C38.9426 13.4078 39.7919 12.214 41.0402 11.8956L41.5112 11.7842L42.1755 18.7461C42.3106 20.1615 41.8782 21.548 40.9701 22.6478C40.0621 23.7475 38.7824 24.4343 37.3671 24.5694L25.09 25.7409V25.7409Z" fill="white"/>
<path d="M34.958 19.3352L34.625 15.846L33.2108 17.9075L31.4323 16.1506L31.7653 19.6398L29.6423 19.8424L28.9858 12.9628L30.9936 12.7712L32.9172 14.8298L34.4167 12.4446L36.4245 12.253L37.0809 19.1326L34.958 19.3352Z" fill="white"/>
<path d="M11.5736 16.1855L11.3835 14.194L12.6343 14.0747L12.6783 14.5355L11.9377 14.6062L12.0837 16.1368L11.5736 16.1855Z" fill="white"/>
<path d="M14.4042 15.9153L14.3304 15.1418L13.5405 15.2172L13.6143 15.9907L13.1041 16.0394L12.9141 14.0479L13.4242 13.9993L13.4949 14.7399L14.2849 14.6645L14.2142 13.9239L14.7244 13.8752L14.9144 15.8667L14.4042 15.9153Z" fill="white"/>
<path d="M17.9589 15.5762L17.8128 14.0456L17.2039 14.1037L17.1599 13.6428L18.9044 13.4764L18.9483 13.9372L18.323 13.9969L18.469 15.5275L17.9589 15.5762Z" fill="white"/>
<path d="M16.5764 15.7081L16.468 14.5724L15.7371 15.7882L15.3092 15.829L15.1191 13.8375L15.6293 13.7888L15.7361 14.908L16.4522 13.7103L16.913 13.6664L17.103 15.6578L16.5764 15.7081Z" fill="white"/>
<path d="M8.56181 16.4728L8.44874 15.2878L7.98178 15.9635L7.41193 15.3868L7.52501 16.5718L6.99837 16.622L6.80835 14.6306L7.31852 14.5819L7.91111 15.2229L8.37179 14.4814L8.89842 14.4311L9.08844 16.4226L8.56181 16.4728Z" fill="white"/>
<path d="M10.0085 15.6207L10.5022 15.5735L10.1957 14.9717L10.0085 15.6207ZM10.833 16.2561L10.6912 15.9873L9.88475 16.0643L9.79625 16.3551L9.26961 16.4053L9.886 14.3369L10.3633 14.2914L11.3597 16.2059L10.833 16.2561Z" fill="white"/>
<path d="M6.68829 13.5459C6.66474 13.299 6.84495 13.0991 7.10827 13.074C7.19055 13.0661 7.25795 13.0763 7.32692 13.1029L7.34734 13.3169C7.27837 13.2903 7.22586 13.2621 7.12711 13.2715C6.99545 13.284 6.88968 13.3938 6.90224 13.5255C6.9148 13.6571 7.03943 13.7449 7.17108 13.7323C7.25337 13.7245 7.31763 13.7017 7.37875 13.6461L7.39916 13.86C7.33647 13.8992 7.25576 13.9235 7.17347 13.9314C6.92661 13.9549 6.71185 13.7927 6.68829 13.5459Z" fill="white"/>
<path d="M7.47192 13.0559L8.0973 12.9962L8.11458 13.1772L7.70315 13.2165L7.71414 13.3317L8.04329 13.3003L8.06056 13.4813L7.73141 13.5128L7.74712 13.6773L8.175 13.6365L8.19228 13.8176L7.55045 13.8788L7.47192 13.0559V13.0559Z" fill="white"/>
<path d="M8.229 12.9837L8.44295 12.9633L8.68673 13.2556L8.87084 12.9224L9.08479 12.902L9.16331 13.7249L8.94936 13.7454L8.90068 13.2351L8.77455 13.4797L8.65935 13.4907L8.48924 13.2744L8.53793 13.7846L8.32399 13.805L8.24546 12.9821L8.229 12.9837Z" fill="white"/>
<path d="M9.23291 12.8879L9.44685 12.8675L9.47198 13.1308L9.62009 13.1167C9.83404 13.0963 9.96023 13.2005 9.97594 13.365C9.99164 13.5296 9.87098 13.6574 9.67349 13.6763L9.31143 13.7108L9.23291 12.8879ZM9.63976 13.4968C9.72205 13.4889 9.76828 13.4513 9.76042 13.369C9.75414 13.3032 9.70006 13.2585 9.61778 13.2664L9.48611 13.2789L9.50653 13.4929L9.63819 13.4803L9.63976 13.4968Z" fill="white"/>
<path d="M10.2329 13.2741C10.1311 13.2506 10.0558 13.1581 10.0464 13.0594C10.0322 12.9113 10.1365 12.785 10.3175 12.7678L10.7125 12.7301L10.791 13.553L10.577 13.5734L10.5472 13.2607L10.4649 13.2686L10.2643 13.6033L10.0175 13.6268L10.2329 13.2741ZM10.5315 13.0961L10.5158 12.9315L10.3512 12.9472C10.2854 12.9535 10.2556 12.9896 10.2603 13.039C10.265 13.0883 10.3011 13.1181 10.3669 13.1118L10.5315 13.0961Z" fill="white"/>
<path d="M11.1748 12.7026L11.3888 12.6822L11.6325 12.9745L11.8166 12.6413L12.0306 12.6209L12.1091 13.4438L11.8952 13.4643L11.8465 12.954L11.7203 13.1986L11.6051 13.2096L11.435 12.9933L11.4837 13.5035L11.2698 13.5239L11.1913 12.701L11.1748 12.7026Z" fill="white"/>
<path d="M12.457 12.5636L12.6545 12.5448L13.0802 13.3512L12.8498 13.3732L12.7667 13.1984L12.454 13.2282L12.4055 13.4156L12.1751 13.4376L12.457 12.5636ZM12.6852 13.0401L12.5825 12.834L12.5206 13.0558L12.6852 13.0401Z" fill="white"/>
<path d="M13.1003 12.5188L13.7093 12.4607L13.7265 12.6418L13.3316 12.6795L13.3928 13.3213L13.1789 13.3418L13.1003 12.5188Z" fill="white"/>
<path d="M13.938 12.4223L14.1355 12.4035L14.5612 13.2099L14.3308 13.2318L14.2477 13.0571L13.935 13.0869L13.8864 13.2742L13.656 13.2962L13.938 12.4223ZM14.1826 12.8972L14.0799 12.6911L14.018 12.9129L14.1826 12.8972Z" fill="white"/>
<path d="M14.6207 13.1377L14.6018 12.9402C14.6904 12.9982 14.7923 13.0217 14.891 13.0123C15.0062 13.0013 15.0525 12.9637 15.0462 12.8978C15.0415 12.8485 14.9725 12.8218 14.8902 12.8297L14.7915 12.8391L14.7758 12.6745L14.9074 12.662C14.9897 12.6541 15.003 12.6196 14.9999 12.5867C14.9968 12.5538 14.9442 12.5256 14.862 12.5334C14.7468 12.5444 14.6511 12.5868 14.5885 12.626L14.5712 12.4449C14.6339 12.4057 14.7279 12.3469 14.8431 12.3359C15.0571 12.3155 15.1817 12.4033 15.1958 12.5514C15.2037 12.6337 15.159 12.6878 15.1128 12.7254C15.1817 12.752 15.2539 12.8116 15.2633 12.9103C15.2774 13.0585 15.1567 13.1862 14.9263 13.2082C14.7931 13.2043 14.6912 13.1808 14.6207 13.1377Z" fill="white"/>
<path d="M15.3386 12.3053L15.5526 12.2849L15.5965 12.7457L15.8982 12.2519L16.0792 12.2346L16.1577 13.0575L15.9438 13.0779L15.8982 12.6006L15.5982 13.1109L15.4171 13.1282L15.3386 12.3053Z" fill="white"/>
<path d="M16.2273 12.2205L16.4412 12.2L16.4695 12.4963L16.7822 12.4665L16.7539 12.1702L16.9679 12.1498L17.0464 12.9727L16.8324 12.9931L16.7995 12.6475L16.4868 12.6773L16.5198 13.023L16.3058 13.0434L16.2273 12.2205Z" fill="white"/>
<path d="M17.1387 12.5487C17.1167 12.3183 17.2789 12.1035 17.5422 12.0784C17.7891 12.0548 18.0054 12.2335 18.0274 12.4639C18.0494 12.6943 17.8872 12.9091 17.6239 12.9342C17.3606 12.9594 17.1607 12.7791 17.1387 12.5487ZM17.797 12.4859C17.7845 12.3542 17.6763 12.2649 17.5611 12.2759C17.4294 12.2885 17.3566 12.3951 17.3691 12.5267C17.3817 12.6584 17.4899 12.7477 17.6051 12.7367C17.7203 12.7257 17.8096 12.6176 17.797 12.4859Z" fill="white"/>
<path d="M18.1033 12.0415L18.5147 12.0022C18.6628 11.9881 18.7843 12.0429 18.7984 12.191C18.8063 12.2733 18.7632 12.3439 18.7154 12.3651C18.7828 12.3752 18.8878 12.4316 18.9004 12.5633C18.9145 12.7114 18.8072 12.8047 18.6261 12.822L18.1983 12.8628L18.1197 12.0399L18.1033 12.0415ZM18.5116 12.3181C18.561 12.3134 18.5908 12.2773 18.5876 12.2444C18.5829 12.195 18.5484 12.1817 18.4991 12.1864L18.3345 12.2021L18.3486 12.3502L18.5132 12.3345L18.5116 12.3181ZM18.5595 12.6457C18.6253 12.6394 18.6551 12.6033 18.6504 12.5539C18.6457 12.5046 18.6096 12.4748 18.5438 12.4811L18.3792 12.4968L18.3965 12.6778L18.5611 12.6621L18.5595 12.6457Z" fill="white"/>
<path d="M12.9024 10.0963C12.8835 9.89883 12.9485 9.70993 13.0676 9.5657C13.1867 9.42147 13.3599 9.32191 13.5574 9.30307L15.2195 9.14446L15.2541 9.50655L13.5919 9.66515C13.4932 9.67457 13.414 9.71534 13.3545 9.78745C13.2949 9.85957 13.2699 9.945 13.2793 10.0438L13.3374 10.6527C13.3367 10.8189 13.2176 10.9631 13.071 10.9937L13.0068 11.0164L12.9188 10.0948L12.9024 10.0963Z" fill="white"/>
<path d="M13.0609 11.7586L13.0263 11.3965L14.6885 11.2379C14.7872 11.2285 14.8664 11.1877 14.9259 11.1156C14.9855 11.0435 15.0105 10.9581 15.0011 10.8593L14.9461 10.2833C14.9289 10.1023 15.0464 9.94157 15.2094 9.9094L15.2736 9.88666L15.3632 10.8248C15.382 11.0223 15.317 11.2112 15.1979 11.3554C15.0788 11.4996 14.9056 11.5992 14.7081 11.6181L13.0624 11.7751L13.0609 11.7586Z" fill="white"/>
<path d="M14.4706 9.99651L14.6516 9.97924L14.6375 9.83111L14.621 9.83268C14.5716 9.83739 14.5223 9.8421 14.4729 9.84681C14.3906 9.85467 14.3459 9.90875 14.3373 9.99262C14.3405 10.0255 14.3303 10.0929 14.335 10.1423L13.578 10.2145C13.5795 10.231 13.5827 10.2639 13.6007 10.2788C13.6282 10.3924 13.6556 10.5061 13.6995 10.6182C13.7223 10.6824 13.7434 10.7302 13.8108 10.7404C13.8289 10.7553 13.8618 10.7521 13.8782 10.7506C14.0263 10.7364 14.1745 10.7223 14.3226 10.7082C14.4213 10.6988 14.4479 10.6298 14.4581 10.5624C14.4699 10.5114 14.4652 10.4621 14.4769 10.4111C14.4824 10.2943 14.4863 10.1611 14.4917 10.0443C14.4753 10.0459 14.4706 9.99651 14.4706 9.99651Z" fill="white"/>
<path d="M14.4382 10.8797C14.4319 10.8139 14.3779 10.7693 14.3121 10.7756C14.2463 10.7819 14.2017 10.8359 14.208 10.9017C14.2143 10.9675 14.2683 11.0121 14.3341 11.0058C14.4014 11.016 14.4445 10.9455 14.4382 10.8797Z" fill="white"/>
<path d="M13.7637 10.9441C13.7699 11.0099 13.824 11.0545 13.8898 11.0482C13.9555 11.0419 14.0002 10.9879 13.9939 10.9221C13.9876 10.8563 13.9336 10.8117 13.8678 10.818C13.802 10.8243 13.7574 10.8783 13.7637 10.9441Z" fill="white"/>
<path d="M16.0935 9.77522C16.0747 9.57772 16.1397 9.38883 16.2588 9.2446C16.3779 9.10037 16.551 9.00081 16.7485 8.98196L18.4272 8.82179L18.4617 9.18387L16.7831 9.34405C16.6843 9.35347 16.6052 9.39424 16.5456 9.46635C16.4861 9.53847 16.4626 9.64036 16.4705 9.72265L16.5301 10.3481C16.5294 10.5142 16.4103 10.6584 16.2653 10.7055L16.2011 10.7282L16.11 9.77365L16.0935 9.77522Z" fill="white"/>
<path d="M16.2552 11.4704L16.2206 11.1083L17.8992 10.9481C17.998 10.9387 18.0771 10.898 18.1367 10.8258C18.1962 10.7537 18.2197 10.6518 18.2119 10.5695L18.1553 9.97705C18.138 9.79601 18.2556 9.63532 18.417 9.5867L18.4813 9.56396L18.5724 10.5185C18.5912 10.716 18.5262 10.9049 18.4071 11.0492C18.288 11.1934 18.1148 11.293 17.9173 11.3118L16.2552 11.4704Z" fill="white"/>
<path d="M17.1153 9.69433L17.1436 9.99058L16.8474 10.0188L16.8803 10.3645L17.1766 10.3362L17.2048 10.6325L17.5669 10.5979L17.5386 10.3017L17.8184 10.275L17.7854 9.92934L17.5056 9.95603L17.4774 9.65978L17.1153 9.69433Z" fill="white"/>
<path d="M9.70826 10.3845C9.68941 10.187 9.75443 9.99812 9.87352 9.85389C9.99262 9.70966 10.1658 9.61009 10.3633 9.59124L12.0419 9.43107L12.0765 9.79315L10.3978 9.95333C10.2991 9.96275 10.2199 10.0035 10.1604 10.0756C10.1008 10.1478 10.0774 10.2496 10.0852 10.3319L10.1449 10.9573C10.1441 11.1235 10.025 11.2677 9.88006 11.3148L9.8158 11.3375L9.72472 10.3829L9.70826 10.3845Z" fill="white"/>
<path d="M9.8699 12.0797L9.83535 11.7176L11.514 11.5575C11.6127 11.548 11.6919 11.5073 11.7514 11.4352C11.811 11.363 11.8345 11.2611 11.8266 11.1789L11.7701 10.5864C11.7528 10.4053 11.8703 10.2446 12.0318 10.196L12.096 10.1733L12.1871 11.1279C12.2059 11.3254 12.1409 11.5142 12.0218 11.6585C11.9027 11.8027 11.7296 11.9023 11.5321 11.9211L9.8699 12.0797Z" fill="white"/>
<path d="M11.4599 10.4665C11.4505 10.3678 11.4427 10.2855 11.4427 10.2855L11.4395 10.2526L11.4066 10.2557C11.3902 10.2573 11.3572 10.2604 11.3408 10.262C11.2601 10.2863 11.1613 10.2957 11.0986 10.3349C11.0195 10.3757 10.9733 10.4133 10.9466 10.4823C10.9074 10.4196 10.8549 10.3914 10.7695 10.3663C10.7005 10.3397 10.6018 10.3491 10.5179 10.3405C10.5015 10.3421 10.4686 10.3452 10.4521 10.3468L10.4192 10.3499L10.4223 10.3828C10.4223 10.3828 10.4318 10.4816 10.4396 10.5639C10.4506 10.6791 10.4679 10.8601 10.6536 10.8922L10.6701 10.8907C10.5792 10.9824 10.5949 11.147 10.6192 11.2277L10.6223 11.2606L10.7524 11.2316C10.8496 11.2057 10.9483 11.1963 11.0032 11.0748C11.08 11.1837 11.1638 11.1923 11.279 11.1813L11.3958 11.1868L11.3927 11.1539C11.4013 11.07 11.3856 10.9054 11.279 10.8326L11.2954 10.831C11.4702 10.7479 11.4709 10.5817 11.4599 10.4665Z" fill="white"/>
<path d="M6.51539 10.6892C6.49654 10.4917 6.56155 10.3028 6.68065 10.1585C6.79974 10.0143 6.97292 9.91475 7.17041 9.8959L8.84905 9.73573L8.8836 10.0978L7.20496 10.258C7.10621 10.2674 7.02707 10.3082 6.96752 10.3803C6.90797 10.4524 6.88448 10.5543 6.89233 10.6366L6.95201 11.262C6.95126 11.4282 6.83217 11.5724 6.68719 11.6194L6.62293 11.6422L6.53185 10.6876L6.51539 10.6892Z" fill="white"/>
<path d="M6.67717 12.3844L6.64262 12.0223L8.32126 11.8621C8.42 11.8527 8.49915 11.8119 8.5587 11.7398C8.61824 11.6677 8.64173 11.5658 8.63388 11.4835L8.57734 10.891C8.56007 10.71 8.67759 10.5493 8.8406 10.5171L8.90485 10.4944L8.99594 11.449C9.01478 11.6465 8.94978 11.8354 8.83068 11.9796C8.71159 12.1238 8.53841 12.2234 8.34092 12.2422L6.67874 12.4008L6.67717 12.3844Z" fill="white"/>
<path d="M8.02189 11.5087L7.97634 11.0314L7.78752 11.3152L7.532 11.0738L7.57754 11.5511L7.29777 11.5778L7.20825 10.6397L7.47156 10.6146L7.74669 10.8873L7.94883 10.569L8.2286 10.5423L8.31811 11.4804L8.02189 11.5087Z" fill="white"/>
<path d="M8.556 30.5073C8.44626 30.4015 8.39922 30.2566 8.38194 30.0755C8.36467 29.8945 8.40147 29.7581 8.4712 29.6186C8.55895 29.494 8.66787 29.4171 8.81598 29.403C8.9641 29.3889 9.10203 29.4421 9.19531 29.5495C9.30505 29.6553 9.3521 29.8003 9.36938 29.9813C9.38665 30.1623 9.35141 30.3152 9.28012 30.4382C9.19237 30.5629 9.08345 30.6397 8.93534 30.6538C8.78722 30.668 8.66574 30.6131 8.556 30.5073ZM9.15236 30.3176C9.21033 30.229 9.2158 30.1122 9.2048 29.997C9.19224 29.8653 9.1499 29.7697 9.09268 29.6922C9.019 29.6161 8.94846 29.573 8.84971 29.5825C8.75097 29.5919 8.68985 29.6475 8.63187 29.7361C8.5739 29.8247 8.56843 29.9415 8.57943 30.0567C8.59199 30.1883 8.63433 30.284 8.69155 30.3615C8.76523 30.4375 8.83578 30.4806 8.93452 30.4712C9.01681 30.4634 9.09438 30.4061 9.15236 30.3176Z" fill="white"/>
<path d="M9.78795 30.5393L9.77539 30.4076L10.1194 30.0094C10.1938 29.9192 10.2533 29.8471 10.2815 29.7946C10.3097 29.7421 10.3215 29.6911 10.3152 29.6253C10.3042 29.5101 10.1976 29.4372 10.0495 29.4514C9.9343 29.4624 9.82381 29.5227 9.73449 29.6309L9.71565 29.4334C9.80654 29.3417 9.91703 29.2813 10.0651 29.2672C10.1803 29.2562 10.2822 29.2797 10.3708 29.3377C10.4594 29.3956 10.5001 29.4748 10.5111 29.59C10.519 29.6723 10.5104 29.7562 10.4657 29.8103C10.4391 29.8792 10.3811 29.9678 10.2902 30.0595L10.0504 30.3315L10.61 30.2781L10.6257 30.4427L9.78638 30.5228L9.78795 30.5393Z" fill="white"/>
<path d="M10.9995 30.3572L10.9822 30.1762C11.0872 30.2326 11.2056 30.2545 11.3372 30.2419C11.4195 30.2341 11.4838 30.2113 11.5284 30.1573C11.5731 30.1032 11.6013 30.0507 11.5934 29.9684C11.5809 29.8367 11.4562 29.7489 11.2917 29.7646C11.2423 29.7694 11.1945 29.7905 11.1467 29.8117L11.1341 29.68L11.4334 29.3359L10.9397 29.383L10.924 29.2184L11.6646 29.1478L11.6787 29.2959L11.3943 29.622C11.4946 29.629 11.5801 29.6541 11.6522 29.7136C11.7243 29.7732 11.765 29.8523 11.776 29.9675C11.7886 30.0992 11.7486 30.2027 11.6726 30.2764C11.5982 30.3665 11.4862 30.4104 11.3545 30.423C11.2228 30.4355 11.1045 30.4136 10.9995 30.3572Z" fill="white"/>
<path d="M12.4209 30.288L12.3251 29.284L12.0759 29.4573L12.0587 29.2762L12.3227 29.085L12.4873 29.0693L12.602 30.2707L12.4209 30.288V30.288Z" fill="white"/>
<path d="M13.7892 30.0079C13.6794 29.9022 13.6324 29.7572 13.6151 29.5761C13.5978 29.3951 13.6346 29.2587 13.7044 29.1192C13.7921 28.9946 13.901 28.9177 14.0491 28.9036C14.1973 28.8895 14.3352 28.9427 14.4285 29.0501C14.5382 29.1559 14.5853 29.3009 14.6025 29.4819C14.6198 29.663 14.5846 29.8158 14.5133 29.9388C14.4255 30.0635 14.3166 30.1403 14.1685 30.1544C14.0204 30.1686 13.8989 30.1137 13.7892 30.0079ZM14.3855 29.8182C14.4435 29.7296 14.449 29.6128 14.438 29.4976C14.4254 29.3659 14.3831 29.2703 14.3258 29.1928C14.2522 29.1168 14.1816 29.0737 14.0829 29.0831C13.9841 29.0925 13.923 29.1482 13.865 29.2367C13.8071 29.3253 13.8016 29.4421 13.8126 29.5573C13.8251 29.689 13.8675 29.7846 13.9247 29.8621C13.9984 29.9382 14.0689 29.9812 14.1677 29.9718C14.25 29.964 14.3275 29.9067 14.3855 29.8182Z" fill="white"/>
<path d="M15.7419 28.8915C15.8336 28.9824 15.8956 29.1094 15.9128 29.2904C15.9317 29.4879 15.898 29.6572 15.8118 29.7983C15.7257 29.9394 15.6003 30.0178 15.4357 30.0335C15.337 30.0429 15.2515 30.0179 15.1645 29.9763L15.1488 29.8118C15.2194 29.8549 15.3213 29.8783 15.4035 29.8705C15.5187 29.8595 15.5979 29.8187 15.6559 29.7302C15.7138 29.6416 15.7373 29.5397 15.7263 29.4245C15.6699 29.5295 15.5579 29.5734 15.4262 29.586C15.311 29.597 15.2256 29.5719 15.137 29.5139C15.0649 29.4544 15.0061 29.3604 14.9951 29.2451C14.9841 29.1299 15.0076 29.028 15.0821 28.9379C15.1565 28.8478 15.2521 28.8054 15.3673 28.7944C15.5303 28.7623 15.6502 28.8007 15.7419 28.8915ZM15.2396 29.0225C15.1949 29.0766 15.1832 29.1275 15.191 29.2098C15.1973 29.2757 15.2201 29.3399 15.2726 29.3681C15.3267 29.4128 15.3941 29.423 15.4599 29.4167C15.5257 29.4104 15.5735 29.3893 15.6197 29.3516C15.666 29.314 15.6942 29.2615 15.7059 29.2105C15.6722 29.0311 15.5625 28.9253 15.4143 28.9394C15.3321 28.9473 15.2843 28.9684 15.2396 29.0225Z" fill="white"/>
<path d="M16.2985 29.8516L16.2813 29.6705C16.3863 29.7269 16.5046 29.7488 16.6363 29.7363C16.7186 29.7284 16.7828 29.7057 16.8275 29.6516C16.8722 29.5975 16.9004 29.545 16.8925 29.4627C16.8799 29.3311 16.7553 29.2433 16.5907 29.259C16.5414 29.2637 16.4936 29.2849 16.4458 29.3061L16.4332 29.1744L16.7325 28.8303L16.2388 28.8774L16.2231 28.7128L16.9637 28.6421L16.9778 28.7903L16.6934 29.1163C16.7937 29.1234 16.8791 29.1484 16.9512 29.208C17.0233 29.2675 17.0641 29.3467 17.0751 29.4619C17.0877 29.5936 17.0477 29.697 16.9717 29.7707C16.8973 29.8609 16.7852 29.9048 16.6536 29.9173C16.5219 29.9299 16.4036 29.908 16.2985 29.8516Z" fill="white"/>
<path d="M17.4733 29.8059L17.4607 29.6742L17.8047 29.276C17.8791 29.1859 17.9386 29.1138 17.9668 29.0613C17.995 29.0088 18.0068 28.9578 18.0005 28.892C17.9895 28.7768 17.8829 28.7039 17.7348 28.718C17.6196 28.729 17.5091 28.7894 17.4198 28.8976L17.4009 28.7001C17.4918 28.6083 17.6023 28.548 17.7504 28.5338C17.8656 28.5229 17.9675 28.5463 18.0561 28.6043C18.1447 28.6623 18.1854 28.7415 18.1964 28.8567C18.2043 28.939 18.1957 29.0228 18.151 29.0769C18.1244 29.1459 18.0664 29.2345 17.9755 29.3262L17.7358 29.5982L18.2953 29.5448L18.311 29.7094L17.4717 29.7895L17.4733 29.8059Z" fill="white"/>
<path d="M20.1738 29.216C20.1847 29.3312 20.1432 29.4182 20.0672 29.4919C19.9912 29.5656 19.8792 29.6095 19.7475 29.6221C19.6158 29.6347 19.4975 29.6127 19.4089 29.5547C19.3039 29.4983 19.2631 29.4192 19.2521 29.304C19.238 29.1559 19.3258 29.0312 19.4692 28.9677C19.3493 28.9293 19.274 28.8369 19.263 28.7217C19.2536 28.6229 19.2786 28.5375 19.3562 28.4802C19.4322 28.4066 19.5278 28.3642 19.643 28.3532C19.7582 28.3422 19.8601 28.3657 19.9487 28.4237C20.0373 28.4817 20.0764 28.5444 20.0859 28.6431C20.0969 28.7583 20.0405 28.8634 19.93 28.9237C20.0663 28.9606 20.1596 29.0679 20.1738 29.216ZM19.8947 29.0766C19.8422 29.0484 19.7732 29.0217 19.691 29.0296C19.6087 29.0374 19.5444 29.0602 19.4998 29.1143C19.4535 29.1519 19.4253 29.2044 19.4316 29.2702C19.4379 29.3361 19.4755 29.3823 19.528 29.4105C19.5805 29.4387 19.6495 29.4654 19.7318 29.4575C19.8141 29.4497 19.8783 29.4269 19.923 29.3728C19.9692 29.3352 19.9974 29.2827 19.9912 29.2169C19.9864 29.1675 19.9488 29.1212 19.8947 29.0766ZM19.8915 28.6949C19.8805 28.5797 19.7755 28.5233 19.6438 28.5358C19.5122 28.5484 19.4213 28.6401 19.4307 28.7389C19.4401 28.8376 19.5467 28.9105 19.6784 28.8979C19.8101 28.8854 19.901 28.7936 19.8915 28.6949Z" fill="white"/>
<path d="M20.5776 29.4433L20.5603 29.2622C20.6653 29.3186 20.7837 29.3406 20.9154 29.328C20.9976 29.3201 21.0619 29.2974 21.1066 29.2433C21.1512 29.1892 21.1794 29.1367 21.1716 29.0544C21.159 28.9228 21.0344 28.835 20.8698 28.8507C20.8204 28.8554 20.7726 28.8766 20.7248 28.8978L20.7123 28.7661L21.0116 28.422L20.5179 28.4691L20.5022 28.3045L21.2427 28.2338L21.2569 28.382L20.9724 28.708C21.0728 28.7151 21.1582 28.7401 21.2303 28.7997C21.3024 28.8592 21.3432 28.9384 21.3542 29.0536C21.3667 29.1853 21.3268 29.2887 21.2508 29.3624C21.1763 29.4526 21.0643 29.4965 20.9326 29.509C20.801 29.5216 20.6662 29.5012 20.5776 29.4433Z" fill="white"/>
<path d="M21.8346 29.3898L22.2623 28.3026L21.6534 28.3608L21.6377 28.1962L22.4606 28.1176L22.4747 28.2658L22.0486 29.3694L21.8346 29.3898V29.3898Z" fill="white"/>
<path d="M23.0084 29.1615C22.9167 29.0706 22.8547 28.9436 22.8374 28.7626C22.8186 28.5651 22.8523 28.3958 22.9384 28.2547C23.0246 28.1136 23.15 28.0352 23.3146 28.0195C23.4133 28.0101 23.5152 28.0336 23.5857 28.0767L23.6014 28.2412C23.5144 28.1997 23.429 28.1747 23.3467 28.1825C23.2315 28.1935 23.1524 28.2343 23.0944 28.3228C23.0364 28.4114 23.0129 28.5133 23.0239 28.6285C23.0803 28.5235 23.1924 28.4796 23.3241 28.467C23.4393 28.456 23.5247 28.4811 23.6133 28.5391C23.7018 28.5971 23.7442 28.6927 23.7552 28.8079C23.7661 28.9231 23.7278 29.043 23.6682 29.1151C23.5938 29.2053 23.4982 29.2476 23.383 29.2586C23.22 29.2907 23.1001 29.2524 23.0084 29.1615ZM23.5091 29.014C23.5538 28.96 23.5655 28.909 23.5577 28.8267C23.5514 28.7609 23.5286 28.6966 23.4761 28.6684C23.4221 28.6237 23.3711 28.612 23.2888 28.6199C23.223 28.6261 23.1752 28.6473 23.129 28.6849C23.0827 28.7226 23.0545 28.7751 23.0428 28.826C23.0765 29.0055 23.1863 29.1113 23.3344 29.0971C23.4018 29.1073 23.4645 29.0681 23.5091 29.014Z" fill="white"/>
<path d="M24.8297 29.1039L25.2574 28.0168L24.6485 28.0749L24.6328 27.9103L25.4557 27.8318L25.4698 27.9799L25.0437 29.0835L24.8297 29.1039V29.1039Z" fill="white"/>
<path d="M25.8933 28.936L25.876 28.755C25.981 28.8114 26.0994 28.8333 26.231 28.8208C26.3133 28.8129 26.3776 28.7902 26.4222 28.7361C26.4669 28.682 26.4951 28.6295 26.4872 28.5472C26.4747 28.4155 26.3501 28.3278 26.1855 28.3435C26.1361 28.3482 26.0883 28.3694 26.0405 28.3905L26.0279 28.2589L26.3273 27.9147L25.8335 27.9619L25.8178 27.7973L26.5584 27.7266L26.5725 27.8747L26.2881 28.2008C26.3884 28.2079 26.4739 28.2329 26.546 28.2925C26.6181 28.352 26.6588 28.4312 26.6698 28.5464C26.6824 28.678 26.6425 28.7815 26.5665 28.8552C26.492 28.9453 26.38 28.9892 26.2483 29.0018C26.1331 29.0128 25.9983 28.9924 25.8933 28.936Z" fill="white"/>
<path d="M28.0238 28.467C28.0348 28.5822 27.9933 28.6692 27.9173 28.7429C27.8413 28.8166 27.7292 28.8605 27.5976 28.873C27.4659 28.8856 27.3476 28.8637 27.259 28.8057C27.154 28.7493 27.1132 28.6701 27.1022 28.5549C27.0881 28.4068 27.1759 28.2822 27.3193 28.2187C27.1994 28.1803 27.1241 28.0878 27.1131 27.9726C27.1037 27.8739 27.1287 27.7884 27.2063 27.7312C27.2823 27.6575 27.3779 27.6152 27.4931 27.6042C27.6083 27.5932 27.7102 27.6167 27.7988 27.6747C27.8873 27.7326 27.9265 27.7953 27.936 27.8941C27.947 28.0093 27.8905 28.1143 27.7801 28.1747C27.9 28.2131 28.0097 28.3189 28.0238 28.467ZM27.7284 28.3291C27.6759 28.3009 27.6069 28.2743 27.5246 28.2821C27.4423 28.29 27.3781 28.3127 27.3334 28.3668C27.2872 28.4044 27.259 28.4569 27.2652 28.5228C27.2715 28.5886 27.3092 28.6348 27.3617 28.663C27.4142 28.6912 27.4831 28.7179 27.5654 28.71C27.6477 28.7022 27.712 28.6794 27.7566 28.6253C27.8029 28.5877 27.8311 28.5352 27.8248 28.4694C27.8201 28.42 27.7989 28.3722 27.7284 28.3291ZM27.7252 27.9474C27.7142 27.8322 27.6091 27.7758 27.4775 27.7884C27.3458 27.8009 27.2549 27.8926 27.2644 27.9914C27.2738 28.0901 27.3804 28.163 27.512 28.1504C27.6437 28.1379 27.7346 28.0462 27.7252 27.9474Z" fill="white"/>
<path d="M29.0888 27.618C29.1806 27.7089 29.2425 27.8359 29.2598 28.0169C29.2786 28.2144 29.2449 28.3837 29.1588 28.5248C29.0726 28.6659 28.9472 28.7443 28.7826 28.76C28.6839 28.7694 28.5985 28.7443 28.5115 28.7028L28.4958 28.5382C28.5663 28.5813 28.6682 28.6048 28.7505 28.597C28.8657 28.586 28.9448 28.5452 29.0028 28.4566C29.0608 28.3681 29.0843 28.2662 29.0733 28.151C29.0169 28.256 28.9048 28.2999 28.7731 28.3125C28.6579 28.3235 28.5725 28.2984 28.4839 28.2404C28.4118 28.1809 28.353 28.0868 28.342 27.9716C28.3311 27.8564 28.3545 27.7545 28.429 27.6644C28.5034 27.5742 28.599 27.5319 28.7142 27.5209C28.8772 27.4887 28.9971 27.5271 29.0888 27.618ZM28.5865 27.749C28.5419 27.8031 28.5301 27.854 28.538 27.9363C28.5442 28.0021 28.567 28.0664 28.6195 28.0946C28.6736 28.1393 28.741 28.1495 28.8068 28.1432C28.8726 28.1369 28.9204 28.1157 28.9667 28.0781C29.0129 28.0405 29.0411 27.988 29.0528 27.937C29.0191 27.7575 28.9094 27.6517 28.7613 27.6659C28.6954 27.6722 28.6312 27.6949 28.5865 27.749Z" fill="white"/>
</svg>
