<svg width="54" height="52" viewBox="0 0 54 52" fill="none" xmlns="http://www.w3.org/2000/svg">
<path d="M0.90271 16.2431C0.90271 12.1091 2.54505 8.21983 5.55137 5.28248C8.55768 2.34514 12.5383 0.740479 16.7694 0.740479H53.4019V8.62779H16.7694C14.7095 8.62779 12.7331 9.41652 11.2578 10.858C9.78248 12.2995 8.97523 14.2305 8.97523 16.2431L8.91955 29.4612C8.55768 32.9697 5.82973 35.7982 2.32236 36.3422L0.90271 36.5597V16.2431Z" fill="#E30015"/>
<path d="M0.902649 51.9536V44.0663H37.5352C39.5951 44.0663 41.5714 43.2776 43.0467 41.8089C44.5221 40.3675 45.3572 38.4636 45.3572 36.4238V23.8585C45.3572 20.1324 48.1965 16.8687 51.9822 16.3248L53.4018 16.1072V36.4238C53.4018 40.5578 51.7595 44.4471 48.7532 47.3844C45.7469 50.3218 41.7663 51.9265 37.5352 51.9265H0.902649V51.9536Z" fill="#E30015"/>
<path d="M31.9401 36.5869V26.3878L27.1523 31.9633L22.3923 26.3878V36.5869H16.0456V16.5422H22.0582L27.1523 22.9881L32.2741 16.5422H38.2589V36.5869H31.9401Z" fill="#E30015"/>
</svg>
