<svg width="177" height="32" viewBox="0 0 177 32" fill="none" xmlns="http://www.w3.org/2000/svg">
<g clip-path="url(#clip0)">
<path d="M94.5044 26.6299V5.37024H108.254V10.2985H100.23V26.6299H94.5044Z" fill="#E30015"/>
<path d="M125.553 26.6299V18.3028H117.025V26.6299H111.299V5.37024H117.025V13.3065H125.553V5.37024H131.279V26.6299H125.553Z" fill="#E30015"/>
<path d="M157.855 5.37024V10.2985H164.539V26.6299H170.282V10.2985H177V5.37024H157.855Z" fill="#E30015"/>
<path d="M149.414 26.6299V14.5131L140.295 26.6299H135.491V5.37024H141.235V17.3511L150.198 5.37024H155.158V26.6299H149.414Z" fill="#E30015"/>
<path d="M61.5585 26.6299V13.9863L55.8325 20.665L50.1066 13.9863V26.6299H44.3806V5.37024H50.037L55.8325 12.6777L61.6281 5.37024H67.2844V26.6299H61.5585Z" fill="#E30015"/>
<path d="M78.1793 19.1525H83.5049L80.8421 12.4908L78.1793 19.1525ZM86.481 26.6299L85.2976 23.656H76.3692L75.1858 26.6299H69.4076L78.2315 5.37024H83.5397L92.3636 26.6299H86.481Z" fill="#E30015"/>
<path d="M0 9.68667C0 7.10356 1.02684 4.67339 2.90649 2.83802C4.78614 1.00266 7.27493 0 9.92035 0H32.8242V4.92831H9.92035C8.63245 4.92831 7.39675 5.42114 6.47434 6.32183C5.55192 7.22252 5.0472 8.4291 5.0472 9.68667L5.01239 17.9458C4.78613 20.1381 3.08053 21.9055 0.88761 22.2453L0 22.3813V9.68667Z" fill="#E30015"/>
<path d="M-0.00012207 31.9999V27.0716H22.9037C24.1916 27.0716 25.4273 26.5787 26.3497 25.661C27.2721 24.7604 27.7943 23.5708 27.7943 22.2962V14.4449C27.7943 12.1167 29.5695 10.0774 31.9365 9.73752L32.8241 9.60156V22.2962C32.8241 24.8793 31.7972 27.3095 29.9176 29.1448C28.0379 30.9802 25.5491 31.9829 22.9037 31.9829H-0.00012207V31.9999Z" fill="#E30015"/>
<path d="M19.4055 22.3984V16.0255L16.412 19.5094L13.4359 16.0255V22.3984H9.46777V9.87366H13.2271L16.412 13.9013L19.6144 9.87366H23.3563V22.3984H19.4055Z" fill="#E30015"/>
</g>
<defs>
<clipPath id="clip0">
<rect width="177" height="32" fill="white"/>
</clipPath>
</defs>
</svg>
