<svg width="72" height="69" viewBox="0 0 72 69" fill="none" xmlns="http://www.w3.org/2000/svg">
<path fill-rule="evenodd" clip-rule="evenodd" d="M51.1035 67.2516L32.7082 56.3328L11.9605 61.5386L16.6721 40.7169L5.28599 22.6351L26.5948 20.6848L40.3047 4.30355L48.7629 23.9202L68.6214 31.8782L52.538 45.9513L51.1035 67.2516Z" fill="#020202"/>
<path d="M40.1757 47H38.5637H32.9217C32.591 47 32.3843 46.8863 32.3017 46.659C32.2397 46.411 32.2087 45.7497 32.2087 44.675C32.2087 44.3857 32.3017 44.179 32.4877 44.055C32.6737 43.9103 32.87 43.8277 33.0767 43.807C33.2833 43.7863 33.6657 43.776 34.2237 43.776C34.389 43.776 34.513 43.776 34.5957 43.776C34.5957 43.6727 34.5957 43.5383 34.5957 43.373C34.6163 43.2077 34.6267 43.094 34.6267 43.032L34.5647 40.614V33.732C34.544 33.2567 34.5337 32.523 34.5337 31.531V30.229C33.645 30.973 33.087 31.4277 32.8597 31.593C32.6323 31.7583 32.4463 31.841 32.3017 31.841C32.0123 31.841 31.754 31.6447 31.5267 31.252C31.2993 30.8387 31.1857 30.384 31.1857 29.888C31.1857 29.6813 31.599 29.175 32.4257 28.369C33.2523 27.5423 34.0377 26.8293 34.7817 26.23C35.3397 25.796 36.2283 25.579 37.4477 25.579C38.0057 25.579 38.2847 25.889 38.2847 26.509C38.2847 26.881 38.2743 27.501 38.2537 28.369C38.2537 29.2163 38.2537 29.826 38.2537 30.198V32.709C38.2537 33.1223 38.264 33.4323 38.2847 33.639V34.352C38.2847 35.9227 38.3053 37.7413 38.3467 39.808C38.388 41.8747 38.4087 43.218 38.4087 43.838H40.2377C40.6303 43.9 40.8267 44.1377 40.8267 44.551C40.8267 45.295 40.7957 45.853 40.7337 46.225C40.6717 46.597 40.5993 46.8243 40.5167 46.907C40.4547 46.969 40.341 47 40.1757 47Z" fill="white"/>
</svg>
