<svg width="76" height="73" viewBox="0 0 76 73" fill="none" xmlns="http://www.w3.org/2000/svg">
<path fill-rule="evenodd" clip-rule="evenodd" d="M50.4872 70.3357L33.0054 58.0072L11.9131 61.5691L18.2439 41.1813L8.31159 22.2619L29.7077 21.9895L44.6606 6.7344L51.5536 26.9542L70.7265 36.4457L53.5886 49.2136L50.4872 70.3357Z" fill="#020202"/>
<path d="M33.24 45.1561C33.302 45.1561 33.6327 45.2904 34.232 45.5591C34.8314 45.8277 35.3997 45.9621 35.937 45.9621C36.681 45.9621 37.3114 45.6934 37.828 45.1561C38.3654 44.6187 38.634 43.6784 38.634 42.3351C38.634 40.0617 37.6007 38.9251 35.534 38.9251H34.728C34.5007 38.9251 34.356 38.8114 34.294 38.5841C34.2527 38.3361 34.232 37.6954 34.232 36.6621C34.232 36.3107 34.418 36.0731 34.79 35.9491C35.162 35.8044 35.5754 35.7114 36.03 35.6701C36.4847 35.6287 36.898 35.3807 37.27 34.9261C37.642 34.4714 37.828 33.7894 37.828 32.8801C37.828 32.1774 37.6214 31.5781 37.208 31.0821C36.8154 30.5861 36.216 30.3381 35.41 30.3381C34.976 30.3381 34.542 30.4104 34.108 30.5551C33.674 30.6997 33.3227 30.8547 33.054 31.0201C32.7854 31.1647 32.6304 31.2371 32.589 31.2371C32.4444 31.2371 32.2274 31.0304 31.938 30.6171C31.6487 30.1831 31.504 29.7801 31.504 29.4081C31.504 28.9121 31.9587 28.3954 32.868 27.8581C33.798 27.3001 34.883 27.0211 36.123 27.0211C37.8177 27.0211 39.13 27.4447 40.06 28.2921C40.99 29.1187 41.455 30.3691 41.455 32.0431C41.455 34.4611 40.4527 36.0731 38.448 36.8791C38.4894 36.8584 38.634 36.8791 38.882 36.9411C39.1507 37.0031 39.4814 37.1477 39.874 37.3751C40.2874 37.5817 40.68 37.8814 41.052 38.2741C41.4447 38.6461 41.7754 39.2041 42.044 39.9481C42.3334 40.6714 42.478 41.5187 42.478 42.4901C42.478 44.5154 41.8994 46.1584 40.742 47.4191C39.6054 48.6591 38.0657 49.2791 36.123 49.2791C34.8624 49.2791 33.7257 49.0517 32.713 48.5971C31.721 48.1217 31.225 47.6877 31.225 47.2951C31.225 46.9644 31.4317 46.5201 31.845 45.9621C32.2584 45.4041 32.6407 45.1251 32.992 45.1251C33.0954 45.1251 33.178 45.1354 33.24 45.1561Z" fill="white"/>
</svg>
