<svg width="74" height="71" viewBox="0 0 74 71" fill="none" xmlns="http://www.w3.org/2000/svg">
<path fill-rule="evenodd" clip-rule="evenodd" d="M60.7833 62.6133L40.0445 57.3687L21.6297 68.2528L20.2336 46.9504L4.18087 32.847L24.0582 24.925L32.5511 5.32451L46.2323 21.7311L67.5333 23.7212L56.1092 41.7828L60.7833 62.6133Z" fill="#020202"/>
<path d="M35.2753 44.8071H41.9093C42.1366 44.8071 42.2916 44.8381 42.3743 44.9001C42.4569 44.9415 42.5189 45.1068 42.5603 45.3961C42.6223 45.6648 42.6533 46.1195 42.6533 46.7601C42.6533 47.2768 42.5706 47.6075 42.4053 47.7521C42.2606 47.8761 41.9299 47.9381 41.4133 47.9381H40.7623C40.5349 47.9381 40.0906 47.9485 39.4293 47.9691C38.7886 47.9691 38.1789 47.9691 37.6003 47.9691C37.4969 47.9485 37.3833 47.9381 37.2593 47.9381C35.4406 47.9795 33.8803 48.0001 32.5783 48.0001C32.1029 48.0001 31.7723 47.9381 31.5863 47.8141C31.4209 47.6901 31.3383 47.3905 31.3383 46.9151C31.3383 46.8531 31.3589 46.6775 31.4003 46.3881C31.5449 45.1481 31.7723 44.0115 32.0823 42.9781C32.3923 41.9241 32.8159 40.9321 33.3533 40.0021C33.9113 39.0721 34.3866 38.3281 34.7793 37.7701C35.1926 37.1915 35.7609 36.4475 36.4843 35.5381C36.7943 35.1661 37.0319 34.8561 37.1973 34.6081C37.3626 34.3601 37.5176 34.0088 37.6623 33.5541C37.8069 33.0995 37.8793 32.6035 37.8793 32.0661C37.8793 30.2061 36.4843 29.2245 33.6943 29.1211C33.4669 29.1211 33.3533 28.5425 33.3533 27.3851C33.3533 26.4345 33.6943 25.9591 34.3763 25.9591C35.7196 25.9591 36.9389 26.1451 38.0343 26.5171C39.1503 26.8685 40.1009 27.5091 40.8863 28.4391C41.6923 29.3691 42.0953 30.5265 42.0953 31.9111C42.0953 32.8618 41.8679 33.7918 41.4133 34.7011C40.9793 35.6105 40.4419 36.4475 39.8013 37.2121C39.1606 37.9561 38.5096 38.7001 37.8483 39.4441C37.1869 40.1881 36.6083 41.0251 36.1123 41.9551C35.6163 42.8851 35.3373 43.8358 35.2753 44.8071Z" fill="white"/>
</svg>
